<?xml version="1.0" encoding="UTF-8"?>
<svg id="Capa_1" xmlns="http://www.w3.org/2000/svg" version="1.1" viewBox="0 0 709.1 425.89">
  <!-- Generator: Adobe Illustrator 29.0.1, SVG Export Plug-In . SVG Version: 2.1.0 Build 192)  -->
  <defs>
    <style>
      .st0 {
        fill: #5c6267;
      }

      .st1 {
        fill: #ecf7f7;
      }

      .st2 {
        fill: #0d1c2a;
      }

      .st3 {
        fill: #696f72;
      }

      .st4 {
        fill: #192d3e;
      }

      .st5 {
        fill: #41494f;
      }
    </style>
  </defs>
  <polygon class="st5" points="-29.91 746 -30.91 746 -30.41 734.99 -29.91 746"/>
  <path class="st2" d="M34.09,406c-14.83-12.56-27.11-35.06-31-54-.25-1.2-.96-2.72-1-3-1.11-7.93.04-20.44,0-29-.03-6.32-.04-12.68,0-19v-11c0-9.71.07-20.21,0-30-.09-11.98-.09-24.02,0-36,.08-10.95,1.09-22.65,1-34-.07-8.87-1.06-17.78-1-27,4.23-1.15,2.53,2.69,4.4,4.1,1.28.97,3.29.66,4.54,1.46,2.88,1.84,5.5,10.7,11.06,7.44-.08,58-.32,116.05.45,174.05,6.29,29.74,27.95,50.51,58.02,54.98h548.08c32.92-3.8,59.84-27.54,61.5-61.5,2.36-48.21.87-101.92.96-150.54,2.62,1.9,6.48-.55,8.37.06s2.04,7.13,6.1,5.93c2.78-.82.41-7.19,2.53-8.99h1c-.06,4.15.1,8.33,0,12.49-.17,6.81-.02,13.5,0,20.51.04,11.65-.01,23.35,0,35,.01,9.32.06,18.68,0,28-.07,10.65.17,21.35,0,32-.17,10.64.51,21.45-1,32-5.25,36.69-32.19,67.25-68.74,74.76-94.91.54-189.4.17-284.26.24h-2c-76.33.04-152.19-.27-228.55-.05-16.77.05-40.48,2.88-56.46-1.45"/>
  <path class="st4" d="M639.09,10c6.9,1.42,25.75,8.08,31,12,2.44,1.82,11.2,8.22,13,10,2.35,2.34,5.54,9.1,8.83,11.67l11.17,18.33c.14,1.7.92,2.51,1,3,1.76,10.85,4.77,21.96,5,33,.11,5.37-1.04,11.94-1,18,.04,4.99-.03,10.01,0,15,.05,9.32.05,18.68,0,28-.05,10.5.94,20.5,0,31-2.12,1.8.24,8.17-2.53,8.99-4.06,1.2-4.18-5.31-6.1-5.93s-5.75,1.84-8.37-.06c.03-19.55-1.17-39.72-1.05-59.55.14-21.65,4.12-42.67-4.19-63.72-9.41-23.85-31.36-38.95-56.76-40.74-.99-.07-2.01.05-3,0s-2,.03-3,0c-11.61-.39-23.38.08-35,0-119.83-.82-239.84.92-359.55,1.05-46.9.05-95.03-3.55-142-1.1-34.78,1.82-62.04,22.78-64.45,59.05-5.78,1.24-2.04,11.56-1.96,15.46.18,8.67-1.06,18.21.96,26.54-.03,5.82,1.01,11.87,1,17-.92.09-1.75-.54-2.02.63-.48,2.04-.78,9.87,2.02,8.37v4c-3.02-1.67-2.28,7.63-2,8.01.12.16,1.44-.1,2,0v8c-5.56,3.26-8.18-5.6-11.06-7.44-1.26-.8-3.26-.49-4.54-1.46-1.86-1.41-.17-5.25-4.4-4.1v-4c.05-9.08.83-19.47,1-29s-.31-20.04,0-30c.12-3.89-.37-8.24,0-12,.53-5.31,3.26-16.76,5-22,3.51-10.54,12.03-24.27,20-32,1.01-.98,5.81-5.08,7-6,5.84-4.52,24.56-14.92,31-17,7.92-2.56,24.24-1.82,33-2,20.96-.42,42.03.08,63,0,10.65-.04,21.35.03,32,0,21.32-.05,42.68.03,64,0,10.65-.01,21.35.05,32,0,8.6-.04,21.67,1.18,29.55.1"/>
  <path class="st4" d="M322.31,8.68c1.34.95,28.33.34,32.78.32,21.03-.11,41.89.08,63,0"/>
  <path class="st0" d="M66.59,468v1c.65-.33.65-.67,0-1Z"/>
  <path class="st3" d="M355.09,9c-4.46.02-31.44.63-32.78-.32"/>
  <path class="st3" d="M194.09,9c-10.65.03-21.35-.04-32,0"/>
  <path class="st3" d="M290.09,9c-10.65.05-21.35-.01-32,0"/>
  <path class="st3" d="M2.09,290v2c-2.13.24-2.24.13-2-2h2Z"/>
  <path class="st1" d="M588.09,29c1.04,1.66,3.79,1,5.49,1.02,7.99.1,16.03.08,24.03,0,1.69-.02,4.45.64,5.49-1.02,1,.03,2-.05,3,0,.14,1.5,2.86,1.5,3,0,25.4,1.79,47.35,16.89,56.76,40.74,8.3,21.05,4.33,42.06,4.19,63.72-.13,19.83,1.08,40,1.05,59.55-.08,48.62,1.4,102.33-.96,150.54-1.66,33.96-28.57,57.7-61.5,61.51H80.55c-30.07-4.48-51.73-25.25-58.02-55-.77-58-.52-116.05-.45-174.05v-29c0-5.13-1.03-11.18-1-17,.07-13.03.12-28.74,1-42,2.41-36.27,29.67-57.23,64.45-59.05,46.97-2.46,95.1,1.14,142,1.1,119.7-.13,239.71-1.87,359.55-1.05h.01ZM40.09,193c-.03,3.99.03,8.01,0,12-.01,1.67.01,3.33,0,5-.25,39.58-2.77,79.87-1.05,119.55,1.23,28.25,10.87,50.11,40.51,56.49l554.59-.49c18.75-4.74,32.68-19.82,37.71-38.29,1.51-43.02-.75-86.43-.76-129.26-.01-39.74,3.54-81.73,1.05-121.55-1.68-26.73-15.43-44.34-42.51-48.49-110.29,0-220.95.16-330.99,0-69.89,3.77-144.79-4.85-214.09,0-26.15,1.83-42.61,20.94-44.49,46.51-2.28,30.98.31,66.9.04,98.54h-.01Z"/>
  <path class="st3" d="M2.09,301c-1.58-.66-1.58-4.34,0-5v5Z"/>
  <path class="st5" d="M22.09,88c-.88,13.26-.93,28.97-1,42-2.02-8.33-.78-17.87-.96-26.54-.08-3.9-3.82-14.22,1.96-15.46Z"/>
  <path class="st3" d="M623.09,29c-1.04,1.66-3.79,1-5.49,1.02-7.99.08-16.03.1-24.03,0-1.69-.02-4.45.64-5.49-1.02,11.62.08,23.39-.39,35,0h.01Z"/>
  <path class="st2" d="M22.09,147v9c-2.8,1.5-2.5-6.33-2.02-8.37.27-1.16,1.1-.53,2.02-.63Z"/>
  <path class="st2" d="M22.09,160v8c-.56-.09-1.88.17-2,0-.28-.38-1.02-9.68,2-8.01h0Z"/>
  <path class="st3" d="M629.09,29c-.14,1.5-2.86,1.5-3,0,.99.05,2.01-.07,3,0Z"/>
  <path class="st5" d="M66.59,468c.65.33.65.67,0,1v-1Z"/>
  <path class="st2" d="M435.09,160c0,.18.99,1.62,1.07,3.38.95,19.9-.86,40.63-.07,60.61,5.18-2.39,6.56,1.49,9.96,2.57,6.45,2.06,21.81-9.71,28.44-4.68.18.13,1.6,3.89,1.6,4.12,0,1.85-1.9,4.92-2.83,6.67-9.89,18.54-23.34,36.89-21.15,58.82.44,4.39,1.33,8.91,6.43,9.57,9.17,1.17,22.3-.29,32.09-.09,2.37.05,4.55,1.05,6.92,1.08,6.68.1,23.51,1.02,28.77-1.31,9.64-4.27,7.07-24.73-3.73-24.73h-41.5c-.68-3.88,1.3-6.45,2.83-9.67,7.74-16.24,19.85-33.58,29.17-49.33,3.17,2.49,5.53.74,8.24,1.17,1.99.31,3.72,1.62,6.25,1.84,4.42.4,14.82.91,18.81-.22,3.87-1.1,8.16-13.74,15.42-14.6,4.54-.54,7.27.55,13.28-1.19-.29,6.06-2.49,16.75,1.5,22,3.64,4.78,17.26.64,19.29,9.71,1.11,4.95.79,25.09.26,30.83-1.34,14.52-22.78,14.75-25.96-1.13-.62-3.11,1.52-7.66-2.58-8.42-2.76-.51-16.01-.35-18.55.45-8.53,2.67-3.92,17.65-1.43,23.54,8.42,19.93,33.98,27.38,53.17,18.2,8.66-4.14,20.47-15.69,21.36-25.64.86-9.67,1.04-37.42-2.54-45.54-1.76-4-7.91-8.86-7.53-12.46.25-2.42,6.99-7.35,8.03-10.54-.01.12.95.71.85,2.19s-1.6,3.09-1.64,4.48c0,.28,1.51,5.32,1.79,5.32h16.5c1.24,0,4.55,8.78,6.98,9.09,9.35,1.17,10.16-9.03,11.1-9.17,3.2-.46,11.14,2.43,15.42,1.08.01,42.83,2.27,86.24.76,129.26-5.04,18.47-18.96,33.55-37.71,38.29l-554.59.49c-29.63-6.38-39.28-28.24-40.51-56.49-1.72-39.68.8-79.97,1.05-119.55,2.1,1.04.46,6.46,1,7.01s10.16-.54,12.3-.02c.94.23,3.4,6.51,8.29,7.01,6.32.64,8.48-4.91,12.18-5.8,2.69-.65,10.71.18,14.61-.31,3.18-.41,7.09-.73,9.63-2.87-3.83,24.09-8.81,48.52-11.91,72.58-.97,7.54,1.46,13.43,9.5,14.39,17.59,2.09,14.2-16.42,16.88-27.99,1.84-7.94,2.9-4.1,8.99-3.92s12.66-.19,18.97-.09c3.01,7.42.87,28.63,9.73,31.38,7.14,2.21,16.33.65,17.69-7.79-3.44-26.99-8.57-53.72-12.86-80.55,5.67.91,3.63,5.01,3,8.99,10.99-2.59,13,10.56,23,11.01.06,18.49-2.08,44.01-.02,61.52.39,3.33,2.12,6.49,5.55,7.45,21.6-1.64,46.88,6.28,63.31-11.64,10.62-11.59,8.75-29.47,8.16-44.34,3.38.24,4.17,7.18,7.65,7.85,2.01.39,4.63-3.6,7.35-2.85.25,14.11-2.28,24.52,7.02,36.48,10.13,13.02,23.24,17.13,39.47,15.51,18.66-1.86,35.8-22.65,33.41-41.4-1.4-10.96-17.1-5.61-24.97-6.16-2.26,1.61.94,14.21-7.98,20.02-7.2,4.69-16.98,2.69-20.37-5.53-3.18-7.72-.59-14.08-.53-21.37.18-24.08-1.47-47.59-.05-71.55,3.24,5.38-3.03,17.04,6.38,16.98,5.25-.03,7.81-6.73,11.64-8.47,2.57-1.16,6.4.19,8.05-.95,2.05-1.41-.22-6.61,1.93-8.57,5.83,4.28,14.31,1.13,21,1,.05.42,1.57,1.2.89,3.25-.59,1.8-2.91,2.05-2.96,5.2-.13,9.48,9.72,9.71,11.89,17.28.69,2.4-3.25,5,2.18,4.26-6.2,4.71-7.38,16.35-.37,20.87,4.66,3,26.83,3.15,31.64.9,8.23-3.84,7.1-19.28-.27-21.77,1.84-8.5,8.96-6.52,12.83-.33,1.79,2.85,1.94,5.2,2.88,8.16.78,2.46.07,2.52,3.29,2.17-.21,26.08-.02,52.21.21,78.29,2.04,9.08,20.6,9.68,23.34.77,1.18-43.5-.03-87.05.43-130.57.02-1.69-.64-4.45,1.02-5.49h-.02ZM355.87,333.21c-1.73-1.24-9.84-2.17-11.28.79-1.04,2.13.32,19.79,1.44,20.56,1.96,1.36,9.93.65,10.9-2.23.73-2.17.47-18.03-1.05-19.13h-.01ZM109.09,337c-1.11.78-1.25,1.2-2,2-.13.14-1.31-.28-1.8.21-.52.53-.06,1.49-.2,1.79-5.15,10.65,1.25,18.29,11.59,20.91l39.7-1.12c5.35-2.49,9.1-7.08,10.71-12.79.25-.9,1.21-1.05,1-3.33-.07-.76-1.76-6.45-2.01-6.68-.58-.53-1.83,1-1.98,1.01-.72.03-4.17-3.99-7-5-5-1.79-32.95-1.73-39.5-1-4.85.54-5.25,1.72-8.5,4h-.01ZM259.09,334.5c-.78,2.49,0,14.22,0,18,0,1.87,9.54,4.53,11.5.51.82-1.68.92-16.84.05-18.06-1.02-1.45-10.69-3.23-11.56-.44h.01ZM300.98,353.89c.65-.77-.58-17.75-1.35-18.94-1.3-2.01-9.02-2.29-11.43-1.84-1.66,1.4-.64,17.76.38,19.89,1.52,3.16,11.45,2,12.4.89ZM317.09,334c-.47.74,0,14.86,0,17.5,0,2.92,11.99,4.23,12.77-.12-1.92-4.48.64-13.04-1.69-16.72-1.53-2.42-10.39-1.76-11.08-.66ZM379.81,333.21c-5.81,1.31-5.81,12.53-4.51,17.08,1.55,5.4,13.88,5.12,14.79.21,1.53-8.26,1.04-19.85-10.28-17.29h0ZM421.85,353.76c2.06-2.05,1.78-17.39-.25-19.77-1.2-1.41-10.13-1.56-11.57-.55s-1.43,16.6-.45,18.58c1.45,2.93,9.97,4.05,12.28,1.75h0ZM452.85,353.76c2.04-2.03,1.06-17.95-.2-19.83-1.01-1.51-9.8-1.3-11.57-.44-3.04,1.48-2.62,17.39-1.08,19.84s11,2.27,12.84.43h.01ZM483.95,351.86c-.23-6.04,2.77-18.5-6.38-18.92-5.76-.26-7.13,1.24-7.53,6.52-.94,12.54.19,16.23,13.9,12.4h.01ZM551.09,335c-4.46,2.46-3.16,1.85-5,6s-2.88,4.9-1.77,10.27c3.13,15.08,27.57,10.36,38.28,9.74,9.69-.57,18.55,2.64,23.66-8.34,2.31-4.97,2.5-8.3-1.17-12.67-.78-.93-1.05-1.22-2-2,.35-2.39-1.45-2.19-3-3-.69-.36-1.1-.74-2-1-6.91-2.02-33.22-1.76-41.54-1.05-3.63.31-3.07.73-5.46,2.05h0ZM230.31,335.21c-2.09,1.49-2.51,15.95,2.02,18.05,14.61,6.77,15.46-17.28,6.02-19.09-1.45-.28-7.14.4-8.04,1.04h0ZM508.82,336.16c-10.08,1.56-5.85,24.6,5.3,15.37,7.81-6.47.42-16.25-5.3-15.37ZM203.83,337.18c-7.15,1.46-9.49,12.72-1.72,16.31,12.48,5.75,14.41-18.89,1.72-16.31Z"/>
  <path class="st4" d="M671.09,218c-4.27,1.35-12.22-1.54-15.42-1.08-.94.14-1.75,10.34-11.1,9.17-2.43-.3-5.73-9.09-6.98-9.09h-16.5c-.28,0-1.79-5.04-1.79-5.32.04-1.4,1.55-3.06,1.64-4.48s-.87-2.08-.85-2.19c2.27-18.5,5.12-49.24-8.48-64.02-17.38-18.9-53.03-15.09-64.02,9.03-2.79,6.13-6.2,21.94,1.21,25.78,3,1.56,18.89,2.14,20.81.24,3.97-3.92-2.27-14.08,6.12-19.88,6.44-4.45,19.32-1.85,20.4,6.3.58,4.34.52,29.18-.6,32.51-3.18,9.44-11.65,5.89-17.98,7.06-2.04.38-2.32,1.94-2.47,1.99-6.01,1.74-8.75.65-13.28,1.19-7.26.86-11.55,13.51-15.42,14.6-3.99,1.13-14.38.62-18.81.22-2.53-.23-4.26-1.53-6.25-1.84-2.7-.43-5.06,1.33-8.24-1.17,4.09-6.91,10.32-15.4,13.97-22.74,4.85-9.76,3.37-35.51-1.59-45.15-16.76-32.57-70.45-23.63-73.37,13.4-.32,4.07-.67,12.42,3.73,14.24,3.53,1.46,18.84,2.19,21.68.17,3-2.13,1.06-9.58,1.64-13.36,1.93-12.72,23.98-14.48,25.94,2.93,2.23,19.81-4.53,21.32-13.42,35.59-4.35,6.98-8.08,14.55-12.57,21.48-.83,1.28-1.03,2.63-3.01,2.44,0-.22-1.42-3.98-1.6-4.12-6.63-5.03-21.99,6.73-28.44,4.68-3.39-1.08-4.77-4.96-9.96-2.57-.8-19.98,1.02-40.71.07-60.61-.08-1.76-1.06-3.2-1.07-3.38-.13-2.51-.83-4.64-1-7,3.18.78,2.98-3.88,0-3-.21-4.32-.29-9.72,0-14,0-.11,1.41-.95,1-1.99-.59-.16-1.7.19-2,0-2.21-1.44-2.63-3.35-6.57-3.93-12.88-1.89-14.72,6.07-22.78,13.58-5.82,5.42-15.57,8.18-12.98,19.15,3.09,13.1,11.83,5.3,20.38,9.87-.29,14.8-.92,29.52-1.04,44.33-3.22.35-2.51.29-3.29-2.17-.94-2.96-1.09-5.32-2.88-8.16-3.88-6.18-11-8.16-12.83.33-9.48-3.2-21.16.75-31,0-5.43.74-1.49-1.86-2.18-4.26-2.17-7.57-12.02-7.8-11.89-17.28.04-3.15,2.36-3.4,2.96-5.2.68-2.06-.84-2.83-.89-3.25-.23-1.86,3.78-3.88,4.07-8.52,2.88-45.23-75.3-58.05-79.11-3.02-1.31,18.92-.06,41.25.04,60.54-1.7,2.87-1.67,9.33,0,12v3c-1.58.66-1.58,4.34,0,5,.02,1.67-.03,3.33,0,5-2.72-.75-5.35,3.24-7.35,2.85-3.47-.68-4.27-7.61-7.65-7.85-.03-.66.03-1.34,0-2,1.48-.9,1.34-10.56,1-11.01-.12-.16-1.44.1-2,0-1.32-6.67-3.04-9.58-7.34-14.66-1.39-1.64-3.69-.99-3.76-4.86-.01-.57,6.06-6.55,7.29-8.79,5-9.08,4.86-32.47,3.8-43.18-3.34-33.74-45.57-35.23-71.31-30.28-2.63.51-3.35,2.26-4.41,4.52-.42,32.41-.37,64.85-.27,97.25-10-.45-12.01-13.59-23-11.01.62-3.99,2.67-8.09-3-8.99-.1-.63.1-1.37,0-2,1.5-2.26,2.28-9.07-1-8-3.66-22.58-7-45.33-11.79-67.71-4.02-8.35-29.71-8.7-31.74,2.68-4.36,25.65-8.38,51.35-12.47,77.03-2.54,2.14-6.44,2.47-9.63,2.87-3.89.5-11.91-.33-14.61.31-3.7.89-5.86,6.44-12.18,5.8-4.89-.5-7.35-6.78-8.29-7.01-2.14-.52-11.75.58-12.3.02s1.1-5.96-1-7.01c.01-1.67-.01-3.33,0-5,1.67-2.67,1.7-9.13,0-12,.27-31.63-2.32-67.56-.04-98.54,1.88-25.57,18.35-44.68,44.49-46.51,69.31-4.85,144.2,3.77,214.09,0,110.03.17,220.7,0,330.99,0,27.09,4.14,40.84,21.76,42.51,48.49,2.5,39.82-1.06,81.81-1.05,121.55h.02ZM114.8,71.21c-8.18,1.83-14.62,14.39-8.73,21.31,1.71,2.01,7.34,5.48,9.96,6.04,6.42,1.36,37.42,1.16,43.28-.83,11.67-3.95,11.32-23.55-1.94-26.52-4.25-.95-38.33-.95-42.58,0h0ZM553.8,71.21c-13.74,4.13-12.1,23.89,1.02,26.56,5.21,1.06,37.34,1.06,42.54,0,4.92-1,10.16-7.18,11.05-11.98.96-5.15-5.43-12.55-10.07-14.55l-44.55-.03h.01ZM373.85,80.24c-1.15-1.15-4.59-1.41-6.24-1.29-9.79.7-8.94,18.24,2.01,18.14,7.16-.06,6.78-14.31,4.24-16.85h-.01ZM236.85,80.2c-9.19,1.37-9.49,15.2-1.82,16.37,15.15,2.33,14.13-18.21,1.82-16.37ZM275.85,81.24c-3.06-3.06-12.84-1.91-13.72,4.35-1.67,11.74,11.29,14.83,14.47,9.43,1.11-1.87.85-12.18-.75-13.77h0ZM297.8,80.21c-6.23,1.79-5.68,16.53,4.83,16.83,8.66.24,8.82-6.23,7.43-13.51-.86-4.53-8.65-4.35-12.26-3.32h0ZM341.96,80.13c-.59-.38-7.12-.34-8.35-.11-5.9,1.11-8.17,15.87,3.13,16.61,10.52.7,7.18-15.23,5.22-16.5ZM395.81,80.21c-8.53,1.91-4.94,17.17,1.69,16.81,5.87-.33,6.03-5.97,5.58-10.52-.51-5.24-1.53-7.57-7.27-6.29ZM419.23,80.15c-2.64,1.68-4.27,18.8,6.15,15.66,4.39-1.32,3.55-14.47.05-15.64-1.09-.36-5.43-.51-6.2-.02h0ZM454.95,81.14c-.57-.92-5.98-1.37-7.4-1.22-8.1.84-5.21,19.53,3.81,16.9,4.49-1.31,4.89-13.58,3.58-15.68h.01ZM208.82,95.73c4.33-3.48,3.95-15.77-6.24-14.78-6.99.68-7.64,3.91-6.44,10.5,1.1,6,8.77,7.43,12.68,4.28h0ZM473.78,81.2c-4.53,1.36-4.55,10.24-1.75,13.36,2.54,2.82,11.35,1.65,12.07-2.04,1.59-8.15-1.27-14.03-10.32-11.32ZM506.8,81.21c-8.42,2.52-4.41,18.8,6.35,15.34,9.45-3.04,4.44-18.58-6.35-15.34Z"/>
  <path class="st2" d="M40.09,205c.03-3.99-.03-8.01,0-12,1.7,2.87,1.67,9.33,0,12Z"/>
  <path class="st1" d="M181.09,233c-.1-32.4-.15-64.85.27-97.25,1.06-2.25,1.78-4.01,4.41-4.52,25.74-4.95,67.97-3.46,71.31,30.28,1.06,10.71,1.2,34.1-3.8,43.18-1.24,2.25-7.3,8.22-7.29,8.79.07,3.87,2.37,3.22,3.76,4.86,4.3,5.08,6.02,7.99,7.34,14.66.72,3.63.81,7.31,1,11,.03.66-.03,1.34,0,2,.59,14.87,2.46,32.75-8.16,44.34-16.43,17.92-41.71,9.99-63.31,11.64-3.43-.96-5.16-4.12-5.55-7.45-2.06-17.51.08-43.03.02-61.52h0ZM205.09,203c8.6-2.89,23.59,3.38,26.53-7.97,1.01-3.92,1.16-28.35.26-32.32-.62-2.73-5.71-7.71-8.29-7.71h-18.5v48h0ZM205.09,277c11.26-2.51,26.26,4.15,28-11.5.77-6.94.69-22,.04-29.05-1.27-13.86-18.95-5.91-28.05-9.45v50h0Z"/>
  <path class="st1" d="M154.09,203c.42,2.59.61,5.58,1,8,.1.63-.1,1.37,0,2,4.29,26.83,9.41,53.56,12.86,80.55-1.36,8.44-10.56,10-17.69,7.79-8.86-2.74-6.72-23.96-9.73-31.38-6.31-.11-12.67.26-18.97.09s-7.15-4.02-8.99,3.92c-2.69,11.57.71,30.09-16.88,27.99-8.05-.96-10.48-6.85-9.5-14.39,3.1-24.06,8.08-48.49,11.91-72.58,4.09-25.68,8.11-51.39,12.47-77.03,2.03-11.38,27.72-11.03,31.74-2.68,4.79,22.38,8.13,45.14,11.79,67.71h0ZM118.09,245h18c-.82-4.3-6.03-48.07-8.51-48.01-1.92.04-1.98,1.1-2.44,2.56-4.21,13.39-3.77,31.53-7.05,45.45Z"/>
  <path class="st1" d="M620.09,205c-1.04,3.18-7.78,8.12-8.03,10.54-.38,3.61,5.77,8.47,7.53,12.46,3.58,8.12,3.4,35.87,2.54,45.54-.89,9.96-12.69,21.5-21.36,25.64-19.19,9.18-44.75,1.73-53.17-18.2-2.49-5.89-7.1-20.86,1.43-23.54,2.55-.8,15.79-.96,18.55-.45,4.1.76,1.96,5.31,2.58,8.42,3.19,15.88,24.62,15.65,25.96,1.13.53-5.75.85-25.88-.26-30.83-2.03-9.08-15.65-4.93-19.29-9.71-3.99-5.25-1.79-15.94-1.5-22,.15-.04.44-1.61,2.47-1.99,6.33-1.17,14.8,2.38,17.98-7.06,1.12-3.33,1.17-28.17.6-32.51-1.08-8.15-13.96-10.75-20.4-6.3-8.39,5.8-2.16,15.95-6.12,19.88-1.92,1.9-17.81,1.31-20.81-.24-7.41-3.84-4-19.66-1.21-25.78,10.99-24.11,46.64-27.93,64.02-9.03,13.59,14.79,10.75,45.52,8.48,64.02h.01Z"/>
  <path class="st1" d="M476.09,226c1.99.2,2.19-1.16,3.01-2.44,4.49-6.93,8.22-14.5,12.57-21.48,8.89-14.27,15.65-15.78,13.42-35.59-1.96-17.42-24.01-15.65-25.94-2.93-.57,3.78,1.36,11.23-1.64,13.36-2.84,2.01-18.15,1.29-21.68-.17-4.4-1.82-4.05-10.17-3.73-14.24,2.92-37.03,56.6-45.98,73.37-13.4,4.96,9.64,6.44,35.39,1.59,45.15-3.65,7.34-9.89,15.83-13.97,22.74-9.32,15.75-21.43,33.09-29.17,49.33-1.53,3.22-3.51,5.79-2.83,9.67h41.5c10.81,0,13.37,20.46,3.73,24.73-5.26,2.33-22.09,1.41-28.77,1.31-2.36-.04-4.55-1.03-6.92-1.08-9.79-.2-22.92,1.26-32.09.09-5.1-.65-6-5.18-6.43-9.57-2.18-21.93,11.26-40.28,21.15-58.82.93-1.75,2.83-4.82,2.83-6.67h0Z"/>
  <path class="st1" d="M273.09,226c-.1-19.29-1.35-41.62-.04-60.54,3.81-55.03,81.99-42.2,79.11,3.02-.3,4.64-4.3,6.66-4.07,8.52-6.69.13-15.17,3.28-21-1,5.02-17.55-19.67-31.5-27-14-.24.56-.86.9-1,2-.52,3.94.25,8.85,0,13-1.43,23.96.23,47.47.05,71.55-.06,7.29-2.65,13.65.53,21.37,3.39,8.22,13.17,10.22,20.37,5.53,8.93-5.81,5.72-18.41,7.98-20.02,7.87.55,23.57-4.8,24.97,6.16,2.39,18.74-14.75,39.53-33.41,41.4-16.23,1.62-29.34-2.49-39.47-15.51-9.3-11.96-6.78-22.37-7.02-36.48-.03-1.67.02-3.33,0-5s.01-3.33,0-5v-3c-.03-3.99.02-8.01,0-12h0Z"/>
  <path class="st1" d="M410.09,217c.12-14.81.75-29.53,1.04-44.33-8.54-4.57-17.28,3.23-20.38-9.87-2.59-10.96,7.16-13.72,12.98-19.15,8.06-7.51,9.91-15.47,22.78-13.58,3.93.58,4.35,2.49,6.57,3.93l1,2c-.29,4.28-.21,9.68,0,14,.05.99-.07,2.01,0,3,.17,2.36.87,4.49,1,7-1.66,1.04-1,3.8-1.02,5.49-.46,43.52.75,87.07-.43,130.57-2.75,8.91-21.31,8.32-23.34-.77-.24-26.08-.42-52.21-.21-78.29h0Z"/>
  <path class="st3" d="M164.09,339l3,9c-1.62,5.71-5.36,10.3-10.71,12.79l-39.7,1.12c-10.33-2.62-16.73-10.26-11.59-20.91,2.13.24,2.24.13,2-2,.75-.8.89-1.22,2-2,5.85-1.4,10.31-2.65,16.55-2.06,2.39.23,7.25.86,9.69,1.22,1.87.28,9.27,4.04,10.21,3.82,1.45-.33,1.42-3.78,2.5-4.53,2.18-1.52,6.98.92,9.04-1.46,2.83,1.01,6.28,5.03,7,5h0Z"/>
  <path class="st3" d="M605.09,340c3.67,4.38,3.48,7.7,1.17,12.67-5.11,10.98-13.96,7.77-23.66,8.34-10.71.63-35.15,5.34-38.28-9.74-1.11-5.38-.03-6.2,1.77-10.27l7.45-3.05c14.15-.49,28,.46,42.01,2.1,2.5.29,5.77,3.47,9.54-.05h0Z"/>
  <path class="st1" d="M391.09,207c7.37,2.49,8.5,17.93.27,21.77-4.8,2.24-26.98,2.09-31.64-.9-7.02-4.51-5.84-16.16.37-20.87,9.84.75,21.52-3.2,31,0h0Z"/>
  <path class="st4" d="M327.09,176c-2.16,1.96.11,7.15-1.93,8.57-1.65,1.14-5.48-.21-8.05.95-3.83,1.73-6.39,8.43-11.64,8.47-9.4.06-3.14-11.6-6.38-16.98.25-4.15-.52-9.06,0-13,1.7.1,2.34.36,1.99-1.49l-.99-.51c7.33-17.5,32.02-3.55,27,14h0Z"/>
  <path class="st0" d="M452.85,353.76c-1.84,1.84-11.35,1.94-12.84-.43s-1.96-18.36,1.08-19.84c1.77-.86,10.56-1.07,11.57.44,1.26,1.88,2.23,17.8.2,19.83h-.01Z"/>
  <path class="st5" d="M421.85,353.76c-2.31,2.3-10.83,1.18-12.28-1.75-.98-1.98-.95-17.6.45-18.58s10.37-.86,11.57.55c2.03,2.38,2.31,17.72.25,19.77h0Z"/>
  <path class="st5" d="M379.81,333.21c11.32-2.56,11.81,9.03,10.28,17.29-.91,4.91-13.24,5.18-14.79-.21-1.3-4.54-1.31-15.76,4.51-17.08h0Z"/>
  <path class="st5" d="M355.87,333.21c1.53,1.1,1.78,16.96,1.05,19.13-.97,2.88-8.94,3.58-10.9,2.23-1.12-.77-2.48-18.43-1.44-20.56,1.45-2.96,9.55-2.03,11.28-.79h.01Z"/>
  <path class="st5" d="M300.98,353.89c-.95,1.12-10.88,2.27-12.4-.89-1.02-2.13-2.04-18.49-.38-19.89,2.41-.45,10.14-.16,11.43,1.84.77,1.19,2,18.17,1.35,18.94h0Z"/>
  <path class="st5" d="M230.31,335.21c.9-.65,6.59-1.32,8.04-1.04,9.44,1.81,8.59,25.86-6.02,19.09-4.52-2.1-4.1-16.55-2.02-18.05h0Z"/>
  <path class="st5" d="M483.95,351.86c-13.71,3.83-14.84.14-13.9-12.4.39-5.27,1.76-6.78,7.53-6.52,9.15.42,6.15,12.87,6.38,18.92h-.01Z"/>
  <path class="st5" d="M259.09,334.5c.87-2.79,10.54-1.01,11.56.44.86,1.23.77,16.38-.05,18.06-1.96,4.03-11.5,1.36-11.5-.51,0-3.78-.78-15.51,0-18h-.01Z"/>
  <path class="st5" d="M317.09,334c.69-1.09,9.55-1.76,11.08.66,2.33,3.68-.23,12.24,1.69,16.72-.77,4.34-12.77,3.04-12.77.12,0-2.64-.47-16.76,0-17.5Z"/>
  <path class="st5" d="M203.83,337.18c12.69-2.59,10.76,22.06-1.72,16.31-7.77-3.58-5.43-14.85,1.72-16.31Z"/>
  <path class="st1" d="M600.09,335c.2,3.31,2.65,2.71,3,3,.95.78,1.22,1.07,2,2-3.77,3.51-7.04.34-9.54.05-14.01-1.64-27.86-2.59-42.01-2.1l-7.45,3.05c1.84-4.15.54-3.54,5-6l16.54,1.04,30.46-2.04c.9.26,1.31.64,2,1h0Z"/>
  <path class="st0" d="M508.82,336.16c5.73-.89,13.11,8.9,5.3,15.37-11.15,9.23-15.39-13.81-5.3-15.37Z"/>
  <path class="st1" d="M157.09,334c-2.07,2.37-6.86-.07-9.04,1.46-1.09.76-1.05,4.2-2.5,4.53-.95.21-8.34-3.55-10.21-3.82-2.44-.36-7.3-.99-9.69-1.22-6.24-.6-10.7.65-16.55,2.06,3.25-2.29,3.64-3.47,8.5-4,6.56-.73,34.51-.78,39.5,1h0Z"/>
  <path class="st3" d="M598.09,334l-30.46,2.04-16.54-1.04c2.39-1.32,1.82-1.74,5.46-2.05,8.32-.71,34.64-.97,41.54,1.05Z"/>
  <path class="st4" d="M164.09,339c.16,0,1.4-1.54,1.98-1.01.26.24,1.94,5.92,2.01,6.68.21,2.28-.74,2.43-1,3.33l-3-9h.01Z"/>
  <path class="st1" d="M107.09,339c.24,2.13.13,2.24-2,2,.15-.3-.32-1.27.2-1.79.48-.48,1.67-.07,1.8-.21Z"/>
  <path class="st3" d="M600.09,335c1.55.81,3.35.61,3,3-.35-.29-2.8.31-3-3Z"/>
  <path class="st1" d="M553.8,71.21l44.55.03c4.63,1.99,11.03,9.4,10.07,14.55-.89,4.8-6.13,10.98-11.05,11.98-5.21,1.06-37.33,1.06-42.54,0-13.11-2.67-14.76-22.43-1.02-26.56h-.01ZM559.32,93.76c2,1.68,27.16,1.69,31.03,1,7.44-1.33,11.59-12.11,2.18-13.7-4.93-.83-9.12,1.05-12.99.98-5.08-.09-15.07-2.5-19.82-.9-3.56,1.2-2.7,10.7-.4,12.63h0Z"/>
  <path class="st1" d="M114.8,71.21c4.25-.95,38.33-.95,42.58,0,13.26,2.97,13.61,22.57,1.94,26.52-5.87,1.98-36.86,2.19-43.28.83-2.62-.56-8.25-4.03-9.96-6.04-5.89-6.92.55-19.48,8.73-21.31h0ZM152.59,80c-10.02-1.7-24.46,1.26-35,0-3.66,2.44.39,12.45,3.28,13.98s24.19,1.48,28.77,1.07c10.5-.93,10.94-13.69,2.95-15.05Z"/>
  <path class="st0" d="M297.8,80.21c3.61-1.03,11.4-1.21,12.26,3.32,1.38,7.28,1.22,13.75-7.43,13.51-10.51-.29-11.06-15.04-4.83-16.83h0Z"/>
  <path class="st0" d="M275.85,81.24c1.6,1.6,1.85,11.9.75,13.77-3.19,5.4-16.14,2.32-14.47-9.43.89-6.25,10.66-7.41,13.72-4.35h0Z"/>
  <path class="st0" d="M236.85,80.2c12.31-1.83,13.32,18.7-1.82,16.37-7.66-1.18-7.37-15,1.82-16.37Z"/>
  <path class="st0" d="M373.85,80.24c2.54,2.53,2.92,16.78-4.24,16.85-10.95.1-11.79-17.44-2.01-18.14,1.65-.12,5.09.14,6.24,1.29h.01Z"/>
  <path class="st0" d="M341.96,80.13c1.97,1.28,5.3,17.2-5.22,16.5-11.31-.75-9.03-15.5-3.13-16.61,1.23-.23,7.76-.27,8.35.11Z"/>
  <path class="st0" d="M208.82,95.73c-3.91,3.15-11.59,1.72-12.68-4.28-1.2-6.59-.55-9.81,6.44-10.5,10.19-1,10.58,11.29,6.24,14.78Z"/>
  <path class="st5" d="M506.8,81.21c10.79-3.23,15.8,12.31,6.35,15.34-10.76,3.46-14.77-12.82-6.35-15.34Z"/>
  <path class="st0" d="M473.78,81.2c9.05-2.71,11.91,3.17,10.32,11.32-.72,3.69-9.53,4.87-12.07,2.04-2.8-3.12-2.78-12,1.75-13.36Z"/>
  <path class="st0" d="M454.95,81.14c1.31,2.1.9,14.37-3.58,15.68-9.02,2.63-11.91-16.06-3.81-16.9,1.42-.15,6.82.3,7.4,1.22h-.01Z"/>
  <path class="st0" d="M395.81,80.21c5.74-1.29,6.76,1.05,7.27,6.29.45,4.54.29,10.19-5.58,10.52-6.63.37-10.22-14.9-1.69-16.81Z"/>
  <path class="st0" d="M419.23,80.15c.77-.49,5.11-.34,6.2.02,3.5,1.17,4.34,14.32-.05,15.64-10.42,3.14-8.79-13.98-6.15-15.66h0Z"/>
  <path class="st2" d="M154.09,203c3.28-1.07,2.5,5.74,1,8-.39-2.42-.58-5.41-1-8Z"/>
  <path class="st2" d="M257.09,233c.56.09,1.88-.17,2,0,.34.45.48,10.1-1,11.01-.19-3.69-.28-7.37-1-11h0Z"/>
  <path class="st2" d="M273.09,238c-1.67-2.67-1.7-9.13,0-12,.02,3.99-.03,8.01,0,12Z"/>
  <path class="st2" d="M434.09,150c2.98-.88,3.18,3.78,0,3-.07-.99.05-2.01,0-3Z"/>
  <path class="st2" d="M273.09,246c-1.58-.66-1.58-4.34,0-5,.01,1.67-.02,3.33,0,5Z"/>
  <path class="st2" d="M433.09,134c.3.19,1.41-.16,2,0,.41,1.04-.99,1.88-1,1.99l-1-2h0Z"/>
  <path class="st2" d="M205.09,277v-50c9.09,3.54,26.78-4.41,28.05,9.45.65,7.05.73,22.11-.04,29.05-1.74,15.65-16.74,8.99-28,11.5h0Z"/>
  <path class="st4" d="M205.09,203v-48h18.5c2.58,0,7.67,4.98,8.29,7.71.9,3.97.75,28.4-.26,32.32-2.94,11.35-17.93,5.09-26.53,7.97Z"/>
  <path class="st4" d="M118.09,245c3.28-13.92,2.84-32.06,7.05-45.45.46-1.46.52-2.52,2.44-2.56,2.48-.06,7.69,43.71,8.51,48.01h-18Z"/>
  <path class="st2" d="M300.09,162l.99.51c.35,1.85-.29,1.59-1.99,1.49.14-1.1.76-1.44,1-2Z"/>
  <path class="st3" d="M559.32,93.76c-2.29-1.93-3.16-11.43.4-12.63,4.74-1.6,14.73.81,19.82.9,3.87.07,8.06-1.81,12.99-.98,9.41,1.59,5.25,12.37-2.18,13.7-3.87.69-29.03.69-31.03-1h0Z"/>
  <path class="st3" d="M152.59,80c7.98,1.36,7.55,14.12-2.95,15.05-4.58.41-25.78.51-28.77-1.07s-6.94-11.53-3.28-13.98c10.54,1.26,24.98-1.7,35,0Z"/>
</svg>