<?xml version="1.0" encoding="UTF-8"?>
<svg xmlns="http://www.w3.org/2000/svg" version="1.1" viewBox="0 0 1024 777">
  <!-- Generator: Adobe Illustrator 29.0.1, SVG Export Plug-In . SVG Version: 2.1.0 Build 192)  -->
  <defs>
    <style>
      .st0 {
        fill: #758996;
      }

      .st1 {
        fill: #5c7282;
      }

      .st2 {
        fill: #edf9fe;
      }

      .st3 {
        fill: #435464;
      }

      .st4 {
        fill: #f6f8e8;
      }

      .st5 {
        fill: #a6aaac;
      }

      .st6 {
        fill: #252b36;
      }
    </style>
  </defs>
  <g id="Capa_1">
    <g>
      <path class="st6" d="M601,396c-.3-.4-.7-.6-1-1h1c0,.3,0,.7,0,1Z"/>
      <path class="st1" d="M587,0l1,5c-22.8-1.5-45.6-2.4-68.5-2l1.5,2c-11.3.6-22.7.6-34,1-.6-2.7,1.4-2,3.1-2.3,3.2-.6,6.5-.8,9.7-1.4,1.8-.3,3.7.4,3.1-2.3h84Z"/>
      <path class="st0" d="M758,174c0,4.3,0,8.7,0,13-2.8.4-6.7-.6-9.3,0-.5.1-1.5,3.4-4.7,2-.1,2.3-.3,1.8,1.5,2,4.1.5,8.4,0,12.5,1,0,2,0,4,0,6-28.4,1.3-57,1.1-85.5,1.1-4.3,0-4.8-1-9.5,0-2.9.6-4.8-.8-5.8,3.7-.8,3.8-.9,14.1-1,18.8,0,1.3.8,2.6.8,3.4l-72,.5,11.5,2.5c20.2-.2,40.4-.1,60.5,1,0,2.6-1,5.1-1,7-9.1,2.2-19.2.5-28.5,1-6.1.3-11.1,1.7-16.5,3-.9.2-15.2-1.7-18-2-.6,0-2.3-1.8-4-1v5c1.7,0,3.3,0,5,0,4.5,0,8.5-1.3,13-1-.9,6.2,2.2,13.4,1.1,19.5-.2,1.3-3.1-.1-3.1,1,.3,1.2,2.8-.3,3.1,1,.5,2.8.3,30.2-.5,31.5-8.1,3.3-16,7.7-24.3,10.7-15.8,5.8-30.5,7.8-46.5,11.5-4.9,1.1-14.5,5.5-18.4,5.7-1.2,0-3.4-.4-3.4-1.5v-36l-3-5.5c0,7.3,0,14.7,0,22l-32,1c-.2-5.5.7-11.6-.7-16.8-.5-1.8.3-2.6-2.3-2.2v36.5c0,2.2,2,7.2,1,10.5-.7,0-1.4,0-2,0-7.5.6-15.1,1.9-22,5-.5-.2-1.4.1-2,0-.8-10.4-1.3-26.1-1-36.5,0-2.3.5-4.2,1-6.4h-4v41.5c-1.4,2-4.3,1.7-6,2.5-.6.3-1.6.9-2,1l-4,1c-1,0-2.1-.1-3,0-5.6.8-11.3,2.4-17,3l-.9-38.4c-.2-.8-4-1.4-5.1-1.6-1.1-.2-8-1.1-8.4-1.1-.8,0-.2,2.9-3.1,2.1-.9-.2.2-2.5-1.5-2,0,.8-.1,1.7,0,2.5.2,1.1,11.1.2,13,.5.1.1,2.4-.5,2.1,1.4-1.3,5.6,3.1,36,0,38.1l-68.1,12.4-1.1-37.4c-.9-2.8-6.4-1.4-8.9-1.6.1,1.9,2.9.6,4.6,1.9.8.6,1.2,1.6,1.4,2.6l.9,36.4c-9.3.2-23.2,7.1-31.9,6.1-.3,0-3.4-3.2-3,1-1,.1-2.2-.2-3,0,.6-3-1.5-1.9-3.5-2-7.5-.3-18.8-.9-22.5,7-1.3.1-2.7,0-4,0,.5-10-.7-20.6,0-30.5.2-3,4-8.6-1.5-7.5-3,.6-.8,31.3-1.7,35.9-4.5,2.1-9.6.7-14.4,1.1-9.9,1-20,2.5-30,3-1.6,0-8.6.4-8.6-1.5v-26c0-.3,1.4-1.4,1-2.5h-6c4.1,9.4,1.1,20.8,2,31l-71,8c.7-18.3,4.8-36,8.7-53.8,10.1-46,26.1-82.9,50.3-123.2,18.5,2.4,37-.8,55.5-1l2.5-3c-1.2.5-2.5-.9-3-1,1.1-1.3,2.9-1.7,4.6-1.9,2.4-.3,7.3,1.2,6.4-2.1l-59-2c2.7-4.3,5.4-8,8-12h101c-5.6,6.6-4.3,11.6-7.5,18-5.3,10.8-26.1,6.5-35.1,6.9-7.5.4-19.6,2.9-22.4,11l178,1c2.3-2-9.4-11.1-11-12-1.2-5.4,4.6-2,7.5-2,7.6.1,15.6.3,23-1.1,1.6-.3,1.7.6,1.5-2-4.9.8-9.8-.8-14.5-1.1-5.5-.3-34.7-.7-37.6.6-1.2.5-1.6,2.3-2,2.5-1.2.7-8.5,4.6-9,4-.4-4.2.6-9.1-.2-13.3s-5.7-7.1-5.8-11.7c1.7,0,5.9-1.8,8.5-2,2.8-.2,5.7,0,8.5,0,9.9.2,19.6,0,29.5,0,17.4-.1,34.6,1.1,52,1l2.5-3c-4.8-.1-9.7.2-14.5,0-1.9,0-4,1-3.5-2,70.6-1.3,141.1-.3,211.4,0,26.9.1,53.8,0,80.5-1.1h0ZM399,244c-5.1.8-9.6-1.7-14.5-2-13-.9-42.8-1.6-55.1,0-1.9.2-1.3,1.9-2.1,2.1-2.2.5-6.1-1.5-5.3,2,18.8.8,37.7,1.7,56.5,1.1,2.1,0,4-.9,6-1,4.2-.2,9,.5,13,0,1.8-.2,1.6.3,1.5-2h0ZM447,289h-10v3c3.3-.4,9.9,1.8,10-3Z"/>
      <path class="st6" d="M555,622c-3.6-.4-30.1-3.4-33.7-5.7-2.2-1.4-2.8-5-4-5.3-3.8-.9-7.1,2-9.8,1.9-3.3,0-6.2-4.9-10-2-1.8,1.4-1.5,4.4-5,5.1-5.6,1.1-26.5.6-33,0-4.5-.4-7.2-3.4-12.3-1.3-1.5.6-.8,3.3-4.5,2.3-.8-.2-.6-2-2.6-2.6-3.4-.9-16.2-1.6-17-5.1-.4-1.7,1.9-4.2-.1-5.3,1.1-2.1,1.6-5.4,2.8-7.7,5.7-11.3,11.8-22.4,17.2-33.8-2.6-.2-7.8-2.6-10-1l-30,55.5c-3.7.5-4.5,2.4-6.7,2.9-3.8.8-4.1-2.1-6.5-3.1-4.5-1.9-8.9-3.1-13.3-5.7-3.3-2-4.2-6.3-5.7-7.8-1-1-13.1-2.5-15.3-2.3-2.3.2-3.5,1.5-5.2,1.8-1.4.3-3-1-4.3-.4-1.4.7-1.6,3.4-2.7,3.6-4.6,1-9.1-2.5-10.2-6.8-.5-1.8,3.5-6.9,4.9-8.7,6.6-8.9,15.9-18,23-27,25.9-32.6,53.5-67.2,78-100.5,6.6,1.8,7.9,5.5,7,12,4.7-1.7,9.6-.6,14.4-1,2.9-.2,4.7-3.7,8,0,1,1.1,1.4,3.8,1.6,3.9.6.5,4.3-.9,5.9-1,1.1,0,3.3,3,5.9-.6,2.5-8.5,9.4-19,11.1-27.4,1-5.2-.4-12.7,1-17-.2,2-.5,4,2.4,2.9,2-.8,6.3-12.7,7.6-15.9,7.9-.4-.6,6.5-.8,7.6,0,.5.6,8.6.8,9.8,1.1,7.1,8.4,4,9.8,5.7.5.6,0,4.2,1.1,6.2.6,1,4.6,3.1,6.1,5.2,1.1,1.6,1.2,3.5,2.1,4.9,2.9,4.5,10.8-15.6,15.9-15.4-.2,3,7.2,4,7,7l-4,23v-25c2.8,1,2.1,19.5,1,23,7.2.9,36.3-3.5,40.5,0,1.5,1.2,1.8,4.6,4.2,5.8,3.2,1.5,6.3.2,9.3.2,1.5,0,4.4,1.4,7,0,.4-.5-3.4-10.5-4-12,5.2,1.2,7-3.7,10.1-5.4s6.4-1.2,9.5-3.5c4.2-3.2,5.3-8.6,7.5-13,5.1,7.6,13.9,17,18.1,25.4,1,2,.7,4.5,1.4,5.6.6.9,2.5.6,3.6,1.6,1.4,1.3,4.3,8.3,6.1,10.7,19.1,25.5,39.8,50.2,59.2,75.7,7.4,9.7,14.2,19.8,21.4,29.6.6,2.7.8,7.1-2.5,8.1-1.8.5-17.1-1.3-19.8-1.8-2.2-.5-2.8-2.3-4.2-2.8-6-1.9-6.5,3.2-10.2,4.4-2.5.8-5.2,0-7.8,1.2-2.2.9-3.8,4.2-6.2,4.9-2,.6-3.5-.8-5.7,0-4.9,1.9-6.7,7.5-8.3,8.8-1,.7-2.7.3-3,.5l-27.1-53.9c-2.3.4-5.1.5-7.4,1-.9.2-2.3-.4-1.5,1.5.8,2.1,3.9,5.9,5.2,8.8,5.6,12.5,10.4,25.1,14.8,37.7-2.7,5.2-5.1-.7-7.8-1.8-1.3-.5-18.8-4.4-19.8-4.3-2.2,0-1.2,2.6-3.9,3.1-3.2.6-7.5-.4-11,0-2,.2-3.5,1.7-6,2M577,610.5c-1,.6-1.3,3-2.6,3.4-.9.2-3-1-4.8-.9-2,.2-3.6,2-6.1,2.1-1.5,0-5.3-1.3-5.5-1.1-.3.3.5,4.4-1.5,5l-12.5-6c0-1.7,0-3.3,0-5,1.6-1.6,1.3-6.2,1.1-8.6-.2-1.9-1-3.1-1.1-3.4,0-.1-.9-.9-1.1-2.4-.6-4.8,22.2,17.5,21.1,16.4M628,532l-15.1-34.4c-.8-3-7-.9-6.5,1.4,3.7,9.7,8.8,19.2,12.1,28.9.5,1.5.3,4.8.5,5,.7.7,7.4-.4,9-1ZM472,498l-7-1-17,37c2.5-.2,5.5.8,7.5-1,1.8-4.3,18-33.5,16.5-35Z"/>
      <path class="st4" d="M483,334c5-.6,12.6-1.5,17.4-.9,1.5.2,7.3,1.2,6.6,3.9-3.1,2.9-17.1,35.2-22,43-15.8,24.9-40.4,54-60,76-31.9,35.9-68.2,72.7-102,107-8.9,9-18,18.1-27,27l-2,2c-1.3,1.3-2.7,2.7-4,4l-1,1c-.3.3-.7.7-1,1-1,1-2,2-3,3-.3.3-.7.7-1,1-58.2,57.1-119.1,112.1-176,170.5-.9.9-3.2,4.5-3.5,4.5h-20.5v-28.5c60-50.3,119.6-100.9,178-153,50.9-45.3,101-91.2,149-140,22.6-22.9,50.2-49.3,68.8-75.2,5.4-7.5,10.6-15.3,14.1-23.8l-37,31.5c-1.3.7-2,1.4-3,2-4.9,3.1-9.6,6.3-14,10-2.1,1.7-3.5,3.5-5,4-6.2,2.1-15.9,10.4-21,15-3.9,1-8.2,4-11,7-4,2.2-7.2,4.7-11,7-1.7,1-3,2.4-4,3-17.1,10.5-34,21.4-51,32-1.6,1-3.4,2-5,3-80.4,49.7-164.9,94.9-244.7,145.8-1.4.9-2.3,2-3.3,3.2,0-.6-.9-2-1-3.5-.2-4.1-1-13.8,1.6-16.4l246.4-138.1c3.4-2.8,7.3-4.8,11-7,7-4.2,12.9-8.6,19-13,.2-.2,2.9-.2,4.4-1.1,16.7-10.1,33.4-20.1,49.6-30.9,7.5-5,14.2-11.1,21-16,8-5.7,17.7-10.8,26-17,1.8-1.3,3.3-2.7,5-4,.3-.2,1.6-.3,2.5-1,12.4-9.8,25.2-20,33.5-33.5-1.3-.9-3.8-1.4-5.4-1.4-22,.5-44,10.7-65.4,15.6-51.9,11.9-104.9,19.4-157.7,26.3l-131,11c-.9,0-.8-4.2-.4-4.9,1.2-1.9,34.6-2.7,39.9-3.1,9.3-.8,19-1.9,28-4,2.3,0,4.7,0,7,0,18.5,0,37.3-2.9,55-5,23.3-2.7,46.9-5.2,70-9,10.3-1.7,20.8-4,31-6,6.5-1.3,14.2-2.1,20-5,.3.6,2.2.8,3,.6,12.1-2.1,24-5.9,36-8.6,8.1-1.8,13.2-2.9,21-5,9-2.5,19.8-4.8,29-6h0Z"/>
      <path class="st6" d="M554,348c10.7,18.6,14.6,36.7,20.5,57,3.9,2.8,3.9.4,3.2-3.2-1.4-8-7.4-24.4-10.5-32.5-3-8.1-9.2-23.5-15.3-29.2l-1-7c3.3,1.2,8,4.5,11.6,5,2.3.4,2.3-1,2.4-1,.9.1,1.4.8,2,1-2,.5,0,3.1.6,3.9,7.9,10.2,12.3,16.3,18.4,28.1,5,9.6,7.1,17.2,14,25,.3.4.7.6,1,1,4.6,13.9,12,25.6,20,38,0,2.6.8,6,4,6,.7,1,1.3,2,2,3-2.2,4.4-3.3,9.8-7.5,13-3.1,2.4-6.5,1.8-9.5,3.5s-4.9,6.6-10.1,5.4c-.9-2.3-6-15.3-6.5-16-1.2-1.5-2.8-1.5-4,0-1.6,2.5,5.5,17.4,6.5,21,0,.1-.4.2,0,2,0,.3,0,.7,0,1,.3,1.3,1,1.8,1,2,.2.5-.1,1.4,0,2-2.9,0-6.1,1.2-9.3-.2-2.4-1.1-2.8-4.5-4.2-5.8-4.2-3.5-33.3.9-40.5,0,1.1-3.5,1.8-22-1-23-1.1-.4-3.6.2-5,0-.2,4.5.3,9.1,0,13.6,0,1.3-1,2.2-1,2.4-5.1-.3-9.9-1.1-12.9-5.6-.9-1.4-1-3.3-2.1-4.9-1.5-2.1-5.5-4.2-6.1-5.2-1.1-2-.6-5.6-1.1-6.2-1.4-1.7-8.7,1.4-9.8-5.7-.2-1.2-.9-9.3-.8-9.8.2-1.1,8.6-8,.8-7.6.6-1.6,1.2-3.1,2-5,.6-1.6,2.9-6,3-6.6.3-1.5.1-3.2-1-4.4.7-2.8,1.6-5.6,2-8.5-3.8-2.6-4.6,5.3-6,8.5-.1.3-1.1.4,0,1v2c0,5.1-1.4,3.4-2,4.8-.3.8.1,1.8,0,2.2-2.4,6.3-5.9,12.6-8,19-1.4,4.3,0,11.8-1,17l-2-3-2.8,2.7-12.2,28.3c-1.6,0-5.3,1.4-5.9,1-.2-.2-.6-2.8-1.6-3.9-3.3-3.8-5.1-.3-8,0-4.9.4-9.7-.7-14.4,1,.9-6.5-.4-10.2-7-12,6.8-9.2,16.7-22.4,21-32,4.4-2.1,7.9-10.2,11-15,14.5-22.8,28.4-46.8,39.1-71.2l6.9-7.8c2.2,9.5,2,18.3,1,28,1.3,1.7,1.8-.1,2-1.5,1-8.1,1.3-14.5-1-22.5,4.9-2.7,6.5-4.2,12-1,.9,1.9,3.2,5.7,5,7,0,.3,0,.7,0,1M518,368c-4.6,0-2.7,6-3,9,3.9-1.6,3-5.5,3-9ZM516,378c-.2-.2-2.5-.3-3.1.6-1.1,1.6-2.3,10.7-3.9,13.4,1.1-.1,2.3.6,3.1-.6.5-.7,4.4-12.9,3.9-13.4ZM581,411c-.3-.3-3.9.8-4,1.6-.1,1.3,4.6,17,5.6,19.4.5,1.3-.1,2.4,2,2,1.2-.2,2.5-1,3-2,1.3-2.8-6.5-16.8-6.5-21h0Z"/>
      <path class="st6" d="M599,387c22.7,41.4,52,75.8,81,112.5,51.7,65.7,104.8,130.7,160,193.5-4.7,1.2-3,7.2-9,6-25-30.3-50.1-61.1-74.6-91.9-50.6-63.8-102.5-127-146-196-3.2-5-5.2-10.1-9.4-15,0-.3,0-.7,0-1-.7-2.4-4.5-6-2-8h0Z"/>
      <path class="st0" d="M925,342c-6.2,0-11.4-4.8-17.5-5-10-.4-25.8.5-36,1.2-6,.4-13.5-.2-11.5,7.1.3,1.1,1.9.5,2,.6,0,0,0,1.6,0,2-.5,2.8-3.1,10.7,1,10-.2.5.2,1.5,0,2,0,.1-1.6.4-2,2.5-.4,2.3.2,5.1,0,7.5,2.9-.6,4.6-2.9,8-2,2.3,7.6-7.5,1.4-8.9,5.6,0,13.3,0,26.6-.2,39.9,0,6.9,1.1,14.9,0,21.9-.3,1.7-2.1,5.7-3.4,6.6-8.3,6.1-8.5-15.8-8.6-20.5-.2-6.9-.2-14,.7-20.9-1.7-5-.9-35.2-2.6-36.7-2-1.7-4.2,3.8-6,2-.5-.5.7-6.4-.5-8l-8.5-9c0-5,0-10-.1-14.9-1.5-1.7-16.6-.4-19.9-.1-2.9.3-8.9.2-11.3,1.2-1.6.6-1.5,4.3-5.7,2.8-1,3.5,3.3,1.3,4,2,.4.4.2,10.3,0,11-1.5.2-7.7-.4-8,0-1.1,1.1-.7,4.5,3,4-.2,1.2.4,4.4,0,5,0,0-1.7-.4-2,.7-.5,2,.4,5.1,0,7.3,3.2,1,1.4-2.3,2-2.9.3-.2,4.6-.3,5.4-.2,1,.2-.5,4.4,3.5,3.1.5,5-12.7,4.5-13.1,6.6l2.1,18.4c3.2,1,1.4-2.4,2-2.9.7-.6,4.5.1,6-.1v7c-1.5.3-7.7-.4-8,0-.8.8.3,20,0,23.6-.2,2.1-2,3.6-1.9,4.8.1,1.5,2.6,3.5,1.8,5.6-4.8,1.7-10,.9-15,1,0-34.6-1.2-68.9-2-103.5-.2-6.6-1-21.2,1-26.5,3.4.1,22.5-.5,23.6-1.9.9-1.4.3-4.4.4-6.1,31.2-8.5,62.7-21.6,93.6-28.9,10.9-2.6,10.9-.2,14.4,9.4,7.5,20.2,14.4,46.2,18,67.5h0Z"/>
      <path class="st4" d="M539,328c.3,0,.7,0,1,0,12.3.9,23.6,2.5,34.3,9.2,15,9.4,18.9,24.5,28.3,38.7,29.2,44.3,72.2,84.6,109.4,122.6,11.3,11.5,21.9,22.4,33.5,33.5,79.3,75.6,161.8,147.9,245,219,1.5,2.3-.5,3.7-.5,4.5v21.5h-19.5c-60.1-59.5-121.5-117.5-180.5-178-27.7-28.4-54.6-57.7-81.5-87-2.9-3.2-6.2-6.3-9.5-9-.1-.2.1-.7,0-1-.2-.4-.7-.7-1-1-.3-.3-.7-.7-1-1l-1-1c-19.6-21.7-38.4-44.5-58-66-.1-.1.2-1.2-.3-1.7-1.2-1.2-3.4-2.1-4.7-3.3,0-1.2,0-1.8-.5-2.9-3.7-7.8-17.3-21.9-22.9-30.1-9-13.2-15.8-28.2-25.6-40.9-1.9-6.3-4.4-5.8-8-9-3.2-2.8-4.4-5.1-9-7-.6-.2-1.1-.9-2-1-3.4-3-7.9-4.2-12.2-5.3-5.5-1.5-10.3-2.4-15.8-1.7,0,0,.3-1.7,1-2,.3,0,.7,0,1,0h0Z"/>
      <path class="st1" d="M925,342c6.6,38.7,7.9,80.1,1.9,118.9l-93.9,1.1c.7-6.8-1.2-13.4-2-20-.4-3.3.3-8.3,0-10.3-.1-.8-1.8-.2-2.1-2.1-1-6.1,2.1-5.7,2.1-6.1,0-1-1.4-.1-1.8-.7-1.4-2.2.3-20.4.4-24.5,0-4.9.2-9.7.4-14.3,6.1,3.2,5.1-2.6,4-6.5-.8-2.9-1.7-1.2-4-1.5.2-8.6.9-18,1-27l8.5,9c1.3,1.6,0,7.5.5,8,1.8,1.8,4-3.7,6-2,1.8,1.5.9,31.7,2.6,36.7-.8,6.9-.9,14-.7,20.9.2,4.7.3,26.6,8.6,20.5,1.3-.9,3.1-5,3.4-6.6,1.1-7,0-15,0-21.9.2-13.3.2-26.6.2-39.9,1.4-4.2,11.2,1.9,8.9-5.6-3.4-.9-5.1,1.4-8,2,.2-2.4-.4-5.2,0-7.5.4-2,1.9-2.3,2-2.5,5.4.3,5.4.6,5-5-4.1,0-3.9.3-5,3-4.1.7-1.5-7.2-1-10l7-.5c.6-4.7-4.5-3.9-7-1.5,0-.1-1.7.4-2-.6-2-7.4,5.5-6.8,11.5-7.1,10.2-.7,25.9-1.6,36-1.2,6.1.2,11.3,5,17.5,5h0ZM903,349c.7-5-1.6-5.4-6-5v5h6ZM881,348c0-4.6-5.9-2.7-9-3v3h9ZM892,349c2.6-2.5-5-6.6-7-2.5-1.1,2.4,6.5,2.9,7,2.5ZM880,355c-9-1.6-9.6,6.5,0,5v-5ZM892,355c-.3-.3-5.7.2-7,0v5c1.3-.8,6.7-.8,7-1s.2-3.8,0-4ZM912.9,355.1c-3.3-2.1-3.3,2.3-2.9,4.9h4c.3-.3-.7-4.7-1.1-4.9h0ZM903,356c-2.1-2.1-6.1,1.9-4,4s6.1-1.9,4-4ZM873,372c1.7,0,9.7,1,9-2.5-.6-2.6-7.1.2-9-1.5v4h0ZM892,372c2.2-2.2-3.4-5.4-6-4v4c1.2-.2,5.7.3,6,0ZM903,368h-5v4h5v-4ZM844,385c0-4.8,1.7-10-5-9v9h5ZM892,385c-.3-2.1.7-6.5-.4-8.1-.8-1.1-4.8-1.4-5.5-.8-.5.4-1.4,5.6-.7,6.9,1,1.6,4.7,2.2,6.5,2h0ZM910.5,377c-2.5.8-2.9,9.8,2.9,7.9,3.2-1,.8-9-2.9-7.9ZM869,378h-6v7h6v-7ZM879.8,378.1c-4.2-2.6-10,1.3-7.8,6.9l9-1c.4-.4-.5-5.4-1.2-5.9ZM903,378c-5-.7-5.4,1.6-5,6h5v-6h0ZM844,390h-5v6h5v-6ZM869,391h-5.5c-2,3.9,2.2,4.4,5.5,4v-4h0ZM881,391h-8v5c4.7,0,8.9,1.2,8-5ZM904,397c1.4-8.5-8.2-8.5-7,0h7ZM915,396c.7-3.7-2.9-5.1-6-5v5h6ZM843.9,400.1c-.2-.2-5.7-1.4-5.9-1.1l1,10c5.5,2.6,6.2-7.3,4.9-8.9h0ZM886,400c.3,2.1-.7,6.4.5,8,4.3,6.3,10.9-10.3-.5-8ZM867.9,408.9c.2-.2,1.1-6.3.6-7l-6.6-1c.6,1.3.7,7.7,1,8,.2.2,4.7.1,4.9,0h0ZM915,401h-5v8c6.2.9,5.1-3.3,5-8h0ZM880,402c-5.3-.6-6.6.7-6,6h6v-6h0ZM899.5,402c-2.7.8-2.3,7.5,2.9,5.9,3.6-1.1.5-6.9-2.9-5.9ZM840.4,418.4c1.2-1.2,3.3-1.4,2.6-3.9-.3-1.3-3.4-2.1-4-1.5-.3.4.2,5.6,0,7,1.5.4.8-.9,1.4-1.6h0ZM904,414h-6v6h6v-6ZM915,419c2.4-2.4-4.3-5.6-6-4-2.4,2.4,4.3,5.6,6,4ZM868,431c1.3-9.6-6.3-9.6-5,0h5ZM880,425c-1.2.2-5.7-.3-6,0-.7.7-1,16.6-1,19,2.9-1,4.1-1.2,6,1.5-4.2,1.3-6.1,12.1,1,8.9.7-10,.6-19.5,0-29.4h0ZM891,425h-6v7h6v-7ZM902,425c-2.7-2.2-4.6,3.6-4,6h5c-.1-1-.8-5.8-1-6ZM915,430c.7-5-1.6-5.4-6-5v5h6ZM904,437h-5v3h5v-3ZM892,441c.2-3.5-3.3-3.1-6-3-.2,3.5,3.3,3.1,6,3ZM891,448h-4v5h4v-5ZM902,448c-1.9-2.2-6.2,7.8,0,6v-6Z"/>
      <path class="st0" d="M421,153c-.1,3.5-.6,2.8,2.5,3,16.9,1.3,39.1.3,56.1-1,3.1-.2,2.6.5,2.5-3,78-3.1,157.6-1,236-1,.6,3-1.5,1.9-3.5,2-8.8.4-19.8-1.1-28.1,0-1.8.2-1.6-.3-1.5,2h48.5c2.3,0,7.1-1.1,5.5-4h19c0,5.6,0,11.4,0,17-29.5,0-59,0-88.5,0-82.8,0-166-1.1-248.9,2.1-6.9.3-15.5-.9-22.1,0-1.8.2-1.6-.3-1.5,2,18.1,3.3,37,1.8,55.5,2,1.7,0,4.5-.6,5.5,1-19.9.4-41.1,1.2-61,2-5.8.2-12.6-1-18,1-12.2-8.7-30.3-13.3-45-9-1-1.7-3.8-1-5.5-1-33.1-.4-65.9,1.1-99.1,0-1.9,0-4,1-3.4-2,.4-.6.6-1.4,1-2,3-1.6,5.8-.9,8.2-1.3,1.8-.3,5.5-1.7,6.3-1.7h34c.3,0,1.8-.9,3-1,3.6-.5,6.4,1.8,5.5-3,12,0,23.7-1,35.5-1,30.4-.1,60.7.2,91.1,0l1.5-2h-34.5c-.3,0-1.7-.9-3-1-3.2-.3-9.4,1.6-8.5-2,18.5,0,37,1.6,55,2h0Z"/>
      <path class="st0" d="M758,203c0,7,.9,17,0,23.6-.2,1.4-.2,2.6-1.5,3.5-30.7,17.1-62.5,31.7-95.1,45l-1.5-1.5v-69.5l98-1h0Z"/>
      <path class="st4" d="M931,148c0,4.8,0,7.4-1,12-1-2.1-3.1-.4-4.4.1-12.7,4.7-17,9.6-27.6,15.9-4.1,2.4-8.3,4.1-13,7-23.9,15.1-47.1,31.5-72,45-17.3,9.4-37.8,19.6-55.6,27.9-16.6,7.7-35.4,13.5-51.4,22.1-8,4.3-14.2,5.2-24.5,9.3-23,9.2-51.9,19.7-78.5,27.2-11.9,3.3-32,9.3-43.7,10.1-2.5.2-5.9-1.4-8.7-.6-1,.3-.6,1.9-.7,2-.5.4-1.6-1.5-2.6-1.7-1.7-.3-5.1,1.5-7.4.8v-3c15.7-3,30.8-7.2,46-12,7.2-2.3,13.1-4.6,20-7,1.4,2.1,4.2.7,6,0,1-.4,1.2-.5,2-1,6.6-.9,12.9-3.4,19-6,.3,0,.7,0,1,0,.9,0,1.7,0,2-1,.3,0,.7,0,1,0,2.7-.6,5.8-1.3,8-3,1.4,0,6.8-2.3,9-3,1.2-.4,2.5-.5,4-1,10.9-3.8,21.3-8.8,32-13,.8-.3,1.5-.8,2-1,11.8-4.8,25.2-10.1,38-16,1.4-.6,2.7-1.4,4-2,7.8-3.6,15.3-7.1,23-11,1.2-.6,2.7-1.3,4-2,3.5-1.8,25.4-11.6,26-14,.3-.1.7.1,1,0,12.5-5.2,23.6-12.4,35-19,2-1.2,3.3-2.6,4-3,15.5-9.1,29.1-16.8,44-27,.4-.3.6-.8,1-1l1-1c16.7-11.4,40.2-24.4,55-37,.5-.4,1.4-.6,2-1,0,2.2,1,5,1,8h0Z"/>
      <path class="st5" d="M758,144c0,2.3,0,4.7,0,7h-40c-78.4,0-158-2.1-236,1-.7,0-1.3,0-2,0-3.9-1.7-11.3-1.7-15,0-14.7,0-29.4,1.3-44,1-18-.4-36.5-1.9-55-2-20.5,0-41.1,0-61.5,0-21.8,0-43.9.9-65.5-1,1.2-1.6,5.9-6.6,6-7,4,.6,7.3,1.8,11.5,2,16.5,1.1,35.2,0,52.1,0,35.3.1,71.6-1,106.9-1.1,114.2-.4,228.4.4,342.6,0Z"/>
      <path class="st1" d="M678,404c-.7-25.3,2-50.6,1-76,10.2.7,50.2-15,57-11.6,1.5.8,1.6,3.4,2.6,3.6,4.9,1,5-5.1,5.3,3.9-2-.2-4.1.2-6,0-.2,0-1.1-1-2.4-1-4.7-.3-37.9,1.3-39.5,3.1-.3.3,0,6.2-1,8.2-1,1.8-8.4,3.8-8.8,10.4-.3,5.3,8.6,9.1,9.8,11,1.9,3.1,3.6,12,2.7,15.6-.6,2.5-3.4,4.6-3.8,5.7-1.1.6-3.8-1.6-4-.5-.3,1.6-.2,5.2,0,7,.3,5.3,2,18.9,3.2,23.8.4,1.8,3.2,6.4,4.8,7.7.7-11.2-4.8-25.2-4-36,3.9-.8,6.4,5.3,7.2,5.8.3.1,6,1.2,6.3,1.2h17c5.5,0,3.4,12.1,10.5,10,0,12,.3,23.9,0,36-6.5-1.6-9.5,5.4-15.6,6-.8,0-9-.8-9.7-1-.9-.2-3.3-6-5.7-3-4.3-2.7-8.8-5.2-13-8,.7-4.5-9.2-9.8-10.5-12-1.4-2.4.4-10-3.5-10h0Z"/>
      <path class="st5" d="M760,121c.6,0,1.7-.1,2,0,.2,0,.5,1.6,1.6,1.8,2,.3,3.9-2.6,3.4,1.2-1.2.2-2.7-.1-4,0-1.2,0-1.7.9-2,1-1.5.4-3.2-.3-4,2-164.4-1.6-329,1.9-493.6,0-1.9,0-3-1-3.4-1.1,0-4.2,3.9-5.7,6-8l6.5,2c148.9,1,298.2-1.9,447,1,13.2.3,28,.6,40.5,0h0Z"/>
      <path class="st5" d="M802,115c-4.8.5-9.1,1.1-14,1-9.4,0-19.3,0-28,0-10,0-20-1-30-1-151.7-.4-304,2.6-455.5,1-1.7,0-4.5.6-5.5-1,3-3.2,4.7-4.9,8-8,5.4,1.4,11.9,2.7,17.5,3.1,28.5,1.6,60.2,0,89.1,0,108.9,0,218.6-.7,328-1.1,24.2,0,50.9,1.3,74.5-1.9,1.9-.3,4.3.7,6-1,3.2,2.9,6.7,5.7,10,9h0Z"/>
      <path class="st1" d="M332,471c-1.3,1.4-1.7,4.5-2,5-2.9,5.6-9.8,8-15.6,9.9-1,.3-3.1-.2-3.4,0-.4.4.6,4.2-.2,5.8-.2.3-5,5-5.4,5.1-1.8,1-3.6.7-5.1,1.4-.5.2-.2,1.6-.3,1.7-3.2,1.8-11,3.3-15,6.5-2.3,1.9-3.1,4.9-5.1,6.9-5,4.9-16.1,9-22.3,13.7-1.1.9-1.6,2.7-1.7,2.7-.2.1-2.6-1-4.2-.8-5.8.5-15.2,12.5-20.7,16.4-9.5,6.9-20.9,11.7-30.9,17.2-12.2,6.7-23.7,18.5-35.1,26.8-3.5,2.5-20.9,14.8-23.4,15.6-.6.2-.3-1.8-1.1-2-5.8-1.5-9.6,5.6-13.4,8.5-3.8,2.8-41.2,28.5-42.9,26.6,0-6,.2-12,0-18,1-1.2,1.9-2.3,3.3-3.2,79.8-50.9,164.4-96.1,244.7-145.8h0Z"/>
      <path class="st5" d="M778,94c3.2,2.5,5.6,4.1,9,7-1.2-.5-2.6.9-3,1-3.8.5-8.5,0-12.5,1.1-152.7.5-305.4-.8-458.1,0-9.1,0-16,1.5-25.7-.2-1.7-.3-3.2-.6-2.7-2.7,2.5-2.2,4.4-3.8,7-6,13.6,4.7,29.2,2.8,43.5,3,16.1.2,32.7-.9,48.9-1,116.6-.7,233.8,2.2,350,0,14.6-.3,29.4,2.3,43.5-2Z"/>
      <path class="st1" d="M331,462l-43-1,1-63c6.4.5,46.6-6.4,49-4,.3.3-.3,4.8,0,6.3.2.8,1.8.3,2.1,2.1,1,7.5-.5,18-.1,26.1.4,8.6,1.9,17.8,2,26.5-3.7,2.2-7.6,4.2-11,7h0Z"/>
      <path class="st5" d="M757,133c.3,2.4.9,4.1,1,7-8.3-2.4-16.9-2.1-25.5-2-145.8,2.2-292.1,2-438,0-7.7-.1-16.4-.4-24,0-6.7.4-15.3,4.5-22.5,1,.6-.3,2.6-7.9,6-6,96.6.6,193.3-.8,289.4-1.1,71.2-.2,142.5-.5,213.5,1.1Z"/>
      <path class="st0" d="M285,100c-.5,2.2,1,2.4,2.7,2.7,9.8,1.7,16.6.2,25.7.2,152.7-.7,305.4.6,458.1,0,4-1,8.7-.5,12.5-1.1l2,5c-23.6,3.3-50.3,1.9-74.5,1.9-109.4.4-219.1,1.2-328,1.1-28.9,0-60.5,1.6-89.1,0-5.6-.3-12-1.7-17.5-3.1,2.9-2.7,5.2-4.5,8-7h0Z"/>
      <path class="st5" d="M757,84c2.2,0,6-.4,8,0,1.4.2,6,3,7.3,4,.9.6.6,2,.7,2-3.5,1.2-7.7,1.8-11.5,2.1-82.4,4.5-168.4-4.3-251.1,1-66.7-1.1-134.3-2.6-200.9,0-4.6.2-10.2.5-14.5-1.1.1,0,.1-1.7,1-2.4,1.9-1.5,3.6-2.9,6-3.6,7.7-2.3,14.7,0,22,0,41.5.5,83.1,0,124.5,0,102.9.3,205.9,1.5,308.5-2h0Z"/>
      <path class="st5" d="M322,72l25.5,3c10.9-1.1,21.6-1,32.5-1,96.4-.4,193-1.5,289.5-1.1,19.2,0,38.6,1.7,58,1.1,6.3-.2,15.5-2.5,21.5-2.1,4.2.3,7.7,3.6,10,7-.9-.1-2.1,0-3,0-118.2,3.9-237.3-.4-355.5,0-25.3,0-56.7,4.3-81.5,0-1.2-.2-3.1-.1-4-1-.1-.1,0-.7,0-1v-1c2.1-1.4,5-2.7,7-4Z"/>
      <path class="st0" d="M260,126c.4,0,1.5,1.1,3.4,1.1,164.7,1.8,329.2-1.6,493.6,0,.2,1.9-.2,4.1,0,6-71-1.6-142.4-1.2-213.5-1.1-96.2.2-192.8,1.7-289.5,1.1.1-2.6,3.1-7.3,6-7Z"/>
      <path class="st0" d="M758,140c0,1.3,0,2.7,0,4-114.2.4-228.4-.4-342.5,0-35.3.1-71.6,1.2-106.9,1.1-16.8,0-35.5,1.1-52.1,0-4.1-.3-7.5-1.5-11.5-2,.3-.9-.5-3.2.1-3.9.5-.5,2.5.1,2.9,0,7.2,3.5,15.8-.6,22.5-1,7.6-.4,16.3-.2,24,0,145.8,2.1,292.1,2.2,438,0,8.6-.1,17.2-.4,25.5,2Z"/>
      <path class="st5" d="M407,62c19.2-.5,38.4.9,57.5,1,65.5.4,131-1.5,196.5-1,16.9.1,34.4,2.1,51.5,1,6.2-.4,12.6-3.4,19.5-2,3.3,2.1,6.7,4,10,6-2.9,1.4-7.2,1.9-10.5,2.1-27.9,1.4-56.3-1-84-1.1-92.1-.2-184.3,1.6-276.5,1.1-10.4,0-23.5,1.1-33.5,0-2.3-.2-5.4-.7-6.5-3,2.3-1.4,5.2-4.5,8-5,6.5-1.1,22.7,2.7,30.5,3,13.4.6,25.2-1.7,37.5-2Z"/>
      <path class="st0" d="M196,446c-.1-13.6,0-27.3,0-41,11-2.3,22.4-1.4,33.5-2,10.5-.6,23.8-3,34-2.1,2,.2,2.5.1,3.4,2.1-1.8,10.1-1,20.8-1,31-4,.3-7.5-1.1-11.5-1.1-4.6,0-9.4,1.9-13.9,2.1-4.2.2-26.1-.9-27.5,1-.8,1.2,1,4.1.8,5.3-.9,4.1-12.1,1.9-15.1,2.6-.8.2-.7,2.7-2.7,2h0Z"/>
      <path class="st5" d="M712,49c2.2-.2,3.8,2.5,5,3,.6,4.2-.7,2.3-2.3,3.1-12.2,5.9-30,2-43.1,1.8-25.8-.3-51.7,0-77.5,0-44.7,0-89.4-.2-134,0-13.3,0-26.9.9-40,1-4.6,0-9.4,0-14,0-10.8,0-40.8,1.8-48.9-2.6-1.6-.9-2.9-2.5-3.1-4.4.3,0,.7,0,1,0l1-1c.3,0,.7,0,1,0,8-.8,15.9,1,23.5,1,19.8.2,39.7,0,59.5,0,60.3,0,120.7.5,181,0,30.3-.2,60.7-1.1,91-2Z"/>
      <path class="st1" d="M937,588c.2.4.6.8,1,1,.3.1.8-.1,1,0l1,1c.3.3.7.6,1,1,.1.1-.1,1,.3,1.7,1.2,1.7,4.8,3.2,3.6,6.7-.4,1.2-5.7,2.4-6.9,2.6-.6,0-1.4,0-2,0,.2-2.1.1-2.2-2-2-.6-.4-9.9-2.5-14-5,.6-4.8-2.2-3.2-4-4-4-1.8-16.5-9-19.9-11.6-6.1-4.6-10.8-14.8-20.1-13.4-.8-3.3-2.6-2.9-6-4-8.5-8-19.5-12.7-28.5-20-11.4-9.3-11.5-11.9-25.5-19-6.9-3.5-13.2-8.2-20-12-1.6-.9-4.8-1.8-5-2-.5-.4,1.4-1.2-2-2-3.6-5.8-5.7-9.9-13-12-.6-4.3-6-4.5-9-6.5-2.7-1.9-8.4-7.8-7-11.5l177,111h0Z"/>
      <path class="st4" d="M397,656c1.3,1.2-11.3,23.5-12.9,26.6-2.9,5.7-5.8,11.5-8.4,16.6-13.2,26-26,52.3-40.2,77.8h-21.5l68-121h15Z"/>
      <path class="st5" d="M758,168c0,2,0,4,0,6-26.8,1.1-53.7,1.2-80.5,1.1-70.4-.4-140.9-1.4-211.5,0-2.7,0-5.3,0-8,0-1-1.7-3.8-1-5.5-1-18.5-.2-37.4,1.3-55.5-2-.1-2.3-.3-1.8,1.5-2,6.6-.8,15.1.3,22.1,0,82.9-3.2,166.2-2.1,248.9-2.1,29.5,0,59,0,88.5,0h0Z"/>
      <path class="st6" d="M270,652c4-.1,2.6,5.6,4.5,6,1.3.2,4.4-2.7,6.5-2-22.4,27.4-45.2,54.3-68,81.5-10.5,12.5-20,25.9-31,38-1.2,1.3-2.4,1.4-4.1,1.4.6-3-1.5-1.9-3.4-2-3.9-.2-7.7.1-11.6-1,35.7-39.9,71.7-81.3,107-122Z"/>
      <path class="st0" d="M361,442l.9-52.6c6.4.6,47.6-6.4,50-4.3.4.4.2,2.7.8,3.7.7,1.2,2.1,1.2,2.3,1.9,1.1,5.1-.8,13.7,0,19.3-16.2,10.8-33,20.8-49.6,30.9-1.4.9-4.1.9-4.4,1.1h0Z"/>
      <path class="st0" d="M381,460l-3,4.5c-3.6,2.8-6.8,6.5-10,9.5-1.2,1.1-2.1,2.1-3,3-6.5,6-14.2,11.2-20,18.5-1.6,1.9-.6,4.5-4,4.5-.1,0-.6-.9-1.3-.8-3.1.6-3.5,4.4-3.7,6.8-1.6,0-3.3-1.2-5-.5-3.3,1.3-14.7,13.2-18.6,16.5-8.1,6.8-16.1,12.2-23.5,20-3.3-.3-4.5,3-6,4-6.3,4.5-11.1,8.5-17,13-4.3,3.3-10.8,6-14,11-1.4,1-2.6,2-4,3-2.8,2-5.3,3.9-8,6-1.2.9-2.8,2-4,3-6.1,2.8-11.7,7.8-17,12-.9.7-1.5,1.6-2,2-.4.3-.6.7-1,1-7,5.7-13.9,11.5-21,17-.4.3-.7.7-1,1-.6.4-1.5.6-2,1-3,2.3-6.1,4.8-9,7-7.1,5.4-28.8,18.3-33,25-1.9,0-2.1.8-3,2-.3.3-.7.6-1,1-4.2,1.7-7.8,4.9-11,8-.4.4-.6.6-1,1-4.2,1.1-7.8,4.9-11,7-13.3,8.6-27.1,16.4-39,27-.4-4.7-1.9-4.2-1.9-4.4.4-8.8,1.9-5.6,7.2-8.7,10.4-6.1,20.8-14.7,31.8-21.2,11.5-6.8,15.7-11.1,26-19,9.4-7.2,20.2-15.3,30.2-21.6,3.6-2.3,2.2-.4,5.4-1.7,3-1.3,4.5-4.6,5.3-5.3,1.5-1.3,3.1-2.3,5-4,14.6-13,29.9-25.2,46.1-36.4,16.5-11.5,32.9-25.1,48.9-37.6.6-.5,1.7-1,3-2,16.6-13,34.5-26.1,50-40,3.4-3,1.5-1.7,3-4,1.3-1.9,32-24,37-28h0Z"/>
      <polygon class="st4" points="691 656 760 776 738 776 677 656 691 656"/>
      <path class="st0" d="M730,115c-.1,3.5-.6,2.8,2.5,3,8.2.6,15.5,0,24,1,1.9.2,4.1-1.3,3.5,1.9-12.6.6-27.3.3-40.5,0-148.8-3-298,0-447-1l-6.5-2c1.1-1.2,2-2,3-3,1,1.7,3.8,1,5.5,1,151.5,1.6,303.9-1.5,455.5-1h0Z"/>
      <path class="st0" d="M778,94c-14.2,4.3-28.9,1.7-43.5,2-116.2,2.2-233.4-.7-350,0-16.2,0-32.8,1.2-48.9,1-14.4-.2-29.9,1.8-43.5-3,1.4-1.1,2.3-1.5,3-2,4.3,1.6,10,1.2,14.5,1.1,66.6-2.6,134.2-1.1,200.9,0,82.7-5.3,168.7,3.5,251.1-1,3.7-.2,7.9-.9,11.5-2.1,2.1,1.5,3.2,2.6,5,4h0Z"/>
      <path class="st0" d="M656,240c-.2,12.3,0,24.7.5,37l-44,16-1.5-1.5v-50.5l45-1h0Z"/>
      <path class="st3" d="M811,334c3.3-.3,18.4-1.6,19.9.1.2,4.9.1,10,.1,14.9,0,9-.8,18.4-1,27,0,2.7,0,5.3,0,8-.1,4.6-.3,9.5-.4,14.3,0,4.1-1.8,22.3-.4,24.5.3.5,1.7-.3,1.8.7,0,.4-3,0-2.1,6.1.3,1.9,2,1.3,2.1,2.1.3,2-.4,7,0,10.3-3,.6-1.7-2.6-3.4-4.1-1.3-1.1-3.8-1.2-5.5-2.5-1-.7-1.7-3.2-2.6-3.5-1.9-.5-7,6.8-9.5,7l-1,22c-6.4.5-12.6.9-19,1,.6-2,.5-6.6,1.5-8,.9-1.2,5.7-1.7,6.4-4.7.6-2.3-4.5-5.6,0-9.3,1.2,0,2.4-1,3-1,3-.2,6,.2,9,0,.3-2-1.8-2.6-2-4.6-.3-1.9.7-3.7,1-5.4.3-1.5,1.6-3,1-5h-6c-.4-4.3,1.1-4.7,1-7h5v-4h-4c.2-.3,1.6-4.7,2-6,1.5-4.3,3-8.1-3-7,0-.6-1.5-2.4-1-3,.6-.8,2.5,1.1,4-3,1-2.7,2.3-4.5-2-5,2.9-1.8,3.7-2.7,4-6,.4-3.6.7-7.6-4-7-.2-.2-2.1.5-2-.5,2.5-2.2,3.8-3.4,5-6.5.3-.7,1.7-1.3,1-3-1.3,0-2.7,0-4,0-.7-3.5,2.9-3.6,3.7-6.8,1.5-5.6,0-5.3-4.7-6.7,9-5.8,3.6-10.3,6-18.5h0ZM822,369c2.3-2.2-3.9-6.7-6-1.5-.9,2.4,5.8,1.7,6,1.5ZM823,376h-7c1.3,6.4-1,9.2,7,8v-8ZM823,394c1.1-7.1-7.8-7.2-7,0h7ZM816.1,406.9c.3.3,4.6,1.5,5.4.2,2.5-4,0-9.9-5.5-8,.3,1.7-.6,7.1.1,7.9h0ZM822,418c.5-4.2-.8-5.5-5-5v5h5Z"/>
      <path class="st6" d="M440,456c-.8.8,1.9,1.5-3,2-1.1,7-3.4,6.1-7,10.8-49.4,63-98.5,125.4-149,187.2-2.1-.7-5.2,2.3-6.5,2-1.9-.4-.5-6.2-4.5-6,54.7-63.1,111.1-128.3,163-194,1.3,0,2.7.1,4,0,.1-.9-.1-2,0-3l3,1Z"/>
      <path class="st5" d="M696,39c3.1,1.6,4.3,3,6,4-1.4,1.3-3.8,1.7-5.6,1.9-23.3,2.7-49.6,1-73.4,1.1-62.3.2-124.7-.3-187,0-4.2,0-9.4,1-12.5,1h-38c-2.9,0-11-1.2-14.1-2-2.5-.6-2.8,1-2.4-3,3.3-1.6,11.4-4.1,15-4,.1,0,1.1,1,2.4,1,32.7,2.1,64.8,2.1,97.6,2,39.2-.2,78.7-.8,118-1,18.7,0,39.1,1.2,57.5,0,13.3-.8,17.6-4.8,31.8-.8,1.7.5,3,1.6,4.7-.2h0Z"/>
      <path class="st5" d="M406,27c6.3-.8,15.1-.5,21.5,0,4.4.3,9,2.2,13.5,2l-1,3c16.2-.5,32.3-.6,48.5-1,44.1-1,92.8,1.9,136-1,9.7-.7,21.8-5.1,30.9-5.1,5,0,10.6,2.6,15.5,3l-1,2.5c2.2-.9,3,.6,1.9,2.4-1.1,1.8-36.6,3-41.9,3.1-56.8,1.4-115.1.3-172,0-1.7,0-3.3,0-5,0-4.6,0-9.4,0-14,0-15.2-.2-30.3-.5-45.5-1-1.9,0-4,1-3.5-2,5.4-2.2,9.9-5.2,16-6h0Z"/>
      <path class="st1" d="M811,334c-2.4,8.2,3,12.8-6,18.5,4.6,1.4,6.2,1.1,4.7,6.7-.9,3.2-4.4,3.3-3.7,6.8-3.1,0-3.3-.8-3,3h6c-1.2,3.1-2.5,4.3-5,6.5,0,1,1.8.2,2,.5.4.5-.3,5.6,0,7h4c-.3,3.3-1.1,4.2-4,6-.3.2-1.5-.3-1.8.1-2,2.7,1.3,5.1,3.8,4.9-1.5,4.1-3.4,2.2-4,3-.5.6,1,2.4,1,3,.2,2.8-1.2,7,3,7-.4,1.3-1.8,5.7-2,6,0,.1-1.8-.4-2.1.6-.5,1.7,1,3,1.1,3.4,0,2.3-1.4,2.7-1,7s-.9,7.3,5,5c-.4,1.8-1.3,3.6-1,5.4.3,1.9,2.3,2.5,2,4.6-3,.2-6-.2-9,0-4.3-9.6-16.4,1.5-3,1-4.6,3.6.5,6.9,0,9.3-.7,3-5.5,3.5-6.4,4.7-1,1.4-.9,6-1.5,8-4.7,0-9.3,0-14,0,0-10,0-20,0-30,5-.2,10.2.7,15-1,.8-2.2-1.7-4.2-1.8-5.6,0-1.2,1.7-2.6,1.9-4.8.3-3.6-.9-22.7,0-23.6.4-.4,6.5.3,8,0v-7c-1.4.3-5.3-.5-6,.1-.6.5,1.2,3.8-2,2.9l-2.1-18.4c.3-2.1,13.6-1.6,13.1-6.6-4,1.3-2.5-2.9-3.5-3.1-.8-.2-5.1,0-5.4.2-.6.5,1.2,3.8-2,2.9.3-2.2-.5-5.4,0-7.3.3-1,2-.6,2-.7,4.3.7,7.2-.6,6-5.4-.3-1.2-1.9-.5-2-.6-2.5-2.4.7-2.1,1-3,.2-.7.4-10.6,0-11-.7-.6-5,1.5-4-2,4.2,1.4,4-2.2,5.7-2.8,2.5-.9,8.4-.9,11.3-1.2h0ZM799,377h-6v7h6v-7ZM799.9,406.9c.4-.5.3-5.7-.9-6.5-1.4-.9-4.3-.3-6.1-.4v8c1.2-.3,6.7-.8,6.9-1ZM794,418c2,2,6.5-3.5,2.5-5-3.7-1.4-2.8,4.7-2.5,5ZM794,428c1.8,1.8,8-2.4,3.4-3.9-4.2-1.3-4.3,3-3.4,3.9Z"/>
      <path class="st1" d="M266,434c0,3,0,6,0,9,0,.3-.7,1.1-.7,2.3,0,2,2.3,10,1.6,10.7-.1.1-5.4-.3-3,2,.5.5,4.1-1.6,3,3-5.9.3-12,0-18,0l-.5-1-.5,1c-15.4,0-34.6,1.4-49.6,0-1.2-.1-1.8.4-2.4-1l1-.5-1-.5c-.1-.9,0-2,0-3,1.6-.4,1.5-3.7,0-4,0-2,0-4,0-6,2,.7,1.8-1.8,2.7-2,3-.7,14.3,1.5,15.1-2.6.3-1.3-1.6-4.1-.8-5.3,1.4-2,23.2-.9,27.5-1,4.6-.2,9.3-2.1,13.9-2.1,4,0,7.5,1.4,11.5,1.1h0Z"/>
      <path class="st1" d="M749,72c-5.9-.4-15.1,1.8-21.5,2.1-19.4.6-38.8-1-58-1.1-96.5-.5-193.1.6-289.5,1.1,1.4-5.3-5.9-1.8-9-5,92.2.5,184.5-1.2,276.5-1.1,27.7,0,56.1,2.5,84,1.1,3.2-.2,7.6-.6,10.5-2.1,2.4,1.4,5.4,2.3,7,5Z"/>
      <path class="st6" d="M840,693c25.1,28.5,51.2,56.1,77,84h-20.5c-20.8-22.4-39.6-46.4-59.1-69.9-2.3-2.7-4.3-5.6-6.4-8.1,6,1.2,4.3-4.8,9-6Z"/>
      <path class="st6" d="M519,341c-.4-1.4-.4-3.4-2-4l-6.9,7.8c-10.8,24.4-24.6,48.4-39.1,71.2.2-3.2-.6-2.1-1.8-.3-3.6,5.4-6.5,9.4-9.2,15.3-4,2-6.3,9.5-9.3,13.6-2.3,3.1-7.8,8.4-10.7,11.4l-3-1c-.1,1,.1,2.1,0,3-1.3.1-2.7,0-4,0,1.8-2.3,3.8-2.8,4-3,7.5-9.8,15.7-21.8,23-31.8s18.1-23.4,21.5-35.2c.3-1,1.4-4.3,1.7-4.8.6-.9,5.1,1,1.8-3.2,4.9-7.8,18.9-40.1,22-43,.1-.1,1.4.4,1.8-.1,1.2-1.5-.6-7.8,4-5.5l2.7,3.7c1.9-5,6.5-2.5,11-3,3.4-.4,7.3-1.6,10.5-2,5.5-.7,10.3.2,15.8,1.7,4.3,1.1,8.8,2.3,12.2,5.3-.1,0-.1,1.4-2.4,1-3.5-.6-8.3-3.8-11.6-5l1,7c-.2-.2-6.1-4.4-6-2,1.6,0,2.4,1.1,3.3,2.2,1.5,1.9,3.5,5.5,4.7,7.8l-15,5c-.5-2.1,0-5.6-3-5"/>
      <path class="st3" d="M536.6,345"/>
      <path class="st3" d="M183,623c2.9,6.3,2.5,14.1.7,20.7-17.7,13.9-34.3,29.3-52.7,42.3-.3-6.8-1.8-13.6-.9-20.4.7-5.1,2.7-2.8,3.7-3.8.6-.5,0-1.7.2-1.8.4-.4.6-.6,1-1,3.9.5,7.7-2.8,10.1-5.5.8-.9.7-2.2.9-2.5.3-.4.7-.7,1-1,4.3.8,2.5-1.2,3-2,4.2-6.7,25.9-19.6,33-25Z"/>
      <path class="st5" d="M588,5c12.6.8,19.8,1.8,32,5,0,2.9.8,3.2-2.5,3-42-1.7-84.8.5-127,1-9.5.1-19-1.8-28.5-1v-4c8.7-1.7,16-2.7,25-3,11.3-.4,22.7-.4,34-1l-1.5-2c22.9-.4,45.7.5,68.5,2Z"/>
      <path class="st0" d="M616,347c1.6,0,10.8,4.5,12,5.5,2.5,2.3,1.8,6.2,2,6.5.5.5,11.7-2.9,14-1.5,3.4,2.1,1.3,9.9,1.9,13,.2,1.1,2.5.2,3,.6,1.2,1.2-2,8.6,2.1,7.9.2,6.8.7,13.4,2,20-20.2-14.3-33.8-27.2-52-44,1.9-.9-.7-4,0-5,.5-.7,10.1-1.8,12-2,.3,0,.8-1,1-1,.6,0,1.3,0,2,0h0Z"/>
      <path class="st3" d="M897,627c.3,0,.7,0,1,0l1,1c5.2,2.2,38.4,26.8,41.6,31,1.1,1.4.9,1.9,1.4,3,1.6,3.7,1.8,11.5,1,15.5-.2.9-3.5,4.8-4.5,4.4-9.8-8.2-19.2-16.9-29.1-25-3.5-2.8-15-9.8-16.5-12.5-1.4-2.4-.6-13.3.2-15.9.6-1.9,2.3-1.6,3.9-1.6h0Z"/>
      <path class="st6" d="M699,503c3.4,2.7,6.6,5.8,9.5,9,26.9,29.3,53.8,58.6,81.5,87-3.2,2.2-13.3,2.8-16.1.6-7.5-9.2-14.7-18.7-22.4-27.6s-51.4-54.5-51.5-61c0-4.2,1.9-2.5-1-8h0Z"/>
      <path class="st3" d="M123,667c2.7,0,2.8,1.2,3.1,3.5.3,2.9.4,16.5-.6,18.5l-40,33c-.6-9.3-.7-18.7-1.5-28,11.9-10.6,25.7-18.4,39-27h0Z"/>
      <path class="st3" d="M951,668c4.4,3.2,9.5,5.4,13.9,8.6,8.3,6.1,16.3,12.7,24.1,19.4-.1,4,.7,24.7-1,26-13.8-8.9-24.5-22-38.8-30.2.2-7.7-1.8-16.8,1.8-23.8h0Z"/>
      <path class="st0" d="M145,446c-.9-11.6-1.4-23.2-1-35l31-2c0,8.6,0,17.4,0,26l-8,2.5,8,.5v3c-2.4-.5-2.6,2.8-3.7,3-3.7.9-9.6-.1-12.9.1-3.4.2-8.6,3.4-13.4,1.9h0Z"/>
      <path class="st3" d="M179.9,584.1c.4.7.3,6.1.1,7.3-.5,2.8-11.9,10.6-15.1,12.9-8.2,6.1-18.8,15.2-28.6,15.3-12.2,9.1-24.4,18.4-37,27.1-1.8,1.2-14.4,10.1-15.3,9.2,0-2.8-.6-11.5,1.6-13.1,1-.7,3.5-.9,5-1.7,10.5-6.1,20.2-13.8,29.8-21.2l2,3,53.5-39.5c.8-.6,3.6.3,3.8.7h0Z"/>
      <path class="st0" d="M837,155c4.9.6,6,4,8.9,7.7.8,1.1.8,2.9,1.1,3.3.6,3-1.5,1.9-3.5,2-19.7.8-39.5-.4-59-1-7.8-.2-15.7.3-23.5,0v-11c21.2-.4,42.4.5,63.5,0,4.1,0,7.8-1.6,12.5-1h0Z"/>
      <path class="st3" d="M851,589c8.2,6.5,16.1,13.4,24,20,1.3,1.1,2.6,1.7,3,2,.2.2.8-.2,1,0,1.2,1,2.8,4,4,5-.5,12.8,4.8,23.4-10.5,11-9.8-8-19.3-16.8-29-25-2.2-1.8-9.9-6.3-11-8-1-1.6,1.7-15.6.5-19,5.9,4.9,12,9.3,18,14h0Z"/>
      <path class="st3" d="M240,579c1,3.9,3,12.3,1.1,15.6l-49.6,43.4c-2.3.4-1.4-1-1.5-2.5-.3-4.2-.6-12.1,0-16.1.2-1.8,2.3-1.4,2.1-3.4.5-.4,1.4-.6,2-1l1-1c7.1-5.5,14-11.3,21-17l1-1c.5-.4,1.1-1.3,2-2,2.7-1.7,7.3-3.7,9.6-5.4s5.1-4.9,7.4-6.6c1.2-1,2.8-2.1,4-3Z"/>
      <path class="st0" d="M849,175c-4.6,3.4-7.6,5.4-13,8,.6-3-1.5-1.9-3.5-2-2.7-.1-18.9-.7-19.5,0-.2.3.2,3,0,4,5.1-1.1,10.4,2.4,15,2,.4,1.7-4.2,4.3-6.1,5.4-1.1.6-2.6.3-2.9.6l-58-1v-13c12.7,1.5,25.7,1.2,38.5,1.1,2.8,0,5.3-1,7.9-1.1,9-.2,22.8,1.4,31,0,1.2-.2,2.4-.6,2.5-1.9-11.2-.9-22.3-1.1-33.5-1.1-6.5,0-13.2.1-19.5,0,2.5-1.3,6.7-1.9,9.5-2,14.2-.8,31.7-.4,46.1,0,1.9,0,3.8,0,5.5,1h0Z"/>
      <path class="st3" d="M919.4,599.6c5.7,4.1,11.7,8.4,17.1,12.3,10.7,7.8,20.6,12.8,31.2,19.9,4.2,2.8,20.6,11.9,21.3,15.7.5,2.8-.3,6.5,0,9.5l-31.5-21c-5-9.7-16.5-12.3-24.8-17.2-8.4-5-26.3-15.6-32.9-21.8-3-2.9-3.1-6-2.8-10,2.8-2.7,17.5,8.1,20.4,10.2.9.7,1.3,2,2,2.5h0Z"/>
      <path class="st0" d="M989,696c-7.8-6.7-15.8-13.3-24.1-19.4-4.4-3.2-9.5-5.5-13.9-8.6-2.4-1.8-5.1-6.5-9-6-.5-1.2-.4-1.7-1.4-3-3.2-4.1-36.4-28.8-41.6-31,0,0-.3-.9-1-1-.3,0-.7,0-1,0-4.2-4.3-9.4-7.2-14-11-1.2-1-2.8-4-4-5l2-3c7.6,7.3,7.6,6,16.6,9.9,12.9,5.5,35.4,27.9,46.5,37.5,3.5,3.1,9,4.5,12.9,7.1,9.1,6,17.8,12.9,26.8,19.2,1.4,1,4.5,1.7,5.3,2.7,2.6,2.9,0,8.2,0,11.5h0Z"/>
      <path class="st3" d="M990,620c-.3,5.5-.3,13.5-1,18.5-.2,1.4.5,1.7-1.5,1.5-7.6-5.8-15.8-10.9-23.6-16.4-6.1-4.3-9.7-7.1-14.9-13.1-1.2-1.3-1.2-3.5-2.9-5.1-2.5-2.3-5.7-1.5-8.1-3.4,1.3-.2,6.5-1.4,6.9-2.6,1.2-3.6-2.4-5.1-3.6-6.7-.5-.6-.2-1.5-.3-1.7l49,29h0Z"/>
      <path class="st1" d="M636,15c-19.9-2.6-38.9,2.3-59,3-13.9.5-28-.2-42,0-1.3,0-2.7,0-4,0h-3c-16,0-34.1,2-49.5,1-8.2-.5-16.2-2.5-24.5-3-.7-3.8,2.7-1.1,5.2-1.5,1.3-.2,2.5-1.5,2.8-1.5,9.5-.8,19,1.1,28.5,1,42.1-.5,84.9-2.7,127-1,3.3.1,2.6-.1,2.5-3,5.2,1.4,11.2,2.6,16,5Z"/>
      <path class="st1" d="M366,151c-.9,3.5,5.3,1.7,8.5,2,1.3.1,2.6,1,3,1h34.5l-1.5,2c-30.4.1-60.7-.2-91.1,0-11.8,0-23.5,1.1-35.5,1-14.5,0-29.7-1.9-44-1-.8-1.7-2-2.9-4-3,1.1-1.4,2.4-2.3,3-3,21.6,1.9,43.7.9,65.5,1,20.3,0,41,0,61.5,0Z"/>
      <path class="st5" d="M226,166c-.6,3,1.5,1.9,3.4,2,33.2,1.1,65.9-.4,99.1,0,1.7,0,4.5-.6,5.5,1-2,.6-4.2,2.3-7,3-26,6.9-73.4,4.3-101.5,4-1.7,0-4.4.6-5.5-1,2.1-3.1,3.7-5.8,6-9h0Z"/>
      <path class="st3" d="M757,476c1,.3,2.1.3,3,1-1.4,3.6,4.3,9.6,7,11.5,2.9,2,8.3,2.3,9,6.5,0,0-1.2-.4-.8,1.3,1.1,5,9.1,9.6,13.8,10.7.1.2-.3,1.2.2,1.8.5.5,1.6,0,1.8.2.5.5.4,3.4,4.4,2.8l.6-.8c6.8,3.8,13.1,8.5,20,12-1.3,8.9,10.2,8.6,11,14.5.3,2.3-1.7,1.7-3.4,1.4-7.4-1.1-29-22.1-37.1-27.9-8-5.7-35.6-19.5-38.4-26.6-.4-1-1.3-5.2-1-5.5.5-.5,3.3,1,3-1-3.3-.8-7.1-3-9-6,4.6,1.5,11.5,2.4,16,4h0Z"/>
      <path class="st6" d="M425,456c2.3,1.1.4,2.9-.5,4-25,33-56.8,63.9-84.5,95-4.8-.9-6.4,3.7-9.5,6-.4.3-8.8,6.4-7.5,2,33.8-34.3,70.1-71.1,102-107Z"/>
      <path class="st3" d="M348,467c3-3,10.5-7.1,14.5-9,2-.9,2.8-2.3,2.5,1-1.6,1.3-1.7,3.3-3.1,4.4-4,3.3-16.8,11-18.8,14.2-2.5,4-.2,6.6.9,10.4-1.5,2.3.4,1-3,4,.7-6,.2-11.5-7.3-8.8-.6.2-6.4,7.4-8.1,8.9-9.8,8.6-22.4,13.5-31,23l-2-2c-5.8,4-1.9,4.7-1.5,8.5.3,3.5-.1,7,0,10.5-1.3,1-2.4,1.5-3,2-1.2-5.1-.7-10.3-1-15.5-.2-3-1.7-1.3-3-.5.1-.5-.1-1.4,0-2,2.4-1.7,6.9-6.5,8-9l2,2,1-4.3,5.1-4.7c0,0-.2-1.5.3-1.7,1.5-.7,3.4-.4,5.1-1.4.3-.2,5.2-4.8,5.4-5.1.9-1.5-.2-5.4.2-5.8.2-.2,2.4.3,3.4,0,5.8-1.9,12.7-4.4,15.6-9.9.9-1,3.5-.7,4-1,4.5-1.2-1.1,6.4,2.5,5,1.8-.7,7.1-5.8,8.5-7.5s1.5-3.7,2-4.5c.2-.3.7-.7,1-1h0Z"/>
      <path class="st0" d="M930,160c0,.3,0,.7,0,1-.1.4.3,1.2-.2,1.8-.4.4-6.1,2.7-7.8,3.8-36.2,24.3-74,47.8-113.1,67.4,0-3.1,3.9-3.9,6-5.5l-2-.5c24.9-13.5,48.1-29.9,72-45,.3,1.7,3.1-.2,3.9-.6,2.4-1.3,4.8-2.6,7.2-3.8.5-.2,4.2-1.8,2-2.5,10.6-6.3,14.9-11.2,27.6-15.9,1.3-.5,3.4-2.2,4.4-.1h0Z"/>
      <path class="st3" d="M825,569c3,5.3,3.2,12,3,18l-3-.5c-9.1-11.1-27.4-20.5-36-31-4.2-5.1-3.9-11.2-2-17.5,7.9,6.4,34,24,38,31Z"/>
      <path class="st0" d="M512,305c0,6.4-.5,12.8,1,19-4,.5-8,.6-12,1-4.4.4-14,.3-17.3,1.2-.8.2-1.7.9-1.7,1.8,2.5.7,5.4-.9,7.6-.8,1.2,0,2.1.8,2.4.8.4,1.7-.8,2.2-2,3-.1,0-.6,1.1-1.4,1.1-.9,0-.5-2-.6-2-2-1.6-2,1.5-2.2,1.7-1.2.9-4.2,0-5.8.3-.1-.5,1-1.6,1-2,.4-8-.7-16-1-24l32-1h0Z"/>
      <path class="st5" d="M440,15c4,2,9.4.7,14,1,8.3.5,16.3,2.5,24.5,3,15.5,1,33.6-1,49.5-1l-1,6c-30.6.4-54.6,1.2-85.5-2-7.2-.8-9,1-16.5-2,4.8-3,10-3.4,15-5Z"/>
      <path class="st3" d="M336,506c-.2,2.4.4,5.2,0,7.5-1.1,5.6-20.3,18.2-25.5,22.5-7.5,6.3-14.3,13.8-22,20,.1-3.7-1.5-8.1-1.6-11.5,0-1.8,1.3-1.7,2.1-2.5,7.4-7.8,15.4-13.2,23.5-20,3.9-3.3,15.3-15.2,18.6-16.5,1.6-.6,3.3.5,5,.5h0Z"/>
      <path class="st3" d="M708,472v7c-3.5.8-3-1.6-5-3.5-3.8-3.7-8-7-11.6-10.4-6.8-6.6-12.6-14.1-20-20l-1.5,2c-4.6-10.8-18.7-17.1-23.5-27-1-2.1-1-5.5-2-7-1-1.5-10.5-6.7-12.5-9.5-.9-1.3-1.8-4.6.5-3.6,3.4,1.4,14.5,12.6,17,16.1,3.6,4.9,7.9,17,16,15,1.5-.4-.1-11,8,0,4.8,6.5,1.3,5.8,9.6,9.9-1,4,4.1,6.4,4.8,8.7.5,1.6-.2,4.4.3,5.2.4.6,2.7.4,3.6,1.4.4.4,0,1.8.5,2.3,1.4,1.5,9.1,10.5,9.7,10.9,1.1.6,2.1-.5,2.8-.2.2,0,.3,2,3.2,1.7v1h0Z"/>
      <path class="st0" d="M768,516c5.5,3.3,7.7,7.1,12,10.4,14.5,11.4,28.4,20.5,42.9,33.2,9.6,8.4,20,16.3,30.1,24.4l-2,5c-6-4.7-12.1-9.1-18-14-.2-.1-1.1.2-1.7-.2-1.6-1.4-2.7-5.8-6.3-5.8-4-7-30.1-24.6-38-31-2.9-2.4-6.1-4.7-9-7-3.2-2.6-7-7.2-10.5-10-3.1-2.5-9-4.7-10.5-9,2,.9,7.8,2.1,11,4h0Z"/>
      <path class="st4" d="M403,617l30-55.5c2.2-1.5,7.5.8,10,1-5.4,11.4-11.5,22.5-17.2,33.8-1.2,2.3-1.7,5.6-2.8,7.7-.9,1.8-6.6,12.4-7.2,12.8-1.7,1-9.8-.2-12.8.2h0Z"/>
      <path class="st3" d="M805,263v3c-60.8,25.4-119.7,43.5-182.8,61.7-3.9,1.1-7.7,3.6-11.8,4.2-1.2.2-4.3.8-3.4-1.4,18.8-6.1,37.9-11.4,56.8-17.2,31.7-9.8,65.7-21,97.7-33.3,14-5.4,29.9-11.3,43.5-17h0Z"/>
      <path class="st5" d="M847,166c1,1.2,7,5.1,7,5.5-1.1,1.6-3.7,2.6-5,3.5-1.7-1.1-3.5-1-5.5-1-14.4-.4-31.8-.8-46.1,0-2.8.2-7,.8-9.5,2-4.3,0-8.7,0-13,0,0-.6.2-1.9,0-2-.8-.6-11.7.4-14,0v-7c7.8.2,15.7-.3,23.5,0,19.5.6,39.3,1.8,59,1,1.9,0,4,1,3.5-2h0Z"/>
      <path class="st3" d="M283,546c1.8,3.6,1.7,11.9-.5,15-6,3.2-24.3,22.8-29.1,23.7-.8.1-2.2-.8-2.3-.7-.4.6.3,5.5-3.5,7-2.1.8-1.4-1.4-1.5-2.5-.4-5.2.2-10.6,2-15.5,1.4-1,2.6-2,4-3,1.9-1.4,6.5-3.5,8.9-5.6l5.1-5.4c5.9-4.5,10.7-8.5,17-13Z"/>
      <path class="st0" d="M732,61c-6.8-1.4-13.2,1.7-19.5,2-17.1,1-34.6-.9-51.5-1l-.7-.8c-2.6.7-7.2-1.2-8.8-1.2h-35c-5.8,0-12.9-.8-19-1-1.9,0-4,1-3.5-2,25.8,0,51.7-.3,77.5,0,13.2.2,30.9,4,43.1-1.8,1.7-.8,3,1.1,2.3-3.1,7.9,3.4,8.7,5,15,9Z"/>
      <path class="st6" d="M340,555c-5.2,5.8-10.1,13-15.5,19-10,11.3-21,21.8-31.5,32.5-1.1.5-4.8-1.1-6.5-1.6-2.3-.6-2.9,1.2-2.5-3,.3-.3.7-.7,1-1,3.2.3,3.3.2,3-3,.3-.3.7-.7,1-1s.7-.7,1-1c1.3-1.3,2.7-2.7,4-4,.7-.7,1.3-1.3,2-2,9-8.9,18.1-18,27-27-1.3,4.4,7.1-1.7,7.5-2,3.1-2.3,4.7-6.9,9.5-6h0Z"/>
      <path class="st4" d="M653,610c-4.4-12.6-9.2-25.2-14.8-37.7-1.3-2.9-4.3-6.8-5.2-8.8-.8-1.9.6-1.3,1.5-1.5,2.3-.4,5-.5,7.4-1l27.1,53.9c0,0,.4,1.8-.7,2-2.7.7-7.1-.7-10.3,1,.5-2.9-4.7-7-5.1-8h0Z"/>
      <path class="st5" d="M807,144c7.3,0,14.8.6,22-1,1.4,1.8,2.5,3,4,5-.7,2.5-2.7,1.7-4.5,2-21.4,3.2-45.7-.4-67.5,1v-8c15.4-.4,30.6,1,46,1Z"/>
      <path class="st5" d="M636,15c1.4.2,2.7.8,4,1,.3,2.5-.2,3.1-2.4,4.1-16,7.4-45.2,4.2-62.6,3.9l2-6c20.1-.7,39.1-5.6,59-3Z"/>
      <path class="st1" d="M650,403c18.9,14.4,39.3,28.9,59,42l1.3,4.7c4.1.7,6.8,3.7,10,5.5,1.9,1.1,3.1,1.7,2.7-1.2,11.3,7.3,23.5,13.6,34,22-4.5-1.6-11.4-2.5-16-4-1.9-.6-3.3-1.4-5-2,0-2.4-1.3-2.6-2.8-3.7-7.1-5.1-6.5-5.7-15.2-8.3,0-.4,1.4-1.7,1-2h-4c-3.7-2.6-7.3-5.5-11-8,.7-4.7-1.1-2.2-3.2-3-.3-.1-3-2.1-4.8-3-.4-1.1.9-2.5-1.5-2l-.5,1c-.6-.3-1.3-.6-2-1,0-5.6-7.6-7.5-10.6-10-1.1-.9-1.3-2.8-1.5-3-.7-.6-1.8,1-1.9,1-.3,0-.7,0-1,0,.5-2.7-.6-2-3-2-6-3.9-14.2-9.8-19-15-.2-.2-.2-1.6-.9-2.5-1.5-1.8-4.9-1.8-4.1-5.5h0Z"/>
      <path class="st0" d="M803,203c-.3.2-.7,1.3-1.6,1.8-13.2,7.8-27.4,14.1-39.9,23.2-.9-7.9-.5-16-.5-24l42-1Z"/>
      <path class="st1" d="M616,347c3.8-1.7,29.3-7.9,30.9-6.9.4.3.5,2.2,1.1,3.1.5.7,1.8.6,2,1.4,2.2,10,.7,23.8,1,34.3-4.2.7-.9-6.7-2.1-7.9-.4-.4-2.7.5-3-.6-.6-3.1,1.5-10.9-1.9-13-2.3-1.4-13.5,2.1-14,1.5-.3-.3.4-4.1-2-6.5-1.1-1-10.3-5.5-12-5.5h0Z"/>
      <path class="st1" d="M327,172c-2.4,2.6-6.8,5.4-9,8h-101c1-1.6,1.8-3.2,3-5,1,1.7,3.8,1,5.5,1,28.2.3,75.5,2.9,101.5-4Z"/>
      <path class="st1" d="M175,441c0,6.6,0,13.4,0,20h-29c-1.2-5-.6-10-1-15,4.8,1.6,10-1.6,13.4-1.9,3.2-.2,9.2.8,12.9-.1,1.1-.3,1.3-3.5,3.7-3h0Z"/>
      <path class="st1" d="M758,198c0,1.7,0,3.3,0,5l-98,1c-.3-2.3,1.8-2.4,3-3.7v-1.3c4.7-.9,5.1,0,9.4,0,28.6,0,57.1.2,85.5-1.1Z"/>
      <path class="st6" d="M696,499c.3.4.7.7,1,1s.7.7,1,1,.6.7,1,1c.1.3-.1.8,0,1,2.9,5.5.9,3.8,1,8-1.8-.5-2.6-1.4-3.8-2.7-20.3-21.5-41.4-47-58.2-71.3,1.7-.5.8-2.9,0-4,19.6,21.5,38.4,44.3,58,66Z"/>
      <path class="st5" d="M820,132c1.9,2,3.3,3.9,5,6-3.6,3.6-10.2,1.6-15,2l-29.5-2-19.5,1v-9c2.4.2,5.2-.4,7.5,0,1.8.4,2.8,2,3,2h41c1.6,0,4.7-1.6,7.5,0Z"/>
      <path class="st3" d="M383,459c2.5.9,1.3,4.4,4,4-.1.1.3,1.9-.5,3-6.5,8.8-14,12.5-21.2,19.3-4.1,4-19.4,22.2-22.9,23.6-2.8,1.2-1-7.8-1.5-9,3.4,0,2.4-2.6,4-4.5,5.8-7.3,13.5-12.5,20-18.5,2.2,8,3.1,3.4,3.8-2.4l-.8-.6c3.3-3,6.5-6.6,10-9.5l3-4.5c.7-.6,1.8-.8,2-1Z"/>
      <path class="st0" d="M390,33c-.6,3,1.5,1.9,3.5,2,15.2.5,30.3.8,45.5,1,3.4,1.7,10.4,1.7,14,0,1.7,0,3.3,0,5,0,6.3,3.2,13.6,1.5,20.4,2.1,1.3.1,6.5.2,5.6,2.9-32.8.1-64.9.1-97.6-2-1.3,0-2.3-1-2.4-1-3.2-4.8,3.6-4,6-5Z"/>
      <path class="st3" d="M757,512c1.5,4.3,7.4,6.5,10.5,9,3.5,2.8,7.3,7.4,10.5,10l1,14c-1.2,1.3-16.7-12.3-18.5-14-4.5-4.3-12.6-11.5-11.5-18.5.1-.8,3.7-.3,4.1-2.5.5.4,3.2,1.7,4,2h0Z"/>
      <path class="st0" d="M354,51c.1,1.9,1.4,3.5,3.1,4.4,8.1,4.4,38.1,2.7,48.9,2.6l1,4c-12.3.3-24.2,2.7-37.5,2-7.7-.4-24-4.1-30.5-3l9.7-7.8c1.6-1.3,3.5-1.6,5.3-2.2Z"/>
      <path class="st0" d="M702,43c2.3,1.3,10.2,2.5,10,6-30.3.9-60.7,1.8-91,2v-1.3c1.8-1,2.5-1.4,2-3.7,23.7,0,50,1.5,73.4-1.1,1.8-.2,4.3-.6,5.6-1.9Z"/>
      <path class="st5" d="M813,228l2,.5c-2.1,1.6-5.9,2.4-6,5.5-1.3.7-2.7,1.3-4,2l-.5-1c-1.8-.4-1.6.3-1.5,2-27,13.4-58.5,30-86.8,39.8-2.5.9-8.1,3.1-10.2,1.2,16-8.6,34.8-14.4,51.4-22.1,17.8-8.3,38.3-18.5,55.6-27.9Z"/>
      <path class="st1" d="M837,155c-4.7-.6-8.4.9-12.5,1-21.2.5-42.4-.4-63.5,0v-5c21.8-1.3,46.1,2.2,67.5-1,1.8-.3,3.8.5,4.5-2,1.5,2,4.5,3.6,4,7Z"/>
      <path class="st0" d="M369,42c-.3,4-.1,2.5,2.4,3,3.1.7,11.2,2,14.1,2h38c3.1,0,8.3-1,12.5-1,3.5,1.9,4.7-.2,4,5-19.8,0-39.7.3-59.5,0-7.5,0-15.4-1.8-23.5-1,4.1-2,8.1-6.1,12-8Z"/>
      <path class="st5" d="M819,193c-3.1,1.9-6.8,4.1-10,6-4.4-1.6-10.9-1.3-15.6-1.1-1.7,0-3.5,1.1-3.9,1.1h-17c-.3,0-1.7-.9-3-1-2.8-.2-5.7.2-8.5,0v-6l58,1Z"/>
      <path class="st1" d="M422,425c.9,1.5,1.9,4.2,2,6-4.7,4.5-10.8,8.8-15,13-.5-1.9-3,0-4.1.4s-8.7,3.6-7.9,4.6c.6.7,3.4-1.3,1,5-1,2.5-5.2,6.3-7.5,8.1-1.5,1.1-3.4.8-3.5.9-2.7.4-1.5-3.1-4-4,3.6-3.2,2.4-4.8,3-8.5.9-5,3.3-.9,4.7-.7,1.1.2,10.1-6.5,11.8-7.9,6.1-5.1,13.8-12.3,18-19,.8.5,1.1,1.2,1.5,2h0ZM388.5,451v1c.6-.3.6-.7,0-1Z"/>
      <path class="st1" d="M388,436l-1,7c-6.4,3.9-16.1,11.1-22,16,.2-3.3-.5-1.9-2.5-1-4,1.9-11.5,6.1-14.5,9-1.3-7.8-7.5,4-11,1,17-10.6,33.9-21.5,51-32Z"/>
      <path class="st5" d="M209,192l59,2c.9,3.3-4,1.8-6.4,2.1-1.7.2-3.4.6-4.6,1.9-6.2-.9-12.7.9-18.5,1-11.2.2-22.4-.3-33.5,0,1.4-2.3,2.4-4.5,4-7h0Z"/>
      <path class="st3" d="M870,562c3.4,1.1,5.2.7,6,4,.3,1.1-.3,2.3.5,4,2.4,5,11.9,8.9,13.5,12.6,1,2.4-1.5,1-2.1,1-2,0-5.6.5-6.2.3-3.2-.8-20.7-15.2-24.8-18.3-.8-.6-.8-2.3-1-2.5-.8-3.8,1.3-2.8,4-4,3.1,1.5,6.9,2,10,3h0Z"/>
      <path class="st3" d="M712,475c9.2,7.5,18,15.4,27,23l-1,9c-1.5.3-2.3-.1-3.5-1-2-1.3-11-9.3-13.1-11.4-1.5-1.5-11.5-11.9-11.9-12.7-1-2.2.3-5.9,2.5-7h0Z"/>
      <path class="st0" d="M820,132c-2.8-1.6-5.9,0-7.5,0h-41c-.2,0-1.2-1.6-3-2-2.2-.5-5.1.2-7.5,0v-5c.3,0,.8-1,2-1,.5,0,8.7,1.7,9,2,.5.5-1.4,2.3-.5,3,.7-.3,2.1-1.9,2.5-2,8.6-1.7,22.6,1.6,31.5,0,2-.4,4.4-2.2,5.5-3.9,3.5,3.1,5.8,5.6,9,9Z"/>
      <path class="st1" d="M822,210c-11.7,2.4-22.2,9.4-32,16-3.7-11.9,4.7-10.5,11.4-14.1,3.3-1.8,15.9-13.5,19.1-12.9,2.5.5,1.3,8.7,1.5,11h0Z"/>
      <path class="st0" d="M730,258c-12.8,5.9-26.2,11.2-38,16-3.6-8,5.2-8.6,11.4-11.2,2.5-1.1,4.4-1.8,6.9-3,6.5-3,12.9-6.3,19.2-9.8l.5,8Z"/>
      <path class="st0" d="M331,66c1.1,2.3,4.2,2.8,6.5,3,10,1.1,23.1,0,33.5,0,3.1,3.2,10.4-.3,9,5-10.9,0-21.7,0-32.5,1l-25.5-3c3.1-2,5.8-4.1,9-6Z"/>
      <path class="st1" d="M236,546c1.6,2.4-.5,5.2,0,8-9.4,7-16.9,12.8-27,19-2.1-3.1-2.3-6.3-2-10,9.8-5.6,19.2-11.5,29-17Z"/>
      <path class="st3" d="M442,336h6c1,4.3-2.2,2.7-5.7,3.8-4.4,1.4-7.1,3.2-12.3,2.2l3,3c-12,2.7-23.9,6.5-36,8.6-.8.2-2.6,0-3-.6-.2-.4.2-1.8,0-2-.6-.5-12.3,2.5-14.2,3.1-.8.2-.7,1.8-1.2,1.8-2.2,0-5.3-3.2-4.5,2.1-10.2,2-20.7,4.3-31,6l1.7-5c23.3-2.1,45-11.5,68.3-13l-1,3c5.4-.2,1.6-1,2.5-3,1.1-2.5,7.2-2.9,9.7-3.2l8.8-4.7c.9-.1,2,0,3,0,0,0,.5.9,1.4.8,1.4-.1,2.1-1.6,2.6-1.8.4-.1,1.4-.7,2-1h0Z"/>
      <path class="st1" d="M775,176c4.3,0,8.7,0,13,0,6.3,0,13,0,19.5,0,11.3,0,22.3.1,33.5,1.1-.2,1.4-1.4,1.8-2.5,1.9-8.2,1.4-22-.2-31,0-2.6,0-5.1,1.1-7.9,1.1-12.8.2-25.9.4-38.5-1.1v-4c4.2,1.8,9.4.9,14,1h0Z"/>
      <path class="st5" d="M240,156c14.3-.9,29.5.9,44,1,.8,4.8-2,2.5-5.5,3-1.2.2-2.7,1-3,1h-34c-.8,0-4.5,1.4-6.3,1.7-2.4.4-5.2-.3-8.2,1.3,2.4-3.3,5-5.5,7-8,2.4,2.4,5,0,6,0Z"/>
      <path class="st1" d="M809,199c-1.6,1-3.5,2.5-6,4l-42,1v-6c2.8.2,5.7-.3,8.5,0,1.3.1,2.6,1,3,1h17c.4,0,2.2-1,3.9-1.1,4.7-.2,11.2-.5,15.6,1.1Z"/>
      <path class="st1" d="M257,198c.5,0,1.8,1.5,3,1l-2.5,3c-18.5.2-37,3.4-55.5,1,1.1-1.8,2.4-3.1,3-4,11.2-.2,22.4.3,33.5,0,5.8-.1,12.2-2,18.5-1h0Z"/>
      <path class="st5" d="M806,119c2.9-.2,3.6,2.7,5,4-1.1,1.8-3.5,3.6-5.5,3.9-8.9,1.6-22.9-1.7-31.5,0,0-2.5-2-3.2-4-4,6.2-1.2,13.7-2.5,20-3,5.3-.4,10.7,0,16-1Z"/>
      <path class="st5" d="M930,140c-.6.4-1.5.6-2,1l-1-80.5c.2-1.8-4.8-4.3-6-4.5l1-1c2.5,1,6.2.2,7,4.5,1.8,26.8.6,53.7,1,80.5Z"/>
      <path class="st1" d="M928,472l-1.5,2c-28.8,1.5-57.8,1.6-86.5,0-.4-1.1,3.3-2,3.5-2h84.5Z"/>
      <path class="st5" d="M710,470c5.4,4.6,12.8,8.2,18.5,13,5,4.2,8,9.1,12.3,13,7.9,7.2,19.7,12.2,27.2,20-3.2-1.9-9-3.1-11-4-.8-.3-3.5-1.6-4-2-4-2.6-10-8.6-14-12-9-7.6-17.8-15.5-27-23-1.1-.9-1.9-2.7-4-3v-1c.3,0,1.2-1.1,2-1h0Z"/>
      <path class="st1" d="M284,516c-.1.6.1,1.5,0,2-2,7-26.4,20.6-33,25l-1-5c12.4-10.6,22.3-13.5,34-22Z"/>
      <path class="st1" d="M657,225c0,1.3,0,2.7,0,4-20.1-1.1-40.3-1.2-60.5-1l-11.5-2.5,72-.5h0Z"/>
      <path class="st0" d="M810,140c-.6,0-1.6,1.2-3,0v4c-15.4,0-30.6-1.4-46-1v-4l19.5-1,29.5,2h0Z"/>
      <path class="st0" d="M734,256c-1.1-12.1,10.4-13.5,18.2-17.2,1.8-.9,2.6-3,4.8-2.7v9c-7.7,3.9-15.2,7.4-23,11h0Z"/>
      <path class="st0" d="M690,275c-10.7,4.2-21.1,9.2-32,13,.1-1.7.4-3.7,1.2-5.3,2.8-5.2,24.3-8.5,29.3-14.7l1.5,7h0Z"/>
      <path class="st1" d="M435,404c.7,1.2,1.8,2.9.4,4.1-2.9,2.5-8.5,5.8-11.9,7.9-5.3,7.9-15.4,10.2-22.5,16l-.5-1c-3,.4-5.5,4.2-8.5,2,3.8-2.3,7-4.8,11-7,6-3.3,5.7-2.2,11-7s14.8-12.9,21-15Z"/>
      <path class="st5" d="M881,608l-2,3c-.2-.2-.8.2-1,0l-3-2c-7.9-6.6-15.8-13.5-24-20l2-5c10.3,8.3,18.7,15,28,24Z"/>
      <path class="st3" d="M273,373c-17.7,2.1-36.5,5-55,5-.6-6.6,11.8-3.6,16.5-4,7.6-.6,15.3-2.2,23-2.4l15.5,1.4Z"/>
      <path class="st3" d="M445,406l1,3c-7.4,7.5-14.4,14.7-22,22,0-1.8-1.1-4.5-2-6l6-8.6c1.9-1.1,2.9,1.9,5,1.6.2-6,7.6-9,12-12h0Z"/>
      <path class="st0" d="M211,497c1.7,1.2-.1,1.8-1.5,2-9.2,1.2-24.2.2-34.1,0-4.7,0-9.6-1.2-15-1.1-4.5,0-11.4,3.3-14.4-.9h65Z"/>
      <path class="st1" d="M827,206c-2-4.1-3-7.5.5-11,1-1,11.6-7.4,13-8,1.7-.7,2.4,4.1,2.5,5,.3,4.7-8.1,7.4-11.5,10-1.9,1.5-1.8,4.3-4.5,4h0Z"/>
      <path class="st3" d="M871,180c-14.9,10.2-28.5,17.9-44,27v-1c2.6.3,2.6-2.6,4.5-4,3.4-2.6,11.9-5.3,11.5-10h1c3.1,2.4,11.8-3.3,11.9-6.4,0-1.5-1.4-3.7-.9-5.6.2.2,4.9,1.7,5.5,1.8,3.4.6,7.2-1.4,10.5-1.8Z"/>
      <path class="st1" d="M683,441c6.7,3.4,7.1,8.8,11.6,13.9,3,3.4,12.4,12.5,15.4,15.1-.8,0-1.7,1-2,1-2.8.4-3-1.6-3.2-1.7-.7-.3-1.7.8-2.8.2-.6-.4-8.3-9.4-9.7-10.9-.5-.5-.2-1.9-.5-2.3-1-1.1-3.2-.8-3.6-1.4-.5-.8.2-3.6-.3-5.2-.7-2.3-5.8-4.7-4.8-8.7h0Z"/>
      <path class="st1" d="M848,243l1,3c-14.6,6.4-29.2,13.8-44,20v-3c14.4-6.1,28.6-13.6,43-20Z"/>
      <path class="st1" d="M860,559c-2.7,1.2-4.8.2-4,4-.2-.2-2.3-.3-3.3-1.1-2.7-2.1-21-13.7-17.7-16.9,9.2.4,17,10.1,25,14h0Z"/>
      <path class="st1" d="M656,240l-45,1v-1c5.3-1.3,10.4-2.7,16.5-3,9.4-.5,19.5,1.3,28.5-1,0,1.3,0,2.7,0,4Z"/>
      <path class="st3" d="M848,243c11.5-5.1,23.2-10.6,35-15,0,2.3-3.4,4.3-5.1,5.4-9,6.1-19.2,8.3-28.9,12.6l-1-3h0Z"/>
      <path class="st3" d="M209,573c-.8.5-1.7,2.3-4,3.5-1.9,1.1-13,6.4-14,5.5.7-4.3,4.9-6.9,7.4-10.1,3.9-5,1.1-4.6,8.6-8.9-.3,3.7-.1,6.9,2,10h0Z"/>
      <path class="st1" d="M467,373c-1.7,1.3-3.2,2.7-5,4-4.3-1.6-5.6,1.5-6.8,1.9-3.7,1.4-7.3,2.2-11.2,4.6-2.6,1.6-3.7,5.6-8,4.5,0-2.2-.2-4.8,0-7,3.5,0,4.5.9,4-3,8.5-2.6,18.3-2.9,27-5h0Z"/>
      <path class="st3" d="M884,222l9.3-7.2c8.3-3.2,16.3-8.2,24.3-11.7,1-.4,10.4-5.1,10.4-1.6l-44,20.5h0Z"/>
      <path class="st0" d="M462,377c-8.3,6.2-18,11.3-26,17v-6c4.4,1.1,5.5-2.9,8-4.5,3.9-2.4,7.5-3.2,11.2-4.6,1.1-.4,2.4-3.5,6.8-1.9h0Z"/>
      <path class="st1" d="M787,229c-1.8.7-4.1.8-6,1.5-4.8,1.9-13.1,10.3-10-.5,4.4-4.2,8.2-7.6,13.5-11-.3,2.9,3,7.9,2.5,10Z"/>
      <path class="st0" d="M636,392c.3.4.7.7,1,1s.7.8,1,1c2,2.9,1.3,3.4-2,3-8.4-7.7-16.1-14.6-24-23,2.1-1.7,2.4-.6,4,.5,4.2,2.8,17.2,13.8,20,17.5Z"/>
      <path class="st1" d="M933,160c-2-2.3-.3-8.6,2.5-9.1,1-.2,11.7,1.2,12.5,1.6,4.4,2,.3,3.2,0,5.5-2.4.2-13.8,1-15,2h0Z"/>
      <path class="st5" d="M267,403c.3-1.7-.8-2.4,2-2,0,11.2.1,22.4,0,33.5,0,2.8-1,5.3-1,8.5h-2c0-3,0-6,0-9,0-10.2-.8-20.9,1-31h0Z"/>
      <path class="st1" d="M315,76v1l-1,.5,1,.5c.9.9,2.8.8,4,1-.8,3.4,3.2,1.6,6,2l-1,5c-7.3,0-14.3-2.3-22,0,4-3.7,8.7-7,13-10Z"/>
      <path class="st0" d="M630,295c-.4-3.4-.2-2.5,2.2-3.3,7.2-2.6,14.6-5,21.4-8.7l.5,6c-2.2.7-7.6,3-9,3-.8,0-2.1-.9-2.5-.9-.5,0-.5,3.5-2.5,1.9-.4-.3.8-2.4-1-2l-2,4c-.3,0-.7,0-1,0-.8.1-1.7,0-2,1-.3,0-.7,0-1,0-.7-.1-1.8-.9-3-1h0Z"/>
      <path class="st0" d="M206,473l-1.5,2-59.5-1.5c20-4,40.7.8,61-.5h0Z"/>
      <path class="st1" d="M799,294c-.1,1.7.5,4.7-.4,6.1-1,1.5-20.2,2-23.6,1.9.3-.9-.7-1.2,1.2-2.3,4.5-2.5,16.9-4.1,22.8-5.7Z"/>
      <path class="st3" d="M931,148c8.1,0,23.8-1.9,22,10-1.7,0-3.3-.1-5,0,.3-2.3,4.4-3.5,0-5.5-.8-.4-11.5-1.7-12.5-1.6-2.8.5-4.5,6.7-2.5,9.1-.2.2.8,3.8-3,1,0-.3,0-.7,0-1,1-4.6,1.1-7.2,1-12h0Z"/>
      <path class="st6" d="M586,370l4-2c-1.1,3.4,1.2,3.6,1.9,4.8,2.5,4.6,4.6,9.6,7.1,14.2-2.5,2,1.3,5.6,2,8h-1c-6.9-7.8-9-15.4-14-25Z"/>
      <path class="st5" d="M828,187c-4.6.4-9.9-3.1-15-2,.2-1-.2-3.7,0-4,.7-.7,16.8-.1,19.5,0,1.9,0,4-1,3.5,2-2.6,1.3-5.2,3.8-8,4h0Z"/>
      <path class="st1" d="M512,301c0,1.3,0,2.7,0,4l-32,1c0-1.3,0-2.7,0-4l32-1Z"/>
      <path class="st3" d="M822,210h1c-11.4,6.6-22.5,13.8-35,19,.4-1.2.9-2.3,2-3,9.8-6.6,20.3-13.6,32-16Z"/>
      <path class="st1" d="M277,369c3.8-7.9,15.1-7.3,22.5-7,1.9,0,4-1,3.5,2-8.8,1.9-16.8,4.1-26,5Z"/>
      <path class="st0" d="M161,485c-1.6-1.2,0-1.8,1.5-2,5.7-.7,13.1.3,19.1,0,6.5-.2,13.6-1.9,20.5-1v3h-41,0Z"/>
      <path class="st3" d="M650,403c-.8,3.7,2.5,3.7,4.1,5.5.8.9.7,2.3.9,2.5-2.3-1.6-6.7-1.6-8.6-2.9-2.7-1.9-7.7-8.6-10.4-11.1,3.3.4,4-.1,2-3,4.7,3.1,7.7,5.7,12,9Z"/>
      <path class="st0" d="M844,192c.8-6.1,4.5-8.8,8.6-12.4.4-.4.4-3,2.3-1.5.3.3-.1,1.8,0,1.9-.5,1.9,1,4,.9,5.6-.2,3.1-8.9,8.8-11.9,6.4Z"/>
      <path class="st3" d="M251,543c-5.4,3.7-9.8,7.1-15,11-.5-2.8,1.6-5.6,0-8,5.6-3.1,8.6-3.4,14-8l1,5Z"/>
      <path class="st3" d="M787,229c-.6,2.4-22.5,12.2-26,14,0-.6.1-1.4,0-2,1.6-3.1,4.6-5.4,7-8,1.5-1.6,1.8-1.8,3-3-3,10.8,5.2,2.4,10,.5,1.9-.7,4.2-.8,6-1.5Z"/>
      <path class="st0" d="M462,9v4c-.3,0-1.5,1.3-2.8,1.5-2.5.4-5.9-2.3-5.2,1.5-4.6-.3-10,1-14-1,8.2-2.7,13.3-4.3,22-6Z"/>
      <path class="st1" d="M829,143c-7.2,1.6-14.7,1-22,1v-4c1.4,1.2,2.4,0,3,0,4.8-.4,11.4,1.6,15-2,1.5,1.8,2.6,3.2,4,5h0Z"/>
      <path class="st1" d="M586,310c0-2.1,1-2.9,2.7-3.8,5.3-2.9,13.4-5,18.8-8.2.9.5.6,4.8.5,5-.2.3-1.5-.2-2,0-6.9,2.4-12.8,4.7-20,7h0Z"/>
      <path class="st0" d="M522,325c.7,3.4,4.7.6,5,1,2.1,2.6-5.1,4,0,4-.2,0-.8.9-1.6,1-5.7.2-4-3.9-4.9-4-1.6,4.3-4.7,2.9-8.5,3-2.3-2.8-5.6-.7-8.5-.9-1.3-.1-2.3-1.1-2.5-1.1v-1c7-.1,14.1-1,21-2h0Z"/>
      <path class="st1" d="M215,473c3.9-.2,40.4-1.5,41,.5.7,2.3-2.1,1.4-3.5,1.5-11.7.5-25.8.6-37.5,0v-2h0Z"/>
      <path class="st0" d="M249,498c1.6,1.2,0,1.8-1.5,2-2.9.4-32.5.1-32.5-1.5,10.9-3.8,22.8.2,34-.5h0Z"/>
      <path class="st4" d="M922,55l-1,1c-3.8-.7-17-.1-19.4-1.9-1.3-.9-.7-3.9.4-4.7,1.7-1.2,17.1,4.4,20,5.6Z"/>
      <path class="st5" d="M540,322v6c-.3,0-.7,0-1,0l-3-4-1,4c1.6-1.3,2.4,0,3,0-.7.3-.9,2-1,2-1.1.5-7.8,0-10,0-5.1,0,2.1-1.4,0-4-.3-.4-4.3,2.4-5-1,5.7-.8,12.1-1.9,18-3h0ZM534,326c-.2-.2-7.3-.1-5,2,1.5,1.4,6.9.1,5-2Z"/>
      <path class="st0" d="M678,404c3.9,0,2.1,7.5,3.5,10,1.3,2.2,11.1,7.5,10.5,12-4.4-2.9-8.7-6.1-13-9-.3-4.3-.9-8.7-1-13Z"/>
      <path class="st3" d="M211,378c-9,2.1-18.7,3.2-28,4,.9-5.8,3.8-2.8,6.5-3,1.5-.1,2.6-1.8,4.1-1.9,6.3-.6,12.2.9,17.4,1h0Z"/>
      <path class="st3" d="M401,432c-6,4.9-6.5,6.4-14,11l1-7c1-.6,2.3-2,4-3,3,2.2,5.4-1.5,8.5-2l.5,1Z"/>
      <path class="st3" d="M193,608c-1.9,1.7-3.5,2.7-5,4,.1-2.8.5-17.6,2.5-18,4.1-.9,2,11.5,2.5,14Z"/>
      <path class="st1" d="M925,483l-15.5,2c-7.3-.8-16,.9-23.1,0-1.8-.2-1.6.3-1.5-2h40Z"/>
      <path class="st1" d="M802,115c.4.4,3.6,1.1,4,4-5.3,1-10.7.6-16,1l-2-4c4.9,0,9.2-.5,14-1Z"/>
      <path class="st0" d="M255,483c-3.3,4.2-10.6.9-15.5.9s-13.2,3.6-15.5-1.4l31,.5Z"/>
      <path class="st3" d="M715,456h4c.4.3-1,1.6-1,2,8.7,2.6,8.1,3.2,15.2,8.3,1.5,1.1,2.8,1.3,2.8,3.7-4.5-1.6-17.7-6.8-18-12-2.7-.8-1.9-1.2-3-2Z"/>
      <path class="st3" d="M409,444c-2.8,2.7-5.5,10.3-11,10,2.4-6.3-.4-4.3-1-5-.8-1,6.8-4.1,7.9-4.6s3.5-2.4,4.1-.4h0Z"/>
      <path class="st5" d="M869,500h-19c-.2-3.2,2.2-2.9,4.5-3,3.5-.3,14.7-1.4,14.5,3Z"/>
      <rect class="st1" x="863" y="482" width="18" height="3"/>
      <path class="st0" d="M268,443c0,.1,1,1.1,1,2.4,0,5.2,0,10.4,0,15.6-.7,0-1.3,0-2,0,1.1-4.6-2.5-2.5-3-3-2.4-2.3,2.9-1.9,3-2,.6-.7-1.6-8.7-1.6-10.7,0-1.2.7-2,.7-2.3h2Z"/>
      <path class="st1" d="M758,187v5c-4.1-1-8.4-.5-12.5-1-1.8-.2-1.6.3-1.5-2,3.2,1.4,4.2-1.9,4.7-2,2.6-.6,6.5.4,9.3,0h0Z"/>
      <path class="st5" d="M282,486h-14.5l-10.5-2c7.2-1.2,14.3-1,21.5,0,1.5.2,3.1.1,3.5,2h0Z"/>
      <path class="st6" d="M584,354c.8,2.5,2.3,4.7-2,5,.5-5.8-7-7.6-6-14,3.6,3.2,6.1,2.7,8,9Z"/>
      <path class="st3" d="M678,428c.1,0,1.2-1.6,1.9-1,.2.2.4,2.1,1.5,3,2.9,2.5,10.5,4.4,10.6,10-4.9-3-11.6-6.7-14-12Z"/>
      <rect class="st5" x="879" y="497" width="22" height="2"/>
      <path class="st5" d="M629,295c-3.2,2.5-7.8,2.4-11.4,4.1-2,.9-2.9,2.5-3.6,2.9-.8.5-1,.6-2,1-.7-7.2.6-4,5-5.4,6-1.9,5.1-3.7,12-2.6Z"/>
      <path class="st3" d="M633,296c-6.1,2.6-12.4,5.1-19,6,.7-.4,1.6-2,3.6-2.9,3.6-1.7,8.2-1.6,11.4-4.1.3,0,.7,0,1,0,1.2.1,2.3.9,3,1Z"/>
      <path class="st0" d="M761,241c-.5-2.2-2-4.5-.5-7,.3-.6,8.3-5.7,7.5-1-2.4,2.6-5.4,4.9-7,8Z"/>
      <path class="st3" d="M501,325v3c-1,0-2,0-3,0l-.5-1-.5,1c-1.7,0-3.3,0-5,0-.4,0-1.2-.8-2.4-.8-2.2,0-5,1.5-7.6.8,0-.9.9-1.5,1.7-1.8,3.3-.9,12.9-.8,17.3-1.2Z"/>
      <path class="st0" d="M858,483c1.7,1.3-.1,1.8-1.5,2-4.4.5-9.1.8-13.5,1v-3h15,0Z"/>
      <path class="st1" d="M759,79c2.8.4,5.8,1.9,6,5-2-.4-5.8,0-8,0l-1-5c.9,0,2.1-.1,3,0Z"/>
      <path class="st1" d="M787,101c2.3,2,3.8,3.9,5,5-1.7,1.7-4.1.7-6,1l-2-5c.4,0,1.8-1.5,3-1Z"/>
      <path class="st1" d="M446,409l-1-3c3.8-2.6,7.4-6.1,12-7.5-2.6,4.8-7.1,6.5-11,10.5Z"/>
      <rect class="st0" x="909" y="497" width="16" height="2"/>
      <path class="st3" d="M748,515c-6,0-5.6-7.7-6.5-12,1.8.9,7.2,11.3,6.5,12Z"/>
      <path class="st0" d="M761,174c2.3.4,13.2-.6,14,0,.2.1,0,1.4,0,2-4.6,0-9.8.8-14-1v-1h0Z"/>
      <path class="st3" d="M410,303c-1.9-.3-12.8.6-13-.5-.1-.8,0-1.7,0-2.5,1.6-.5.6,1.8,1.5,2,2.9.8,2.4-2,3.1-2.1.4,0,7.3.9,8.4,1.1.1.6-.2,1.8,0,2Z"/>
      <path class="st6" d="M633,428c1.3,1.2,3.5,2.1,4.7,3.3.5.5.2,1.5.3,1.7.8,1.1,1.7,3.5,0,4-1.2-1.7-5.6-5.8-5.8-6.2-.8-1.5.8-2.5.8-2.8Z"/>
      <path class="st6" d="M163,774c3.9,1.1,7.6.8,11.6,1,1.9,0,4-1,3.4,2-5.3,0-12.1-2-18-1,0-1.7,2.7-1.7,3-2Z"/>
      <path class="st1" d="M448,396c-1.8,1.6-4,3.9-6,5.4s-2.2.5-2-1.4c4.4-3.7,9.1-6.9,14-10-1.5,2.4-3.9,4.1-6,6Z"/>
      <path class="st1" d="M159,483c.2,1.5-2.6,1.8-3.6,1.9-3.1.3-6.3,0-9.4,0-1.6-1.2,0-1.8,1.5-2,3.6-.5,7.9.3,11.5,0h0Z"/>
      <path class="st4" d="M593,238l1,4c-1.7,0-3.3,0-5,0v-5c1.7-.8,3.4.9,4,1h0Z"/>
      <path class="st3" d="M469,387c.5.4-5.5,8.7-8,8-.6-.6,5.8-9.7,8-8Z"/>
      <path class="st1" d="M175,435v3l-8-.5,8-2.5Z"/>
      <path class="st0" d="M240,156c-1,0-3.6,2.4-6,0,.7-.9,1.3-2.1,2-3,2,0,3.2,1.3,4,3Z"/>
      <path class="st0" d="M457,388c.2-.1,5.6-3.2,4.5-1l-13.5,9c2.1-1.9,4.5-3.6,6-6,1-.6,1.7-1.3,3-2Z"/>
      <path class="st6" d="M625,440c-3.2,0-4-3.4-4-6,1.2,1.9,2.7,4,4,6Z"/>
      <path class="st3" d="M440,378c.5,3.9-.5,3.1-4,3,.3-3.1,1.1-2.1,4-3Z"/>
      <path class="st3" d="M694,441l.5-1c2.4-.5,1.1.9,1.5,2,1.8.9,4.5,2.9,4.8,3,2.1.8,3.9-1.7,3.2,3-1.2-.8-7.5-3.8-7.8-4.2-.5-.6,0-1.4-.2-1.8-.7-.3-1.3-.6-2-1Z"/>
      <path class="st3" d="M920,595c-1.7-1-3.1-2.2-4-4,1.8.8,4.6-.8,4,4Z"/>
      <path class="st0" d="M215,473v2c-6.2-.3-6-1.7,0-2Z"/>
      <path class="st1" d="M309,363c-.8,1-1.9.9-3,1-.4-4.2,2.7-1,3-1Z"/>
      <path class="st3" d="M674,426c2.4,0,3.5-.7,3,2-2.6-.1-2.2-1.5-3-2Z"/>
      <path class="st3" d="M934,600c2.1-.2,2.2-.1,2,2-3.6,0-1.4-1.6-2-2Z"/>
      <path class="st0" d="M196,456c0-1.3,0-2.7,0-4,1.5.3,1.6,3.6,0,4Z"/>
      <path class="st0" d="M805,236c-.7.3-1.3.7-2,1,0-1.7-.4-2.3,1.5-2l.5,1Z"/>
      <path class="st0" d="M435,863l-1-1c0,.3.9.6,1,1Z"/>
      <path class="st0" d="M249,461h-1l.5-1,.5,1Z"/>
      <path class="st1" d="M438.5,403c.6.3.6.7,0,1v-1Z"/>
      <path class="st0" d="M355,51c0,0,.3-.9,1-1l-1,1Z"/>
      <path class="st1" d="M459.5,396c1,.9-1.5,2.5-1.5,1.5l1.5-1.5Z"/>
      <path class="st0" d="M196,460c-.1-.2,0-.6,0-1l1,.5-1,.5Z"/>
      <path class="st1" d="M613,348l1-1c-.2,0-.7,1-1,1Z"/>
      <path class="st4" d="M744,324c1.5,40.1-1.3,80.5,0,120.5.2,4.5,2.3,8.6,0,13.4,82.2,47.5,163.9,95.9,246,143.5,1.7,1.9.2,14.8,0,18.5l-49-29c-.3-.4-.7-.7-1-1s-.6-.8-1-1c-.2-.1-.7.1-1,0l-1-1-177-111c-.9-.7-2-.7-3-1-10.5-8.4-22.7-14.7-34-22-4.6-3-9.5-6-14-9-19.7-13.1-40.1-27.6-59-42-4.3-3.3-7.3-5.9-12-9-.3-.2-.7-.7-1-1-.3-.4-.7-.6-1-1-2.8-3.8-15.8-14.8-20-17.5-1.6-1-1.9-2.1-4-.5-8-8.5-15.8-17.2-23-26.5,5,.3,8.5,4.3,12,7.5,18.2,16.8,31.8,29.7,52,44,8.6,6.1,17.3,12.1,26,18,4.3,2.9,8.6,6.1,13,9,4.2,2.8,8.7,5.3,13,8,.5.3,1.1,1.5,2.2,2.2,3.2,2,28.4,17.8,29.8,16.8-2.8-5.7.2-12.1.1-17.6,0-1.8-1.1-3.2-1.1-3.4.3-12.1,0-24,0-36,0-.2,1.1-1.5,1.1-3.4.2-22.8-1.1-46,.9-68.6,1.9.2,4-.2,6,0h0Z"/>
      <path class="st3" d="M872,179c.3-.2.6-.7,1-1l-1,1Z"/>
      <path class="st4" d="M379,178c1.1.8,1,3,4,3,0,4.7,4.9,7.4,5.8,11.7s-.1,9,.2,13.3c.5.6,7.8-3.3,9-4h12l3,1c1.9.7,5.5,1.1,7,2s13.3,10,11,12l-178-1c2.9-8.1,14.9-10.6,22.4-11,9-.4,29.8,3.9,35.1-6.9,3.1-6.5,1.9-11.4,7.5-18,2.2-2.6,6.6-5.4,9-8,2.8-.7,5-2.4,7-3,14.7-4.3,32.8.3,45,9Z"/>
      <path class="st5" d="M399,244c.1,2.3.3,1.8-1.5,2-4,.5-8.8-.2-13,0-2,.1-3.8,1-6,1-18.8.7-37.8-.2-56.5-1.1-.8-3.5,3.1-1.5,5.3-2,.8-.2.3-1.8,2.1-2.1,12.3-1.6,42.1-.9,55.1,0,4.9.4,9.4,2.8,14.5,2h0Z"/>
      <path class="st1" d="M466,175c-.6,3,1.5,1.9,3.5,2,4.8.2,9.7-.1,14.5,0l-2.5,3c-17.4,0-34.6-1.1-52-1-9.9,0-19.6.2-29.5,0l-3-2c19.9-.8,41.1-1.6,61-2,2.7,0,5.3,0,8,0h0Z"/>
      <path class="st6" d="M442,336c1.7-.8,4.6-.5,6-2.5v-41.5h4c-.5,2.2-1,4.1-1,6.5-.3,10.4.2,26.1,1,36.5.3,3.4,1.1,2.3,2,5-7.8,2.1-12.9,3.2-21,5l-3-3c5.2,1,8-.8,12.3-2.2,3.4-1.1,6.7.5,5.7-3.8h-6Z"/>
      <path class="st1" d="M398,202c.3-.2.8-2,2-2.5,2.9-1.3,32.1-.8,37.6-.6,4.6.2,9.5,1.9,14.5,1.1.2,2.6.1,1.7-1.5,2-7.4,1.4-15.5,1.2-23,1.1-2.9,0-8.6-3.4-7.5,2-1.5-.9-5.1-1.3-7-2-1.2-.5.8-1-3-1h-7c-.1-1.5-2.9-1.5-3,0h-2,0Z"/>
      <path class="st6" d="M478,330c1-3.3-1-8.3-1-10.5v-36.5c2.6-.4,1.8.4,2.3,2.2,1.5,5.3.5,11.3.7,16.8,0,1.3,0,2.7,0,4,.3,8,1.4,16,1,24h-3Z"/>
      <path class="st3" d="M478,330h3c0,.4-1.1,1.5-1,2,.3,1.1,2.2,1.1,3,2-9.2,1.2-20,3.5-29,6-.9-2.7-1.7-1.6-2-5,.6.1,1.5-.2,2,0,4.5,1.5,15.6-1.3,21.5-2,3-.4.3-1.1.5-3,.6,0,1.3,0,2,0Z"/>
      <path class="st6" d="M476,330c-.2,1.9,2.5,2.6-.5,3-5.9.7-17,3.5-21.5,2,6.9-3.1,14.5-4.4,22-5Z"/>
      <path class="st3" d="M397,177l3,2c-2.8,0-5.7-.2-8.5,0-2.6.2-6.8,2-8.5,2-3,0-2.9-2.2-4-3,5.4-2,12.2-.8,18-1Z"/>
      <path class="st5" d="M447,289c-.1,4.8-6.7,2.6-10,3v-3h10Z"/>
      <path class="st6" d="M440,337c-.5.2-1.2,1.7-2.6,1.8-.8,0-1.3-.8-1.4-.8l4-1Z"/>
      <path class="st4" d="M472,498c1.5,1.5-14.7,30.7-16.5,35-2,1.8-5.1.8-7.5,1l17-37,7,1Z"/>
      <path class="st4" d="M628,532c-1.6.6-8.3,1.7-9,1-.2-.2,0-3.5-.5-5-3.4-9.7-8.5-19.3-12.1-28.9-.5-2.3,5.7-4.5,6.5-1.4l15.1,34.4Z"/>
      <path class="st4" d="M476,477l12.2-28.3,2.8-2.7,2,3c-1.6,8.4-8.6,18.9-11.1,27.4-2.6,3.6-4.8.6-5.9.6h0Z"/>
      <path class="st4" d="M600,465c.6,1.5,4.4,11.5,4,12-2.6,1.4-5.5,0-7,0-.1-.6.2-1.5,0-2l-1-2c0-.3,0-.7,0-1v-2c-1.1-3.6-8.1-18.5-6.5-21,1.2-1.5,2.8-1.5,4,0,.5.7,5.6,13.7,6.5,16h0Z"/>
      <path class="st4" d="M506,414c-.8,1.9-1.4,3.4-2,5-1.3,3.2-5.6,15.1-7.6,15.9-2.9,1.1-2.6-.9-2.4-2.9,2.1-6.4,5.6-12.7,8-19l4,1Z"/>
      <path class="st6" d="M512,330c3.8-.1,6.9,1.3,8.5-3,.9,0-.8,4.2,4.9,4,.8,0,1.4-1,1.6-1,2.2,0,8.9.5,10,0-3.2.4-7.1,1.6-10.5,2-4.5.5-9.1-2-11,3l-2.7-3.7c-4.5-2.2-2.8,4.1-4,5.5-.4.5-1.7,0-1.8.1.7-2.7-5-3.7-6.6-3.9-4.9-.6-12.4.3-17.4.9-.8-.9-2.7-.9-3-2,1.6-.2,4.5.6,5.8-.3.2-.1.2-3.3,2.2-1.7.1.1-.3,2,.6,2,.8,0,1.3-1.1,1.4-1.1,7.3-.4,14.6-.7,22-1h0Z"/>
      <path class="st0" d="M348,467c-.3.3-.8.7-1,1-3.9.7-8.9,3-12.3,5-.9.5-.6,2-.7,2-.5.3-3.1,0-4,1,.3-.5.7-3.6,2-5,1.6-1,3.4-2,5-3,3.5,3,9.7-8.8,11-1Z"/>
      <path class="st6" d="M374,358c-.7-5.4,2.3-2.2,4.5-2.1.5,0,.4-1.5,1.2-1.8,2-.6,13.7-3.5,14.2-3.1.2.2-.2,1.6,0,2-5.8,2.9-13.5,3.7-20,5h0Z"/>
      <path class="st3" d="M414,419c-5.3,4.8-5,3.7-11,7,2.8-3,7.1-6,11-7Z"/>
      <path class="st6" d="M288,598c.3,3.2.2,3.3-3,3,1-1,2-2,3-3Z"/>
      <path class="st6" d="M289,597l1-1c-.3.3-.7.7-1,1Z"/>
      <path class="st6" d="M294,592l2-2c-.7.7-1.3,1.3-2,2Z"/>
      <path class="st4" d="M552,340c6.1,5.7,12.3,21.1,15.3,29.2,3,8.1,9,24.6,10.5,32.5.7,3.6.7,6-3.2,3.2-5.9-20.3-9.8-38.4-20.5-57-1.3-2.2-3.2-5.8-4.7-7.8-.9-1.1-1.6-2.2-3.3-2.2,0-2.4,5.8,1.8,6,2Z"/>
      <path class="st4" d="M581,411c0,4.2,7.9,18.2,6.5,21-.5,1.1-1.8,1.9-3,2-2.1.3-1.4-.7-2-2-.9-2.4-5.7-18.1-5.6-19.4,0-.8,3.7-1.9,4-1.6h0Z"/>
      <path class="st4" d="M519,341c2.3,8,2,14.4,1,22.5-.2,1.4-.7,3.2-2,1.5,1-9.7,1.2-18.4-1-28,1.6.6,1.6,2.6,2,4h0Z"/>
      <path class="st4" d="M504,403c1.4-3.2,2.2-11.1,6-8.5-.4,2.9-1.4,5.7-2,8.5-.7,3,1.6,3.4-4,3v-3Z"/>
      <path class="st4" d="M516,378c.5.5-3.4,12.7-3.9,13.4-.8,1.1-2,.5-3.1.6,1.6-2.7,2.8-11.8,3.9-13.4.6-.9,2.8-.8,3.1-.6Z"/>
      <path class="st6" d="M506,414l-4-1c.2-.4-.3-1.4,0-2.2.5-1.4,1.9.4,2-4.8,5.6.4,3.3,0,4-3,1.1,1.2,1.3,2.9,1,4.4-.1.6-2.4,5-3,6.6Z"/>
      <path class="st4" d="M518,368c0,3.5.9,7.4-3,9,.3-3-1.7-8.9,3-9Z"/>
      <path class="st3" d="M597,475c0-.2-.7-.7-1-2l1,2Z"/>
      <path class="st3" d="M596,472c-.4-1.8,0-1.9,0-2v2Z"/>
      <path class="st3" d="M504,404c-1.1-.6-.1-.7,0-1v1Z"/>
      <path class="st5" d="M797,354c.2.2,1.8-.5,2,.6,1.2,4.7-1.8,6.1-6,5.4.4-.6-.2-3.8,0-5,1-.1,2.5-1.4,4-1Z"/>
      <path class="st3" d="M798,351c-.3.9-3.5.6-1,3-1.5-.4-3,.9-4,1-3.7.5-4.1-2.9-3-4,.3-.4,6.5.2,8,0Z"/>
      <path class="st5" d="M862,346c2.5-2.4,7.6-3.2,7,1.5l-7,.5c0-.4,0-1.9,0-2Z"/>
      <path class="st5" d="M863,358c1.1-2.7.8-2.9,5-3,.5,5.6.4,5.3-5,5,.2-.5-.2-1.5,0-2Z"/>
      <path class="st3" d="M538,328c-.6,0-1.4-1.3-3,0l1-4,3,4c-.3,0-.7,0-1,0Z"/>
      <path class="st3" d="M699,502c-.4-.3-.7-.7-1-1,.3.3.8.6,1,1Z"/>
      <path class="st3" d="M697,500c-.3-.3-.7-.6-1-1l1,1Z"/>
      <path class="st0" d="M880,425c.6,10,.7,19.5,0,29.4-7.1,3.2-5.2-7.6-1-8.9-1.9-2.7-3.1-2.5-6-1.5,0-2.4.3-18.3,1-19,.3-.3,4.8.2,6,0h0Z"/>
      <path class="st0" d="M892,385c-1.8.2-5.5-.4-6.5-2-.8-1.3.2-6.5.7-6.9.7-.6,4.7-.3,5.5.8,1.1,1.6.2,6,.4,8.1h0Z"/>
      <path class="st0" d="M879.8,378.1c.7.4,1.5,5.5,1.2,5.9l-9,1c-2.2-5.6,3.7-9.4,7.8-6.9Z"/>
      <path class="st0" d="M886,400c11.3-2.2,4.8,14.3.5,8-1.1-1.7-.2-5.9-.5-8Z"/>
      <path class="st0" d="M843.9,400.1c1.4,1.6.6,11.5-4.9,8.9l-1-10c.2-.2,5.7.9,5.9,1.1h0Z"/>
      <path class="st0" d="M867.9,408.9c-.2.2-4.8.2-4.9,0-.3-.3-.4-6.7-1-8l6.6,1c.5.7-.4,6.7-.6,7h0Z"/>
      <path class="st0" d="M844,385h-5v-9c6.7-1,4.9,4.2,5,9h0Z"/>
      <rect class="st0" x="863" y="378" width="6" height="7"/>
      <rect class="st0" x="885" y="425" width="6" height="7"/>
      <path class="st5" d="M910.5,377c3.7-1.1,6,6.9,2.9,7.9-5.8,1.9-5.4-7.1-2.9-7.9Z"/>
      <path class="st0" d="M915,401c0,4.7,1.2,8.9-5,8v-8h5Z"/>
      <path class="st0" d="M881,391c.9,6.2-3.3,5.1-8,5v-5h8Z"/>
      <path class="st0" d="M904,397h-7c-1.2-8.5,8.4-8.5,7,0Z"/>
      <path class="st0" d="M830,376c2.3.3,3.2-1.4,4,1.5,1.1,3.9,2.1,9.6-4,6.5,0-2.7,0-5.3,0-8Z"/>
      <rect class="st0" x="898" y="414" width="6" height="6"/>
      <path class="st0" d="M880,402v6h-6c-.6-5.3.7-6.6,6-6h0Z"/>
      <path class="st0" d="M868,431h-5c-1.3-9.6,6.3-9.6,5,0Z"/>
      <path class="st5" d="M880,355v5c-9.6,1.5-9-6.7,0-5Z"/>
      <path class="st0" d="M873,372v-4c1.9,1.7,8.4-1.1,9,1.5.7,3.5-7.3,2.4-9,2.5h0Z"/>
      <path class="st5" d="M892,355c.1.1.1,3.8,0,4-.2.2-5.6.2-7,1v-5c1.3.2,6.7-.3,7,0Z"/>
      <path class="st0" d="M899.5,402c3.3-1,6.5,4.8,2.9,5.9-5.2,1.6-5.6-5.1-2.9-5.9Z"/>
      <rect class="st0" x="839" y="390" width="5" height="6"/>
      <path class="st5" d="M903,378v6h-5c-.4-4.4,0-6.7,5-6h0Z"/>
      <path class="st0" d="M903,349h-6v-5c4.4-.4,6.7,0,6,5h0Z"/>
      <path class="st5" d="M915,430h-6v-5c4.4-.4,6.7,0,6,5h0Z"/>
      <path class="st0" d="M915,396h-6v-5c3.1-.1,6.8,1.3,6,5Z"/>
      <path class="st0" d="M881,348h-9v-3c3.1.3,9-1.6,9,3Z"/>
      <path class="st5" d="M902,425c.2.2.9,5,1,6h-5c-.6-2.4,1.2-8.2,4-6Z"/>
      <path class="st0" d="M892,349c-.5.4-8.1-.1-7-2.5,2-4.1,9.6,0,7,2.5Z"/>
      <path class="st0" d="M892,372c-.3.3-4.8-.2-6,0v-4c2.6-1.4,8.3,1.8,6,4Z"/>
      <path class="st0" d="M869,391v4c-3.3.4-7.5,0-5.5-4h5.5Z"/>
      <path class="st0" d="M915,419c-1.7,1.6-8.4-1.6-6-4,1.7-1.6,8.4,1.6,6,4Z"/>
      <path class="st0" d="M840.4,418.4c-.6.6,0,1.9-1.4,1.6.2-1.4-.4-6.6,0-7,.6-.6,3.7.2,4,1.5.7,2.5-1.4,2.7-2.6,3.9h0Z"/>
      <rect class="st0" x="898" y="368" width="5" height="4"/>
      <rect class="st0" x="887" y="448" width="4" height="5"/>
      <path class="st5" d="M912.9,355.1c.4.2,1.4,4.6,1.1,4.9h-4c-.4-2.6-.4-7,2.9-4.9h0Z"/>
      <path class="st0" d="M902,448v6c-6.2,1.8-1.9-8.2,0-6Z"/>
      <path class="st5" d="M892,441c-2.7.2-6.2.5-6-3,2.7-.2,6.2-.5,6,3Z"/>
      <path class="st5" d="M903,356c2.1,2.1-1.9,6.1-4,4s1.9-6.1,4-4Z"/>
      <rect class="st5" x="899" y="437" width="5" height="3"/>
      <path class="st1" d="M465,152c4.8,0,9.9.2,15,0,.7,0,1.3,0,2,0,.1,3.5.6,2.8-2.5,3-17,1.3-39.2,2.3-56.1,1-3.1-.2-2.6.5-2.5-3,14.6.3,29.3-1,44-1h0Z"/>
      <path class="st1" d="M739,151c1.6,2.9-3.2,4-5.5,4h-48.5c-.1-2.3-.3-1.8,1.5-2,8.3-1.1,19.3.4,28.1,0,1.9,0,4,1,3.5-2h21Z"/>
      <path class="st0" d="M738,324c-2,22.6-.8,45.8-.9,68.6,0,1.8-1.1,3.2-1.1,3.4-7.1,2.1-5-10-10.5-10h-17c-.3,0-6-1.1-6.3-1.2-.8-.5-3.3-6.6-7.2-5.8,0-.6-.2-1.5,0-2,.4-1.1,3.2-3.2,3.8-5.7.8-3.6-.8-12.5-2.7-15.6-1.2-2-10.1-5.8-9.8-11,.3-6.7,7.8-8.7,8.8-10.4,1.1-2,.8-7.9,1-8.2,1.6-1.8,34.8-3.4,39.5-3.1,1.3,0,2.2,1,2.4,1h0Z"/>
      <path class="st0" d="M736,432c0,.2,1.1,1.6,1.1,3.4,0,5.5-3,11.9-.1,17.6-1.3,1.1-26.6-14.8-29.8-16.8-1.1-.7-1.8-1.9-2.2-2.2,2.4-3,4.8,2.8,5.7,3,.7.2,8.9,1,9.7,1,6.1-.6,9.1-7.6,15.6-6h0Z"/>
      <path class="st0" d="M723,454c.4,2.9-.8,2.3-2.7,1.2-3.2-1.8-6-4.7-10-5.5l-1.3-4.7c4.5,3,9.4,6,14,9h0Z"/>
      <path class="st3" d="M940,590l-1-1c.4.2.7.7,1,1Z"/>
      <path class="st3" d="M938,589c-.4-.2-.8-.6-1-1l1,1Z"/>
      <path class="st3" d="M637,393c-.3-.3-.7-.6-1-1,.3.4.7.6,1,1Z"/>
      <path class="st1" d="M898,176c2.2.8-1.5,2.3-2,2.5-2.4,1.2-4.8,2.6-7.2,3.8-.8.4-3.5,2.3-3.9.6,4.7-2.9,8.9-4.6,13-7h0Z"/>
      <path class="st3" d="M637,295l2-4c1.8-.4.6,1.7,1,2,2,1.7,2-1.8,2.5-1.9s1.7.9,2.5.9c-2.2,1.7-5.3,2.4-8,3Z"/>
      <path class="st3" d="M636,295c-.3.9-1.1,1-2,1,.3-1,1.2-.9,2-1Z"/>
      <path class="st0" d="M480,152c-5.1.2-10.2,0-15,0,3.7-1.7,11.1-1.7,15,0Z"/>
      <path class="st3" d="M695,377c-.2.5,0,1.4,0,2-.8,10.8,4.7,24.8,4,36-1.6-1.3-4.3-5.9-4.8-7.7-1.2-4.9-2.9-18.4-3.2-23.8-.1-1.8-.3-5.5,0-7,.2-1.1,2.9,1.1,4,.5h0Z"/>
      <path class="st0" d="M788,116l2,4c-6.3.5-13.8,1.8-20,3-1.1.2-2.2.9-3,1,.5-3.8-1.5-.9-3.4-1.2-1.1-.2-1.4-1.7-1.6-1.8,6.1-2.3,2.1-3.1-2-5,8.7,0,18.6,0,28,0Z"/>
      <path class="st1" d="M760,116c4.1,1.9,8.1,2.7,2,5-.3-.1-1.4,0-2,0,.6-3.2-1.6-1.7-3.5-1.9-8.5-1.1-15.9-.4-24-1-3.1-.2-2.6.5-2.5-3,10,0,20,.9,30,1h0Z"/>
      <path class="st6" d="M770,123c2,.8,4.1,1.5,4,4-.4,0-1.8,1.6-2.5,2-.9-.7,1-2.4.5-3-.3-.3-8.5-2-9-2,1.3-.1,2.8.2,4,0,.8-.1,1.9-.8,3-1Z"/>
      <path class="st0" d="M756,79l1,5c-102.6,3.5-205.7,2.4-308.5,2-41.3-.1-82.9.4-124.5,0l1-5c-2.8-.4-6.8,1.4-6-2,24.7,4.2,56.1,0,81.5,0,118.3-.3,237.4,4,355.5,0Z"/>
      <path class="st0" d="M315,78l-1-.5,1-.5c0,.3-.1.9,0,1Z"/>
      <path class="st1" d="M594,57c-.6,3,1.5,1.9,3.5,2,6.2.2,13.2,1,19,1h35c1.7,0,6.2,1.9,8.8,1.2l.7.8c-65.5-.5-131,1.4-196.5,1-19-.1-38.3-1.6-57.5-1l-1-4c4.6,0,9.4,0,14,0-.6,3,1.5,1.9,3.5,2,9.2.4,20.9.6,30.1,0,1.6,0,7.2-.1,6.5-3,44.6-.2,89.3,0,134,0h0Z"/>
      <path class="st1" d="M623,46c.5,2.3-.2,2.7-2,3.7v1.3c-60.3.5-120.7,0-181,0,.7-5.2-.5-3.1-4-5,62.3-.3,124.7.2,187,0ZM443.5,47v1c.6-.3.6-.7,0-1Z"/>
      <path class="st0" d="M460,57c.7,2.9-4.8,2.9-6.5,3-9.1.6-20.8.3-30.1,0-1.9,0-4,1-3.5-2,13.1-.1,26.7-.9,40-1h0Z"/>
      <path class="st6" d="M789,507c3.4.8,1.5,1.6,2,2,.2.2,3.4,1.1,5,2l-.6.8c-4,.6-3.9-2.2-4.4-2.8-.1-.1-1.3.2-1.8-.2-.6-.6,0-1.5-.2-1.8-4.7-1.1-12.7-5.7-13.8-10.7-.4-1.6.8-1.2.8-1.3,7.3,2.1,9.4,6.2,13,12Z"/>
      <path class="st6" d="M341,492c-15.5,13.9-33.4,27-50,40-.2-3.5.3-7,0-10.5-.4-3.8-4.2-4.6,1.5-8.5l2,2c8.7-9.5,21.2-14.3,31-23,1.7-1.5,7.6-8.7,8.1-8.9,7.5-2.6,8.1,2.8,7.3,8.8h0Z"/>
      <path class="st6" d="M146,651c-.2.3-.1,1.6-.9,2.5-2.4,2.7-6.1,6-10.1,5.5,3.2-3.1,6.8-6.3,11-8Z"/>
      <path class="st6" d="M368,474l.8.6c-.6,5.8-1.5,10.4-3.8,2.4.9-.9,1.8-1.9,3-3Z"/>
      <path class="st6" d="M266,559l-5.1,5.4c-2.4,2.2-6.9,4.2-8.9,5.6,3.2-5,9.7-7.7,14-11Z"/>
      <path class="st6" d="M236,582c-2.3,1.8-4.9,4.9-7.4,6.6s-6.9,3.7-9.6,5.4c5.3-4.2,10.9-9.2,17-12Z"/>
      <path class="st6" d="M150,648c-.5.8,1.3,2.8-3,2,.9-1.2,1.1-2.1,3-2Z"/>
      <path class="st6" d="M194,615c.3-.3.6-.7,1-1l-1,1Z"/>
      <path class="st6" d="M216,597c.4-.3.6-.7,1-1l-1,1Z"/>
      <path class="st1" d="M823,376v8c-8,1.2-5.7-1.6-7-8h7Z"/>
      <path class="st1" d="M816.1,406.9c-.7-.8.2-6.2-.1-7.9,5.5-1.9,8,4,5.5,8-.8,1.4-5.1.1-5.4-.2h0Z"/>
      <path class="st1" d="M823,394h-7c-.8-7.2,8.1-7.1,7,0Z"/>
      <path class="st0" d="M804,424h6c.6,2-.7,3.5-1,5-5.9,2.3-4.6-.7-5-5Z"/>
      <path class="st0" d="M805,400c6-1.1,4.5,2.7,3,7-4.2,0-2.8-4.2-3-7Z"/>
      <path class="st0" d="M810,383h-4c-.3-1.4.4-6.5,0-7,4.7-.6,4.4,3.4,4,7Z"/>
      <path class="st1" d="M822,418h-5v-5c4.2-.5,5.5.8,5,5h0Z"/>
      <path class="st0" d="M806,413h4v4h-5c0-.3-1.5-1.6-1.1-3.4.3-1,2-.5,2.1-.6h0Z"/>
      <path class="st0" d="M806,389c4.3.5,3,2.3,2,5-2.6.2-5.8-2.2-3.8-4.9.3-.4,1.6,0,1.8-.1Z"/>
      <path class="st0" d="M806,366c1.3,0,2.7,0,4,0,.7,1.7-.7,2.3-1,3h-6c-.3-3.8,0-2.9,3-3Z"/>
      <path class="st1" d="M822,369c-.2.2-6.9.9-6-1.5,2-5.2,8.3-.8,6,1.5Z"/>
      <path class="st1" d="M630,36l-24.5,2-3.5,2c-39.3.2-78.8.8-118,1,.9-2.6-4.3-2.8-5.6-2.9-6.8-.6-14.1,1.1-20.4-2.1,56.9.3,115.2,1.4,172,0Z"/>
      <path class="st4" d="M531,18c-1.1,3,4.9,3.2,4,0,14-.2,28.1.5,42,0l-2,6c-16.1-.3-31.8-.2-48,0l1-6h3Z"/>
      <path class="st1" d="M453,36c-3.6,1.7-10.6,1.7-14,0,4.6,0,9.4,0,14,0Z"/>
      <path class="st0" d="M696,39c-1.7,1.8-2.9.7-4.7.2-14.1-3.9-18.4,0-31.8.8-18.4,1.1-38.9-.1-57.5,0l3.5-2,24.5-2c5.3-.1,40.8-1.3,41.9-3.1,1.1-1.8.3-3.3-1.9-2.4l1-2.5c-4.9-.4-10.6-3-15.5-3-9.1,0-21.2,4.4-30.9,5.1-43.2,2.9-91.9,0-136,1-16.2.4-32.3.4-48.5,1l1-3c-4.5.2-9.1-1.7-13.5-2-6.4-.5-15.2-.8-21.5,0,4.8-2,12.2-6.6,17.1-7.6,1.4-.3,1.3.3,1.9.6,7.5,3,9.2,1.2,16.5,2,30.9,3.2,54.9,2.4,85.5,2,16.2-.2,31.9-.3,48,0,17.4.3,46.6,3.5,62.6-3.9,2.2-1,2.7-1.5,2.4-4.1,16,2.9,41.2,15.3,56,23h0Z"/>
      <path class="st0" d="M799.9,406.9c-.2.2-5.7.8-6.9,1v-8c1.7.1,4.7-.5,6.1.4,1.2.8,1.3,6,.9,6.5Z"/>
      <rect class="st0" x="793" y="377" width="6" height="7"/>
      <path class="st0" d="M801,439c-.6,0-1.8,1-3,1-13.4.5-1.3-10.6,3-1Z"/>
      <path class="st0" d="M794,428c-.9-.9-.9-5.2,3.4-3.9,4.6,1.5-1.6,5.7-3.4,3.9Z"/>
      <path class="st5" d="M794,418c-.3-.3-1.2-6.4,2.5-5,4,1.5-.5,7-2.5,5Z"/>
      <path class="st6" d="M899,628l-1-1c.7.1.9,1,1,1Z"/>
      <path class="st6" d="M878,611c-.4-.3-1.7-.9-3-2l3,2Z"/>
      <path class="st5" d="M535,18c.9,3.2-5.1,3-4,0,1.3,0,2.7,0,4,0Z"/>
      <path class="st0" d="M422,873"/>
      <path class="st6" d="M347,468c-.5.8-.5,2.7-2,4.5s-6.7,6.8-8.5,7.5c-3.6,1.4,2.1-6.2-2.5-5,0,0-.2-1.5.7-2,3.4-2,8.4-4.3,12.3-5Z"/>
      <path class="st4" d="M497,328c.3,0,.7,0,1,0,1,0,2,0,3,0,.2,0,1.1,1,2.5,1.1,3,.2,6.2-1.8,8.5.9-7.4.3-14.7.6-22,1,1.2-.8,2.4-1.3,2-3,1.7,0,3.3,0,5,0Z"/>
      <path class="st6" d="M388.5,451c.6.3.6.7,0,1v-1Z"/>
      <path class="st3" d="M534,326c1.9,2.1-3.5,3.4-5,2-2.3-2.1,4.8-2.2,5-2Z"/>
      <path class="st0" d="M498,328c-.3,0-.7,0-1,0l.5-1,.5,1Z"/>
      <path class="st0" d="M413,203l-3-1c3.8,0,1.8.5,3,1Z"/>
      <path class="st0" d="M403,202h-3c.1-1.5,2.9-1.5,3,0Z"/>
      <path class="st0" d="M443.5,47c.6.3.6.7,0,1v-1Z"/>
    </g>
    <g>
      <path class="st6" d="M84,777v-28.5c60-50.3,119.6-100.9,178-153,50.9-45.3,101-91.2,149-140,22.6-22.9,50.2-49.3,68.8-75.2,5.4-7.5,10.6-15.3,14.1-23.8l-37,31.5c.2-.1,5.6-3.2,4.5-1l-13.5,9c-1.8,1.6-4,3.9-6,5.4-2.1,1.5-2.2.5-2-1.4-2.1,1.7-3.5,3.5-5,4,.7,1.2,1.8,2.9.4,4.1-2.9,2.5-8.5,5.8-11.9,7.9-5.3,7.9-15.4,10.2-22.5,16-6,4.9-6.5,6.4-14,11-6.4,3.9-16.1,11.1-22,16-1.6,1.3-1.7,3.3-3.1,4.4-4,3.3-16.8,11-18.8,14.2-2.5,4-.2,6.6.9,10.4,1.3-1.9,32-24,37-28,.7-.6,1.8-.8,2-1,3.6-3.2,2.4-4.8,3-8.5.9-5,3.3-.9,4.7-.7,1.1.2,10.1-6.5,11.8-7.9,6.1-5.1,13.8-12.3,18-19,.8.5,1.1,1.2,1.5,2l6-8.6c1.9-1.1,2.9,1.9,5,1.6.2-6,7.6-9,12-12,3.8-2.6,7.4-6.1,12-7.5-2.6,4.8-7.1,6.5-11,10.5-7.4,7.5-14.4,14.7-22,22-4.7,4.5-10.8,8.8-15,13-2.8,2.7-5.5,10.3-11,10-1,2.5-5.2,6.3-7.5,8.1-1.5,1.1-3.4.8-3.5.9-.1.1.3,1.9-.5,3-6.5,8.8-14,12.5-21.2,19.3-4.1,4-19.4,22.2-22.9,23.6-2.8,1.2-1-7.8-1.5-9-.1,0-.6-1-1.3-.8-3.1.6-3.5,4.4-3.7,6.8-.2,2.4.4,5.2,0,7.5-1.1,5.6-20.3,18.2-25.5,22.5-7.5,6.3-14.3,13.8-22,20,.1-3.7-1.5-8.1-1.6-11.5,0-1.8,1.3-1.7,2.1-2.5-3.3-.3-4.5,3-6,4,1.8,3.6,1.7,11.9-.5,15-6,3.2-24.3,22.8-29.1,23.7-.8.1-2.2-.8-2.3-.7-.4.6.3,5.5-3.5,7-2.1.8-1.4-1.4-1.5-2.5-.4-5.2.2-10.6,2-15.5-2.8,2-5.3,3.9-8,6,1,3.9,3,12.3,1.1,15.6l-49.6,43.4c-2.3.4-1.4-1-1.5-2.5-.3-4.2-.6-12.1,0-16.1.2-1.8,2.3-1.4,2.1-3.4-3,2.3-6.1,4.8-9,7,2.9,6.3,2.5,14.1.7,20.7-17.7,13.9-34.3,29.3-52.7,42.3-.3-6.8-1.8-13.6-.9-20.4.7-5.1,2.7-2.8,3.7-3.8.6-.5,0-1.7.2-1.8-4.2,1.1-7.8,4.9-11,7,2.7,0,2.8,1.2,3.1,3.5.3,2.9.4,16.5-.6,18.5l-40,33c-.6-9.3-.7-18.7-1.5-28-.4-4.7-1.9-4.2-1.9-4.4.4-8.8,1.9-5.6,7.2-8.7,10.4-6.1,20.8-14.7,31.8-21.2,11.5-6.8,15.7-11.1,26-19,9.4-7.2,20.2-15.3,30.2-21.6,3.6-2.3,2.2-.4,5.4-1.7,3-1.3,4.5-4.6,5.3-5.3.1-2.8.5-17.6,2.5-18,4.1-.9,2,11.5,2.5,14,14.6-13,29.9-25.2,46.1-36.4,16.5-11.5,33-25.1,48.9-37.6-1.2-5.1-.7-10.3-1-15.5-.2-3-1.7-1.3-3-.5-2,7-26.4,20.6-33,25-5.4,3.7-9.8,7.1-15,11-9.4,7-16.9,12.8-27,19-.8.5-1.7,2.3-4,3.5-1.9,1.1-13,6.4-14,5.5.7-4.3,4.9-6.9,7.4-10.1,3.9-5,1.1-4.6,8.6-8.9,9.8-5.6,19.2-11.5,29-17,5.6-3.1,8.6-3.4,14-8,12.4-10.6,22.3-13.5,34-22,2.4-1.7,6.9-6.5,8-9l2,2,1-4.3,5.1-4.7c-3.2,1.8-11,3.3-15,6.5-2.3,1.9-3.1,4.9-5.1,6.9-5,4.9-16.1,9-22.3,13.7-1.1.9-1.6,2.7-1.7,2.7-.2.1-2.6-1-4.2-.8-5.8.5-15.2,12.5-20.7,16.4-9.5,6.9-20.9,11.7-30.9,17.2-12.2,6.7-23.7,18.5-35.1,26.8-3.5,2.5-20.9,14.8-23.4,15.6-.6.2-.3-1.8-1.1-2-5.8-1.5-9.6,5.6-13.4,8.5-3.8,2.8-41.2,28.5-42.9,26.6,0-6,.2-12,0-18,0-.6-.9-2-1-3.5-.2-4.1-1-13.8,1.6-16.4l246.4-138.1-43-1,1-63c6.4.5,46.6-6.4,49-4,.3.3-.3,4.8,0,6.3.2.8,1.8.3,2.1,2.1,1,7.5-.5,18-.1,26.1.4,8.6,1.9,17.8,2,26.5,7-4.2,12.9-8.6,19-13l.9-52.6c6.4.6,47.6-6.4,50-4.3.4.4.2,2.7.8,3.7.7,1.2,2.1,1.2,2.3,1.9,1.1,5.1-.8,13.7,0,19.3,7.5-5,14.2-11.1,21-16v-6c0-2.2-.2-4.8,0-7,.3-3.1,1.1-2.1,4-3,8.5-2.6,18.3-2.9,27-5,.3-.2,1.6-.3,2.5-1,12.4-9.8,25.2-20,33.5-33.5-1.3-.9-3.8-1.4-5.4-1.4-22,.5-44,10.7-65.4,15.6-51.9,11.9-104.9,19.4-157.7,26.3l-131,11c-.9,0-.8-4.2-.4-4.9,1.2-1.9,34.6-2.7,39.9-3.1.9-5.8,3.8-2.8,6.5-3,1.5-.1,2.6-1.8,4.1-1.9,6.3-.6,12.2.9,17.4,1,2.3,0,4.7,0,7,0-.6-6.6,11.8-3.6,16.5-4,7.6-.6,15.3-2.2,23-2.4l15.5,1.4c23.3-2.7,46.9-5.2,70-9l1.7-5c23.3-2.1,45-11.5,68.3-13l-1,3c5.4-.2,1.6-1,2.5-3,1.1-2.5,7.2-2.9,9.7-3.2l8.8-4.7c-5.6.8-11.3,2.4-17,3l-.9-38.4c-.2-.8-4-1.4-5.1-1.6.1.6-.2,1.8,0,2,.1.1,2.4-.5,2.1,1.4-1.3,5.6,3.1,36,0,38.1l-68.1,12.4-1.1-37.4c-.9-2.8-6.4-1.4-8.9-1.6.1,1.9,2.9.6,4.6,1.9.8.6,1.2,1.6,1.4,2.6l.9,36.4c-9.3.2-23.2,7.1-31.9,6.1-.8,1-1.9.9-3,1-1,.1-2.2-.2-3,0-8.8,1.9-16.8,4.1-26,5-1.3.1-2.7,0-4,0,.5-10-.7-20.6,0-30.5.2-3,4-8.6-1.5-7.5-3,.6-.8,31.3-1.7,35.9-4.5,2.1-9.6.7-14.4,1.1-9.9,1-20,2.5-30,3-1.6,0-8.6.4-8.6-1.5v-26c0-.3,1.4-1.4,1-2.5h-6c4.1,9.4,1.1,20.8,2,31l-71,8c.7-18.3,4.8-36,8.7-53.8,10.1-46,26.1-82.9,50.3-123.2,1.1-1.8,2.4-3.1,3-4,1.4-2.3,2.4-4.5,4-7,2.7-4.3,5.4-8,8-12,1-1.6,1.8-3.2,3-5,2.1-3.1,3.7-5.8,6-9,.4-.6.6-1.4,1-2,2.4-3.3,5-5.5,7-8,.7-.9,1.3-2.1,2-3,1.1-1.4,2.4-2.3,3-3,1.2-1.6,5.9-6.6,6-7,.3-.9-.5-3.2.1-3.9.5-.5,2.5.1,2.9,0,.6-.3,2.6-7.9,6-6,.1-2.6,3.1-7.3,6-7,0-4.2,3.9-5.7,6-8,1.1-1.2,2-2,3-3,3-3.2,4.7-4.9,8-8,2.9-2.7,5.2-4.5,8-7,2.5-2.2,4.4-3.8,7-6,1.4-1.1,2.3-1.5,3-2,.1,0,.1-1.7,1-2.4,1.9-1.5,3.6-2.9,6-3.6,4-3.7,8.7-7,13-10,2.1-1.4,5-2.7,7-4,3.1-2,5.8-4.1,9-6,2.3-1.4,5.2-4.5,8-5l9.7-7.8c1.6-1.3,3.5-1.6,5.3-2.2.3,0,.7,0,1,0,0,0,.3-.9,1-1,.3,0,.7,0,1,0,4.1-2,8.1-6.1,12-8,3.3-1.6,11.4-4.1,15-4-3.2-4.8,3.6-4,6-5,5.4-2.2,9.9-5.2,16-6,4.8-2,12.2-6.6,17.1-7.6,1.4-.3,1.3.3,1.9.6,4.8-3,10-3.4,15-5,8.2-2.7,13.3-4.3,22-6,8.7-1.7,16-2.7,25-3-.6-2.7,1.4-2,3.1-2.3,3.2-.6,6.5-.8,9.7-1.4,1.8-.4,3.7.3,3.1-2.4H0v777h84ZM438.5,404v-1c.6.3.6.7,0,1ZM469,387c.5.4-5.5,8.7-8,8-.6-.6,5.8-9.7,8-8ZM459.5,396c1,.9-1.5,2.5-1.5,1.5l1.5-1.5ZM85.7,642.9c1-.7,3.5-.9,5-1.7,10.5-6.1,20.2-13.8,29.8-21.2l2,3,53.5-39.5c.8-.6,3.6.3,3.8.7.4.7.3,6.1.1,7.3-.5,2.8-11.9,10.6-15.1,12.9-8.2,6.1-18.8,15.2-28.6,15.3-12.2,9.1-24.4,18.4-37,27.1-1.8,1.2-14.4,10.1-15.3,9.2,0-2.8-.6-11.5,1.6-13.1h0ZM145,473.5c20-4,40.7.8,61-.5l-1.5,2-59.5-1.5h0ZM202,482v3h-41c-1.6-1.2,0-1.8,1.5-2,5.7-.7,13.1.3,19.1,0,6.5-.2,13.6-1.9,20.5-1h0ZM147.5,483c3.6-.5,7.9.3,11.5,0,.2,1.5-2.6,1.8-3.6,1.9-3.1.3-6.3,0-9.4,0-1.6-1.2,0-1.8,1.5-2h0ZM209.5,499c-9.2,1.2-24.2.2-34.1,0-4.7,0-9.6-1.2-15-1.1-4.5,0-11.4,3.3-14.4-.9h65c1.7,1.2-.1,1.8-1.5,2h0ZM247.5,500c-2.9.4-32.5.1-32.5-1.5,10.9-3.8,22.8.2,34-.5,1.6,1.2,0,1.8-1.5,2h0ZM239.5,483.9c-4.6,0-13.2,3.6-15.5-1.4l31,.5c-3.3,4.2-10.6.9-15.5.9ZM252.5,475c-11.7.5-25.8.6-37.5,0-6.2-.3-6-1.7,0-2,3.9-.2,40.4-1.5,41,.5.7,2.3-2.1,1.4-3.5,1.5h0ZM278.5,484c1.5.2,3.1.1,3.5,2h-14.5l-10.5-2c7.2-1.2,14.3-1,21.5,0h0ZM196,452c0-2,0-4,0-6-.1-13.6,0-27.3,0-41,11-2.3,22.4-1.4,33.5-2,10.5-.6,23.8-3,34-2.1,2,.2,2.5.1,3.4,2.1.3-1.7-.8-2.4,2-2,0,11.2.1,22.4,0,33.5,0,2.8-1,5.3-1,8.5,0,.1,1,1.1,1,2.4,0,5.2,0,10.4,0,15.6-.7,0-1.3,0-2,0-5.9.3-12,0-18,0h-1c-15.4,0-34.6,1.4-49.6,0-1.2-.1-1.8.4-2.4-1-.1-.2,0-.6,0-1-.1-.9,0-2,0-3,0-1.3,0-2.7,0-4h0ZM144,411l31-2c0,8.6,0,17.4,0,26v6c0,6.6,0,13.4,0,20h-29c-1.2-5-.6-10-1-15-.9-11.6-1.4-23.2-1-35h0Z"/>
      <path class="st6" d="M567,338c-2,.5,0,3.1.6,3.9,7.9,10.2,12.3,16.3,18.4,28.1l4-2c-1.1,3.4,1.2,3.6,1.9,4.8,2.5,4.6,4.6,9.6,7.1,14.2,22.7,41.4,52,75.8,81,112.5,51.7,65.7,104.8,130.7,160,193.5,25.1,28.5,51.2,56.1,77,84h53.5c-60.1-59.5-121.5-117.5-180.5-178-3.2,2.2-13.3,2.8-16.1.6-7.5-9.2-14.7-18.7-22.4-27.6-7.5-8.6-51.4-54.5-51.5-61-1.8-.5-2.6-1.4-3.8-2.7-20.3-21.5-41.4-47-58.2-71.3-1.2-1.7-5.6-5.8-5.8-6.2-.8-1.5.8-2.5.8-2.8,0-1.2,0-1.8-.5-2.9-3.7-7.8-17.3-21.9-22.9-30.1-9-13.2-15.8-28.2-25.6-40.9.8,2.5,2.3,4.7-2,5,.5-5.8-7-7.6-6-14-3.2-2.8-4.4-5.1-9-7h0Z"/>
      <path class="st6" d="M471,416c.2-3.2-.6-2.1-1.8-.3-3.6,5.4-6.5,9.4-9.2,15.3,4.4-2.1,7.9-10.2,11-15Z"/>
      <path class="st6" d="M533.4,619c-1.3,0-2.2-1-2.4-1-3.6-.4-6.1.6-9.7-1.7-2.2-1.4-2.8-5-4-5.3-3.8-.9-7.1,2-9.8,1.9-3.3,0-6.2-4.9-10-2-1.8,1.4-1.5,4.4-5,5.1-5.6,1.1-26.5.6-33,0-4.5-.4-7.2-3.4-12.3-1.3-1.5.6-.8,3.3-4.5,2.3-.8-.2-.6-2-2.6-2.6-3.4-.9-16.2-1.6-17-5.1-.4-1.7,1.9-4.2-.1-5.3-.9,1.8-6.6,12.4-7.2,12.8-1.7,1-9.8-.2-12.8.2-3.7.5-4.5,2.4-6.7,2.9-3.8.8-4.1-2.1-6.5-3.1-4.5-1.9-8.9-3.1-13.3-5.7-3.3-2-4.2-6.3-5.7-7.8-1-1-13.1-2.5-15.3-2.3-2.3.2-3.5,1.5-5.2,1.8-1.4.3-3-1-4.3-.4-1.4.7-1.6,3.4-2.7,3.6-4.6,1-9.1-2.5-10.2-6.8-.5-1.8,3.5-6.9,4.9-8.7,6.6-8.9,15.9-18,23-27,25.9-32.6,53.5-67.2,78-100.5,6.8-9.2,16.7-22.4,21-32-4,2-6.3,9.5-9.3,13.6-2.3,3.1-7.8,8.4-10.7,11.4-.8.8,1.9,1.5-3,2-1.1,7-3.4,6.1-7,10.8-49.4,63-98.5,125.4-149,187.2-22.4,27.4-45.2,54.3-68,81.5-10.5,12.5-20,25.9-31,38-1,1.2-2.1,1.4-3.5,1.4h135.4l68-121h15c1.3,1.2-11.3,23.5-12.9,26.6-2.9,5.7-5.8,11.5-8.4,16.6-13.2,26-26,52.3-40.2,77.8h561c-20.8-22.4-39.6-46.4-59.1-69.9-2.3-2.7-4.3-5.6-6.4-8.1-25-30.3-50.1-61.1-74.6-91.9-50.6-63.8-102.5-127-146-196-3.2-5-5.2-10.1-9.4-15,4.6,13.9,12,25.6,20,38,1.2,1.9,2.7,4,4,6,.7,1,1.3,2,2,3,5.1,7.6,13.9,17,18.1,25.4,1,2,.7,4.5,1.4,5.6.6.9,2.5.6,3.6,1.6,1.4,1.3,4.3,8.3,6.1,10.7,19.1,25.5,39.8,50.3,59.2,75.7,7.4,9.7,14.2,19.8,21.4,29.6.6,2.7.8,7.1-2.5,8.1-1.8.5-17.1-1.3-19.8-1.8-2.2-.5-2.8-2.3-4.2-2.8-6-1.9-6.5,3.2-10.2,4.4-2.5.8-5.2,0-7.8,1.2-2.2.9-3.8,4.2-6.2,4.9-2,.6-3.5-.8-5.7,0-4.9,1.9-6.7,7.5-8.3,8.8-1,.7-2.7.3-3,.5,0,0,.4,1.8-.7,2-2.7.7-7.1-.7-10.3,1,.5-2.9-4.7-7-5.1-8-2.7,5.2-5.1-.7-7.8-1.8-1.3-.5-18.8-4.4-19.8-4.3-2.2,0-1.2,2.6-3.9,3.1-3.2.6-7.5-.4-11,0-2,.2-3.5,1.7-6,2-4.5.5-25.4.1-27.5,1.5-1,.6-1.3,3-2.6,3.4-.9.2-3-1-4.8-.9-2,.2-3.6,2-6.1,2.1-1.5,0-5.3-1.3-5.5-1.1-.3.3.5,4.4-1.5,5l-12.5-6c0,2,0,4,0,6h-10.6s0,0,0,0ZM691,656l69,120h-22l-61-120h14Z"/>
      <path class="st6" d="M108,772.5c-.9.9-3.2,4.5-3.5,4.5h73.5c-5.3,0-12.1-2-18-1,0-1.7,2.7-1.7,3-2,35.7-39.9,71.7-81.3,107-122,54.7-63.1,111.1-128.3,163-194,1.8-2.3,3.8-2.8,4-3,7.5-9.8,15.7-21.8,23-31.8,7.6-10.4,18.1-23.4,21.5-35.2.3-1,1.4-4.3,1.7-4.8.6-.9,5.1,1,1.8-3.2-15.8,24.9-40.4,54-60,76,2.3,1.1.4,2.9-.5,4-25,33-56.8,63.9-84.5,94.9-5.2,5.8-10.1,13-15.5,19-10,11.3-21,21.8-31.5,32.5-1.1.5-4.8-1.1-6.5-1.6-2.3-.6-2.9,1.2-2.5-3-58.2,57.1-119.1,112.1-176,170.5h0Z"/>
      <path class="st6" d="M513,324c-4,.5-8,.6-12,1v2c7-.1,14.1-1,21-2,5.7-.8,12.1-1.9,18-3,15.7-3,30.8-7.2,46-12,0-2.1,1-2.9,2.7-3.8,5.3-2.9,13.4-5,18.8-8.2.9.5.6,4.8.5,5-.2.3-1.5-.2-2,0,1.4,2.1,4.2.7,6,0-.7-7.2.6-4,5-5.4,6-1.9,5.1-3.7,12-2.6.3,0,.7,0,1,0-.4-3.4-.2-2.5,2.2-3.3,7.2-2.6,14.6-5,21.4-8.7l.5,6c1.2-.4,2.5-.5,4-1,.1-1.7.4-3.7,1.2-5.3,2.8-5.2,24.3-8.5,29.3-14.7l1.5,7c.8-.3,1.5-.8,2-1-3.6-8,5.2-8.6,11.4-11.2,2.5-1.1,4.4-1.8,6.9-3,6.5-3,12.9-6.3,19.2-9.8l.5,8c1.4-.6,2.7-1.4,4-2-1.1-12.1,10.4-13.5,18.2-17.2,1.8-.9,2.6-3,4.8-2.7v9c1.2-.6,2.7-1.3,4-2,0-.6.1-1.4,0-2-.5-2.2-2-4.5-.5-7,.3-.6,8.3-5.7,7.5-1,1.5-1.6,1.8-1.8,3-3,4.4-4.2,8.2-7.6,13.5-11-.3,2.9,3,7.9,2.5,10,.3-.1.7.1,1,0,.4-1.2.9-2.3,2-3-3.7-11.9,4.7-10.5,11.4-14.1,3.3-1.8,15.9-13.5,19.1-12.9,2.5.5,1.3,8.7,1.5,11h1c2-1.2,3.3-2.6,4-3v-1c-2-4.1-3-7.5.5-11,1-1,11.6-7.4,13-8,1.7-.7,2.4,4.1,2.5,5h1c.8-6.1,4.5-8.8,8.6-12.4.4-.4.4-3,2.3-1.5.3.3-.1,1.8,0,1.9.2.2,4.9,1.7,5.5,1.8,3.4.6,7.2-1.4,10.5-1.8.4-.3.6-.8,1-1,.3-.2.6-.7,1-1,16.7-11.4,40.2-24.4,55-37l-1-80.5c.2-1.8-4.8-4.3-6-4.5-3.8-.7-17-.1-19.4-1.9-1.3-.9-.7-3.9.4-4.7,1.7-1.2,17.1,4.4,20,5.6,2.5,1,6.2.2,7,4.5,1.8,26.8.6,53.7,1,80.5,0,2.2,1,5,1,8,8.1,0,23.8-1.9,22,10-1.7,0-3.3-.1-5,0-2.4.2-13.8,1-15,2-.2.2.8,3.8-3,1-.1.4.3,1.2-.2,1.8-.4.4-6.1,2.7-7.8,3.8-36.2,24.3-74,47.8-113.1,67.4-1.3.7-2.7,1.3-4,2-.7.3-1.3.7-2,1-27,13.4-58.5,30-86.8,39.8-2.5.9-8.1,3.1-10.2,1.2-8,4.3-14.2,5.2-24.5,9.3-23,9.2-51.9,19.7-78.5,27.2-11.9,3.3-32,9.3-43.7,10.1-2.5.2-5.9-1.4-8.7-.6-1,.3-.6,1.9-.7,2-.5.4-1.6-1.5-2.6-1.7-1.7-.3-5.1,1.5-7.4.8v3c12.3.9,23.6,2.5,34.3,9.2,15,9.4,18.9,24.5,28.3,38.7,29.2,44.3,72.2,84.6,109.4,122.6,11.3,11.5,21.9,22.4,33.5,33.5,79.3,75.6,161.8,147.9,245,219,1.5,2.3-.5,3.7-.5,4.5v21.5h34V0h-437l1,5c12.6.8,19.8,1.8,32,5,5.2,1.4,11.2,2.6,16,5,1.4.2,2.7.8,4,1,16,2.9,41.2,15.3,56,23,3.1,1.6,4.3,3,6,4,2.3,1.3,10.2,2.5,10,6,2.2-.2,3.8,2.5,5,3,7.9,3.4,8.7,5,15,9,3.3,2.1,6.7,4,10,6,2.4,1.4,5.4,2.3,7,5,4.2.3,7.7,3.6,10,7,2.8.4,5.8,1.9,6,5,1.4.2,6,3,7.3,4,.9.6.6,2,.7,2,2.1,1.5,3.2,2.6,5,4,3.2,2.5,5.6,4.1,9,7,2.3,2,3.8,3.9,5,5,3.2,2.9,6.7,5.7,10,9,.4.4,3.6,1.1,4,4,2.9-.2,3.6,2.7,5,4,3.5,3.1,5.8,5.6,9,9,1.9,2,3.3,3.9,5,6,1.5,1.8,2.6,3.2,4,5,1.4,1.8,2.5,3,4,5,1.5,2,4.5,3.6,4,7,4.9.6,6,4,8.9,7.7.8,1.1.8,2.9,1.1,3.3,1,1.2,7,5.1,7,5.5-1.1,1.6-3.7,2.6-5,3.5-4.6,3.4-7.6,5.4-13,8-2.6,1.3-5.2,3.8-8,4,.4,1.7-4.2,4.3-6.1,5.4-1.1.6-2.6.3-2.9.6-3.1,1.9-6.8,4.1-10,6s-3.5,2.5-6,4c-.3.2-.7,1.3-1.6,1.8-13.2,7.8-27.4,14.1-39.9,23.2-.9-7.9-.5-16-.5-24v-79c-1.5.4-3.2-.3-4,2,.2,1.9-.2,4.1,0,6,.3,2.4.9,4.1,1,7,0,1.3,0,2.7,0,4,0,2.3,0,4.7,0,7,0,5.6,0,11.4,0,17,0,2,0,4,0,6,0,4.3,0,8.7,0,13v5c0,2,0,4,0,6,0,1.7,0,3.3,0,5,0,7,.9,17,0,23.6-.2,1.4-.2,2.6-1.5,3.5-30.7,17.1-62.5,31.7-95.1,45l-1.5-1.5v-69.5c-.3-2.3,1.8-2.4,3-3.7v-1.3c-3,.6-4.8-.8-5.8,3.7-.8,3.8-.9,14.1-1,18.8,0,1.3.8,2.6.8,3.4,0,1.3,0,2.7,0,4,0,2.6-1,5.1-1,7,0,1.3,0,2.7,0,4-.2,12.3,0,24.7.5,37l-44,16-1.5-1.5v-51.5c-.9.2-15.2-1.7-18-2l1,4c4.5,0,8.5-1.3,13-1-.9,6.2,2.2,13.4,1.1,19.5-.2,1.3-3.1-.1-3.1,1,.3,1.2,2.8-.3,3.1,1,.5,2.8.3,30.2-.5,31.5-8.1,3.3-16,7.7-24.3,10.7-15.8,5.8-30.5,7.8-46.5,11.5-4.9,1.1-14.5,5.5-18.4,5.7-1.2,0-3.4-.4-3.4-1.5v-36l-3-5.5c0,7.3,0,14.7,0,22,0,1.3,0,2.7,0,4,0,6.4-.5,12.8,1,19h0ZM926.9,460.9l-93.9,1.1c.7-6.8-1.2-13.4-2-20-3,.6-1.7-2.6-3.4-4.1-1.3-1.1-3.8-1.2-5.5-2.5-1-.7-1.7-3.2-2.6-3.5-1.9-.5-7,6.8-9.5,7l-1,22c-6.4.5-12.6.9-19,1-4.7,0-9.3,0-14,0,0-10,0-20,0-30,0-34.6-1.2-68.9-2-103.5-.2-6.6-1-21.2,1-26.5.3-.9-.7-1.2,1.2-2.3,4.5-2.5,16.9-4.1,22.8-5.7,31.2-8.5,62.7-21.6,93.6-28.9,10.9-2.6,10.9-.2,14.4,9.4,7.5,20.2,14.4,46.2,18,67.5,6.6,38.7,7.9,80.1,1.9,118.9h0ZM909.5,485c-7.3-.8-16,.9-23.1,0-1.8-.2-1.6.3-1.5-2h40l-15.5,2ZM925,497v2h-16v-2h16ZM854.5,496.9c3.5-.3,14.7-1.4,14.5,3h-19c-.2-3.2,2.2-2.9,4.5-3ZM843,486v-3h15c1.7,1.3-.1,1.8-1.5,2-4.4.5-9.1.8-13.5,1h0ZM863,485v-3h18v3h-18ZM879,497h22v2h-22v-2ZM840,474c-.4-1.1,3.3-2,3.5-2h84.5l-1.5,2c-28.8,1.5-57.8,1.6-86.5,0ZM893.3,214.8c8.3-3.2,16.3-8.2,24.3-11.7,1-.4,10.4-5.1,10.4-1.6l-44,20.5,9.3-7.2h0ZM607,330.5c18.8-6.1,37.9-11.4,56.8-17.2,31.7-9.8,65.7-21,97.7-33.3,14-5.4,29.9-11.3,43.5-17,14.4-6.1,28.6-13.6,43-20,11.5-5.1,23.2-10.6,35-15,0,2.3-3.4,4.3-5.1,5.4-9,6.1-19.2,8.3-28.9,12.6-14.6,6.4-29.2,13.8-44,20-60.8,25.4-119.7,43.5-182.8,61.7-3.9,1.1-7.7,3.6-11.8,4.2-1.2.2-4.3.8-3.4-1.4h0ZM748,515c-6,0-5.6-7.7-6.5-12,1.8.9,7.2,11.3,6.5,12ZM988,722c-13.8-8.9-24.5-22-38.8-30.2.2-7.7-1.8-16.8,1.8-23.8-2.4-1.8-5.1-6.5-9-6,1.6,3.7,1.8,11.5,1,15.5-.2.9-3.5,4.8-4.5,4.4-9.8-8.2-19.2-16.9-29.1-25-3.5-2.8-15-9.8-16.5-12.5-1.4-2.4-.6-13.3.2-15.9.6-1.9,2.3-1.6,3.9-1.6-4.2-4.3-9.4-7.2-14-11-.5,12.8,4.8,23.4-10.5,11-9.8-8-19.3-16.8-29-25-2.2-1.8-9.9-6.3-11-8-1-1.6,1.7-15.6.5-19-.2-.1-1.1.2-1.7-.2-1.6-1.4-2.7-5.8-6.3-5.8,3,5.3,3.2,12,3,18l-3-.5c-9.1-11.1-27.4-20.5-36-31-4.2-5.1-3.9-11.2-2-17.5-2.9-2.4-6.1-4.7-9-7l1,14c-1.2,1.3-16.7-12.3-18.5-14-4.5-4.3-12.6-11.5-11.5-18.5.1-.8,3.7-.3,4.1-2.5-4-2.6-10-8.6-14-12l-1,9c-1.5.3-2.3-.1-3.5-1-2-1.3-11-9.3-13.1-11.4-1.5-1.5-11.5-11.9-11.9-12.7-1-2.2.3-5.9,2.5-7-1.1-.9-1.9-2.7-4-3v7c-3.5.8-3-1.6-5-3.5-3.8-3.7-8-7-11.6-10.4-6.8-6.6-12.6-14.1-20-20l-1.5,2c-4.6-10.8-18.7-17.1-23.5-27-1-2.1-1-5.5-2-7-1-1.5-10.5-6.7-12.5-9.5-.9-1.3-1.8-4.6.5-3.6,3.4,1.4,14.5,12.6,17,16.1,3.6,4.9,7.9,17,16,15,1.5-.4-.1-11,8,0,4.8,6.5,1.3,5.8,9.6,9.9,6.7,3.4,7.1,8.8,11.6,13.9,3,3.4,12.4,12.5,15.4,15.1,5.4,4.6,12.8,8.2,18.5,13,5,4.2,8,9.1,12.3,13,7.9,7.2,19.7,12.2,27.2,20,5.5,3.3,7.7,7.1,12,10.4,14.5,11.4,28.4,20.5,42.9,33.2,9.6,8.4,20,16.3,30.1,24.4,10.3,8.3,18.7,15,28,24,7.6,7.3,7.6,6,16.6,9.9,12.9,5.5,35.4,27.9,46.5,37.5,3.5,3.1,9,4.5,12.9,7.1,9.1,6,17.8,12.9,26.8,19.2,1.4,1,4.5,1.7,5.3,2.7,2.6,2.9,0,8.2,0,11.5-.1,4,.7,24.7-1,26h0ZM989,657l-31.5-21c-5-9.7-16.5-12.3-24.8-17.2-8.4-5-26.3-15.6-32.9-21.8-3-2.9-3.1-6-2.8-10,2.8-2.7,17.5,8.1,20.4,10.2.9.7,1.3,2,2,2.5,5.7,4.1,11.7,8.4,17.1,12.3,10.7,7.8,20.6,12.8,31.2,19.9,4.2,2.8,20.6,11.9,21.3,15.7.5,2.8-.3,6.5,0,9.5h0ZM990,620c-.3,5.5-.3,13.5-1,18.5-.2,1.4.5,1.7-1.5,1.5-7.6-5.8-15.8-10.9-23.6-16.4-6.1-4.3-9.7-7.1-14.9-13.1-1.2-1.3-1.2-3.5-2.9-5.1-2.5-2.3-5.7-1.5-8.1-3.4-.6,0-1.4,0-2,0-3.6,0-1.4-1.6-2-2-.6-.4-9.9-2.5-14-5-1.7-1-3.1-2.2-4-4-4-1.8-16.5-9-19.9-11.6-6.1-4.6-10.8-14.8-20.1-13.4.3,1.1-.3,2.3.5,4,2.4,5,11.9,8.9,13.5,12.6,1,2.4-1.5,1-2.1,1-2,0-5.6.5-6.2.3-3.2-.8-20.7-15.2-24.8-18.3-.8-.6-.8-2.3-1-2.5-.2-.2-2.3-.3-3.3-1.1-2.7-2.1-21-13.7-17.7-16.9,9.2.4,17,10.1,25,14,3.1,1.5,6.9,2,10,3-8.5-8-19.5-12.7-28.5-20-11.4-9.3-11.5-11.9-25.5-19-1.3,8.9,10.2,8.6,11,14.5.3,2.3-1.7,1.7-3.4,1.4-7.4-1.1-29-22.1-37.1-27.9-8-5.7-35.6-19.5-38.4-26.6-.4-1-1.3-5.2-1-5.5.5-.5,3.3,1,3-1-3.3-.8-7.1-3-9-6-1.9-.6-3.3-1.4-5-2-4.5-1.6-17.7-6.8-18-12-2.7-.8-1.9-1.2-3-2-3.7-2.6-7.3-5.5-11-8-1.2-.8-7.5-3.8-7.8-4.2-.5-.6,0-1.4-.2-1.8-.7-.3-1.3-.6-2-1-.6-.3-1.3-.6-2-1-4.9-3-11.6-6.7-14-12-.3,0-.7,0-1,0-2.6-.1-2.2-1.5-3-2-6-3.9-14.2-9.8-19-15-2.3-1.6-6.7-1.6-8.6-2.9-2.7-1.9-7.7-8.6-10.4-11.1-8.4-7.7-16.1-14.6-24-23-8-8.5-15.8-17.2-23-26.5,5,.3,8.5,4.3,12,7.5,1.9-.9-.7-4,0-5,.5-.7,10.1-1.8,12-2l1-1c.6,0,1.3,0,2,0,3.8-1.7,29.3-7.9,30.9-6.9.4.3.5,2.2,1.1,3.1.5.7,1.8.6,2,1.4,2.2,10,.7,23.8,1,34.3.2,6.8.7,13.4,2,20,8.6,6.1,17.3,12.1,26,18-.3-4.3-.9-8.7-1-13-.7-25.3,2-50.6,1-75.9,10.2.7,50.2-15,57-11.6,1.5.8,1.6,3.4,2.6,3.6,4.9,1,5-5.1,5.3,3.9,1.5,40.1-1.3,80.5,0,120.5.2,4.5,2.3,8.6,0,13.4,82.2,47.5,163.9,95.9,246,143.5,1.7,1.9.2,14.8,0,18.5h0Z"/>
    </g>
    <path class="st0" d="M143,380"/>
    <path class="st0" d="M144,411"/>
  </g>
  <g id="Capa_2">
    <path class="st2" d="M0,777h84l-1.9-87.5v-86.6s248.9-141,248.9-141l-185-1-3-81S167.5,58.2,503,0H0v777Z"/>
    <path class="st2" d="M990,777v-175.5s-173-102-173-102l108-.5S1002.1,115.1,587,0h437v777h-34Z"/>
  </g>
</svg>